<svg width="480" height="477" viewBox="0 0 480 477" fill="none" xmlns="http://www.w3.org/2000/svg">
<path d="M403.172 75.9602C408.92 79.5022 415.545 81.3784 422.303 81.3784C429.061 81.3784 435.686 79.5022 441.434 75.9602C448.167 71.8116 453.359 65.5878 456.222 58.2326C459.085 50.8774 459.464 42.7922 457.3 35.2032C455.137 27.6142 450.549 20.9354 444.233 16.1798C437.918 11.4243 430.218 8.8514 422.303 8.8514C414.388 8.8514 406.688 11.4243 400.373 16.1798C394.057 20.9354 389.47 27.6142 387.306 35.2032C385.143 42.7922 385.521 50.8774 388.384 58.2326C391.248 65.5878 396.439 71.8116 403.172 75.9602Z" fill="#EBEBEB"/>
<path d="M411.228 40.9652C411.228 43.1495 411.878 45.2848 413.096 47.1011C414.313 48.9173 416.044 50.3329 418.069 51.1688C420.093 52.0047 422.321 52.2234 424.471 51.7973C426.62 51.3711 428.594 50.3193 430.144 48.7747C431.694 47.2301 432.749 45.2622 433.177 43.1198C433.604 40.9774 433.385 38.7568 432.546 36.7387C431.707 34.7206 430.287 32.9957 428.465 31.7822C426.643 30.5686 424.5 29.9209 422.309 29.9209C420.853 29.9193 419.412 30.204 418.067 30.7585C416.722 31.3129 415.5 32.1264 414.47 33.1523C413.441 34.1781 412.625 35.3962 412.069 36.7369C411.512 38.0775 411.227 39.5144 411.228 40.9652Z" fill="white"/>
<path d="M403.172 71.4098L403.172 75.9602C408.92 79.5022 415.545 81.3784 422.303 81.3784C429.061 81.3784 435.686 79.5022 441.434 75.9602L441.434 71.4214C441.497 68.8776 441.049 66.347 440.116 63.9785C439.183 61.6101 437.784 59.4516 436.001 57.6302C434.218 55.8089 432.088 54.3615 429.736 53.3732C427.383 52.385 424.856 51.8759 422.303 51.8759C419.75 51.8759 417.223 52.385 414.871 53.3732C412.518 54.3615 410.388 55.8089 408.605 57.6302C406.822 59.4516 405.423 61.6101 404.49 63.9785C403.557 66.347 403.109 68.8776 403.172 71.4214V71.4098Z" fill="white"/>
<path d="M97.0571 77.5105C101.738 65.7809 95.9924 52.49 84.2243 47.8246C72.4562 43.1592 59.1218 48.8859 54.4411 60.6155C49.7604 72.3451 55.5058 85.636 67.2739 90.3014C79.042 94.9668 92.3764 89.2401 97.0571 77.5105Z" fill="#EBEBEB"/>
<path d="M87.4415 71.8986C83.9387 78.8813 75.7655 83.0011 75.7655 83.0011C75.7655 83.0011 67.5222 78.8696 64.0895 71.8986C61.2055 66.0796 63.027 59.8185 67.5923 58.4452C74.1192 56.4784 75.7655 67.8137 75.7655 67.8137C75.7655 67.8137 77.4352 56.4784 83.9387 58.4452C88.504 59.8185 90.3255 66.1495 87.4415 71.8986Z" fill="white"/>
<path fill-rule="evenodd" clip-rule="evenodd" d="M33.7553 200.799C32.3075 199.903 31.0581 198.6 29.0849 198.798C28.3493 198.867 28.5128 198.262 28.5011 197.855C28.5011 190.639 28.4739 183.432 28.4194 176.232C28.4194 175.696 28.4194 175.266 29.0148 174.987C34.5376 172.182 36.9078 166.712 40.2822 162.034C42.0098 159.708 43.2505 157.06 43.9305 154.247C44.6104 151.434 44.7158 148.514 44.2403 145.659C43.9951 144.03 44.7541 143.332 46.2253 142.971C47.9883 142.563 49.728 143.041 50.3586 144.251C51.9574 147.191 53.0357 150.384 53.5461 153.689C53.873 156.424 52.8922 159.089 52.5653 161.836C52.3201 163.826 51.8648 165.781 51.4911 167.783C51.9815 168.132 52.542 167.957 53.0557 167.957L71.3987 167.899C73.9674 167.899 75.2401 168.632 75.602 170.331C75.7877 171.36 75.6385 172.421 75.1764 173.359C74.7143 174.297 73.9633 175.063 73.0333 175.545C72.578 175.766 71.749 175.545 71.7023 176.278C71.6556 177.012 72.4962 176.93 72.8699 177.221C75.0883 178.722 74.6913 181.876 72.1343 183.657C71.5271 184.099 70.3245 183.901 70.3011 184.82C70.2778 185.74 71.4687 185.53 71.9124 185.984C73.7105 187.742 72.8348 191.023 70.161 192.362C69.797 192.475 69.4418 192.615 69.0985 192.781C68.7949 192.979 68.4914 193.211 69.0985 193.63C71.749 195.504 71.7023 198.123 69.0985 200.043L68.3046 200.625C67.3396 201.202 66.2128 201.451 65.0937 201.335L36.3357 201.439C35.8845 201.512 35.4233 201.492 34.9798 201.382C34.5363 201.272 34.1198 201.074 33.7553 200.799Z" fill="#EBEBEB"/>
<path fill-rule="evenodd" clip-rule="evenodd" d="M6.48017 188.172C6.48017 183.599 6.48017 179.013 6.48017 174.428C6.48017 173.497 6.5619 173.043 7.64777 173.043C13.2639 173.101 18.8567 173.043 24.4612 173.043C25.6288 173.043 25.7339 173.404 25.7339 174.381C25.7339 183.599 25.7689 192.82 25.839 202.044C25.839 203.208 25.5237 203.546 24.3444 203.534C18.9034 203.534 13.4624 203.534 7.99805 203.592C6.64364 203.592 6.45682 203.15 6.4685 201.963C6.48017 197.343 6.48017 192.758 6.48017 188.172Z" fill="#EBEBEB"/>
<path fill-rule="evenodd" clip-rule="evenodd" d="M449 296.858C448.16 296.334 447.424 295.566 446.291 295.694C445.859 295.694 445.953 295.38 445.941 295.147C445.941 290.911 445.941 286.675 445.941 282.439C445.941 282.124 445.941 281.88 446.291 281.706C449.537 280.065 450.962 276.853 452.912 274.106C453.928 272.739 454.658 271.183 455.059 269.53C455.461 267.877 455.524 266.16 455.247 264.482C455.107 263.527 455.55 263.097 456.414 262.899C456.847 262.749 457.317 262.741 457.754 262.877C458.191 263.014 458.573 263.286 458.843 263.655C459.78 265.381 460.412 267.255 460.711 269.195C460.706 270.802 460.514 272.403 460.139 273.966C459.987 275.13 459.719 276.294 459.509 277.458C459.789 277.656 460.127 277.551 460.431 277.551H471.196C472.714 277.551 473.45 277.97 473.66 278.971C473.78 279.587 473.693 280.225 473.413 280.787C473.132 281.349 472.673 281.803 472.107 282.078C471.838 282.218 471.36 282.078 471.325 282.509C471.29 282.939 471.792 282.893 472.049 283.067C473.345 283.952 473.111 285.779 471.617 286.849C471.255 287.105 470.554 286.989 470.531 287.513C470.507 288.036 471.185 287.932 471.477 288.223C471.71 288.52 471.871 288.867 471.945 289.237C472.02 289.607 472.007 289.99 471.907 290.354C471.808 290.718 471.624 291.054 471.371 291.334C471.117 291.615 470.802 291.833 470.449 291.97C470.234 292.039 470.024 292.121 469.818 292.214C469.643 292.342 469.468 292.47 469.818 292.715C471.371 293.879 471.348 295.357 469.818 296.486L469.352 296.823C468.789 297.167 468.128 297.315 467.472 297.242H450.576C450.301 297.292 450.019 297.283 449.747 297.217C449.476 297.151 449.221 297.028 449 296.858Z" fill="#EBEBEB"/>
<path fill-rule="evenodd" clip-rule="evenodd" d="M432.911 289.445C432.911 286.756 432.911 284.056 432.911 281.368C432.911 280.821 432.911 280.553 433.635 280.565C436.927 280.565 440.22 280.565 443.513 280.565C444.155 280.565 444.26 280.774 444.26 281.345C444.26 286.776 444.26 292.207 444.26 297.638C444.26 298.324 444.073 298.522 443.384 298.522C440.185 298.522 436.997 298.522 433.798 298.522C433.004 298.522 432.899 298.255 432.899 297.568C432.957 294.821 432.922 292.133 432.911 289.445Z" fill="#EBEBEB"/>
<path d="M417.475 184.285H414.124C413.624 184.29 413.129 184.195 412.666 184.007C412.204 183.818 411.784 183.54 411.43 183.188C411.077 182.836 410.798 182.417 410.609 181.956C410.42 181.495 410.325 181.001 410.329 180.503C410.332 179.501 410.733 178.54 411.444 177.832C412.155 177.123 413.119 176.724 414.124 176.721H418.794L420.978 164.059H416.739C415.768 164.005 414.854 163.582 414.185 162.878C413.516 162.173 413.144 161.24 413.144 160.27C413.144 159.301 413.516 158.368 414.185 157.663C414.854 156.959 415.768 156.536 416.739 156.482H422.297L423.745 147.824C423.889 146.93 424.355 146.119 425.056 145.543C425.756 144.967 426.644 144.665 427.551 144.693C428.105 144.702 428.651 144.829 429.152 145.065C429.653 145.301 430.098 145.64 430.457 146.061C430.816 146.482 431.081 146.974 431.234 147.504C431.388 148.035 431.426 148.592 431.346 149.139L430.038 156.482H441.493L442.964 147.824C443.112 146.921 443.587 146.103 444.299 145.526C445.011 144.949 445.911 144.653 446.829 144.693C447.379 144.705 447.921 144.834 448.417 145.071C448.913 145.309 449.353 145.65 449.706 146.071C450.059 146.493 450.317 146.984 450.463 147.513C450.609 148.043 450.64 148.597 450.553 149.139L449.304 156.482H452.678C453.681 156.492 454.639 156.893 455.347 157.601C456.055 158.309 456.455 159.265 456.461 160.265C456.446 161.262 456.044 162.215 455.338 162.923C454.632 163.63 453.679 164.038 452.678 164.059H448.008L445.801 176.709H449.958C450.457 176.704 450.953 176.799 451.415 176.987C451.878 177.176 452.298 177.454 452.651 177.806C453.005 178.158 453.284 178.577 453.473 179.038C453.662 179.499 453.757 179.993 453.752 180.491C453.749 181.493 453.348 182.454 452.638 183.162C451.927 183.871 450.963 184.27 449.958 184.274H444.482L442.952 193.223C442.801 194.114 442.333 194.92 441.634 195.495C440.935 196.07 440.052 196.375 439.146 196.354C438.59 196.352 438.042 196.23 437.538 195.998C437.034 195.765 436.587 195.427 436.226 195.006C435.866 194.584 435.601 194.091 435.45 193.558C435.299 193.025 435.265 192.466 435.351 191.92L436.74 184.274H425.275L423.733 193.223C423.576 194.12 423.1 194.93 422.393 195.505C421.685 196.08 420.793 196.381 419.88 196.354C419.325 196.362 418.774 196.247 418.268 196.016C417.763 195.786 417.315 195.445 416.959 195.021C416.602 194.596 416.345 194.097 416.206 193.561C416.067 193.024 416.05 192.463 416.156 191.92L417.475 184.285ZM438.013 176.721L440.208 164.059H428.801L426.594 176.709L438.013 176.721Z" fill="#EBEBEB"/>
<path d="M74.9715 294.472C79.2661 292.405 84.0182 291.461 88.7798 291.731C93.5413 292.001 98.1555 293.475 102.187 296.015C106.219 298.555 109.535 302.076 111.823 306.247C114.111 310.418 115.296 315.101 115.265 319.854C115.16 320.169 115.055 325.173 111.436 328.455C111.024 328.793 110.568 329.075 110.081 329.293C109.313 329.71 108.455 329.935 107.581 329.95C106.707 329.964 105.842 329.766 105.061 329.374C103.844 328.719 102.855 327.713 102.223 326.488L101.056 324.067C100.576 325.957 99.6917 327.722 98.4645 329.24C97.2373 330.759 95.6957 331.995 93.945 332.865C86.8694 336.357 78.1241 333.005 74.5045 325.673C70.8849 318.341 73.6521 309.555 80.7278 306.087C87.8035 302.619 96.3853 305.889 99.8881 313.197L100.168 313.768L100.343 314.128L105.516 324.603H105.586C105.857 325.145 106.258 325.613 106.754 325.964C107 326.07 107.269 326.112 107.536 326.088C107.803 326.063 108.06 325.973 108.283 325.825L108.855 325.545C110.758 323.997 111.19 320.669 111.19 319.819C111.306 316.028 110.459 312.269 108.727 308.891C106.623 304.646 103.304 301.118 99.1882 298.753C95.0727 296.388 90.3461 295.293 85.606 295.606C80.8659 295.918 76.3253 297.625 72.5585 300.51C68.7917 303.395 65.9679 307.329 64.4441 311.814C62.9203 316.298 62.7651 321.133 63.998 325.705C65.2309 330.278 67.7967 334.384 71.3707 337.503C74.9447 340.622 79.3664 342.615 84.0767 343.229C88.787 343.843 93.5743 343.051 97.8331 340.954C99.6679 340.134 101.378 339.06 102.912 337.765C103.087 337.586 103.299 337.447 103.534 337.36C103.769 337.273 104.02 337.24 104.27 337.262C104.519 337.284 104.761 337.362 104.976 337.489C105.192 337.617 105.376 337.79 105.516 337.998C105.699 338.174 105.84 338.389 105.93 338.626C106.021 338.864 106.058 339.118 106.039 339.371C106.02 339.624 105.946 339.87 105.821 340.091C105.696 340.312 105.524 340.503 105.317 340.651C103.567 342.153 101.633 343.428 99.5612 344.445C96.2639 346.135 92.662 347.153 88.9657 347.44C85.2693 347.728 81.5526 347.278 78.0324 346.118C74.5123 344.958 71.2592 343.111 68.4631 340.684C65.6669 338.257 63.3838 335.3 61.7468 331.984C60.1099 328.668 59.1519 325.061 58.9289 321.372C58.706 317.683 59.2224 313.987 60.448 310.5C61.6737 307.012 63.5841 303.802 66.0676 301.059C68.5512 298.315 71.5582 296.092 74.9132 294.519L74.9715 294.472ZM92.0885 329.165C97.0275 326.744 99.0941 320.401 96.4203 314.908C93.7465 309.415 87.3481 307.146 82.4091 309.566C77.4702 311.987 75.5203 318.434 78.1824 323.846C80.8446 329.258 87.0445 331.609 92.0885 329.165Z" fill="#EBEBEB"/>
<path d="M240 477C372.497 477 479.907 463.208 479.907 446.195C479.907 429.181 372.497 415.389 240 415.389C107.503 415.389 0.0934056 429.181 0.0934056 446.195C0.0934056 463.208 107.503 477 240 477Z" fill="#EBEBEB"/>
<path d="M68.4447 334.599C62.6067 334.809 55.963 335.146 51.0825 331.329C46.5755 327.838 42.5473 322.566 43.1545 316.549C43.3179 314.827 43.7149 313.768 45.5597 314.501C48.3736 315.665 50.5454 318.714 52.4953 320.878C54.969 323.709 57.7056 326.3 60.6684 328.618C62.7701 330.224 65.0353 331.609 67.172 333.156C67.4366 333.343 67.7052 333.54 67.9776 333.75L68.2812 333.983H68.4447C68.4926 333.984 68.5396 333.996 68.5821 334.018C68.6246 334.041 68.6615 334.072 68.6899 334.111C68.6983 334.145 68.6983 334.181 68.6899 334.215C68.7001 334.257 68.7019 334.3 68.695 334.342C68.6882 334.384 68.6728 334.424 68.6499 334.46C68.6269 334.496 68.5969 334.527 68.5616 334.551C68.5264 334.575 68.4866 334.591 68.4447 334.599Z" fill="#455A64"/>
<path d="M68.7366 334.215C63.5524 334.122 57.9596 334.355 53.803 330.852C51.9059 329.173 50.2829 327.21 48.9925 325.033C48.397 324.056 46.6573 321.158 47.3461 320.006C48.6889 317.922 54.8655 326.43 55.7178 327.244C58.9599 330.17 62.9055 332.21 67.172 333.168C67.4366 333.354 67.7052 333.552 67.9776 333.762C64.9465 333.145 62.0388 332.032 59.3724 330.468C55.6945 328.28 53.6512 325.045 50.7672 322.031C50.1484 321.379 48.2686 319.179 47.568 320.541C47.101 321.449 48.829 324.288 49.2143 324.893C50.4408 326.957 51.9719 328.824 53.7563 330.433C57.8896 334.029 63.459 333.924 68.6899 334.122C68.7126 334.149 68.7287 334.181 68.7366 334.215Z" fill="white"/>
<path d="M71.6906 338.184L71.5505 338.871C71.545 338.899 71.5325 338.925 71.5141 338.948C71.4958 338.97 71.4722 338.988 71.4454 338.999C71.3876 339.02 71.3239 339.02 71.266 338.999C71.2081 338.978 71.1599 338.936 71.1301 338.882C71.1188 338.859 71.1129 338.833 71.1129 338.807C71.1129 338.78 71.1188 338.754 71.1301 338.731C71.1301 338.731 71.1301 338.673 71.1301 338.638L71.2002 338.44C71.2002 338.44 71.2002 338.44 71.2002 338.37C70.161 334.483 69.7524 330.433 68.6548 326.546C67.5573 322.659 66.3196 319.191 65.5373 315.397C65.0586 313.011 63.389 301.013 68.6899 302.502C71.0251 303.177 72.648 306.564 73.5471 308.589C74.7112 311.319 75.3718 314.237 75.497 317.201C75.8706 324.509 73.1851 331.178 71.6906 338.184Z" fill="#455A64"/>
<path d="M73.3953 323.253C73.4997 320.511 73.2127 317.768 72.5429 315.106C72.3094 314.187 71.1535 309.776 69.659 309.881C68.6899 309.939 68.4914 311.847 68.4914 312.476C68.1528 315.153 69.0168 317.876 69.5422 320.471C70.5778 325.755 71.2256 331.107 71.4804 336.485C71.4804 336.822 71.387 337.171 71.352 337.509C71.3169 337.846 71.2702 338.068 71.2352 338.358V338.649C71.2352 338.719 71.2352 338.789 71.2352 338.871C71.2627 338.924 71.3082 338.966 71.3637 338.989C71.4192 339.013 71.4812 339.016 71.5388 338.999C71.5388 338.777 71.6089 338.556 71.6322 338.335C71.6322 338.521 71.6322 338.696 71.6322 338.871L71.7373 338.312C71.7428 338.269 71.7428 338.226 71.7373 338.184C71.7373 337.881 71.7373 337.579 71.7373 337.288C72.5683 332.646 73.1219 327.96 73.3953 323.253ZM71.5972 335.356C71.4571 332.214 71.1418 329.083 70.6981 325.964C70.3362 323.45 69.8691 320.96 69.332 318.481C68.9892 317.086 68.7627 315.665 68.6548 314.233C68.6548 313.151 68.7716 309.101 70.8616 311.603C72.3678 313.43 72.7414 317.306 72.9166 319.528C73.0976 322.01 73.0507 324.503 72.7765 326.977C72.4846 329.781 72.0175 332.574 71.5972 335.356Z" fill="white"/>
<path d="M74.8665 354.314C74.7966 354.322 74.7261 354.322 74.6563 354.314C69.262 354.046 62.0696 354.547 57.586 350.997C54.2817 348.367 51.0241 343.177 52.0633 338.777C53.2309 333.808 59.9912 339.767 61.766 341.198C66.4065 345.218 70.819 349.492 74.9832 354L75.0533 354.104C75.1117 354.244 74.9949 354.291 74.8665 354.314Z" fill="#455A64"/>
<path d="M75.0533 354.163L74.1309 353.581C70.6281 351.346 67.1253 348.926 63.8093 346.435C62.9686 345.795 56.8971 340.407 55.9747 342.327C55.4259 343.491 57.4342 345.818 58.0764 346.668C59.2251 348.101 60.6064 349.332 62.163 350.311C65.7592 352.545 70.126 353.034 74.1892 354.104L74.7614 354.244L74.8665 354.314C74.9949 354.291 75.1 354.244 75.0533 354.163ZM64.3931 351.102C62.6701 350.324 61.0912 349.261 59.7227 347.96C58.8236 347.11 55.6244 343.886 56.4768 342.571C56.9321 341.861 57.3058 342.246 58.1581 342.664C58.5615 342.856 58.9515 343.073 59.3257 343.316C60.2364 343.91 61.0654 344.596 61.9061 345.26C63.389 346.423 64.8835 347.587 66.4247 348.751C68.9234 350.567 71.5038 352.242 74.1425 353.918C70.8849 352.871 67.4755 352.44 64.3931 351.102Z" fill="white"/>
<path d="M84.7093 343.246C83.2987 349.402 80.0839 355 75.4736 359.33C75.4443 359.358 75.4081 359.378 75.3685 359.388C75.3168 359.404 75.2612 359.402 75.2105 359.383C75.1598 359.364 75.1169 359.329 75.0883 359.283C75.0497 359.242 75.0282 359.188 75.0282 359.132C75.0282 359.076 75.0497 359.022 75.0883 358.981L75.3568 358.701C76.2559 351.393 77.2367 344.131 77.9839 336.799C78.1708 335.077 79.5252 324.091 82.9112 325.871C85.0012 326.977 85.1413 331.48 85.3165 333.505C85.6173 336.764 85.4125 340.05 84.7093 343.246Z" fill="#455A64"/>
<path d="M82.7594 333.447C82.5843 332.831 82.2574 332.202 81.5918 332.633C80.2724 333.459 79.747 338.626 79.5368 340.058C78.6261 345.946 77.2017 351.614 75.8005 357.386L75.4503 358.853L75.1117 359.283C75.1402 359.329 75.1832 359.364 75.2339 359.383C75.2846 359.402 75.3401 359.404 75.3919 359.388C75.3868 359.338 75.3868 359.287 75.3919 359.237C75.532 359.051 75.6955 358.853 75.8239 358.655C78.1342 355.495 79.9382 351.997 81.1715 348.286C81.9423 345.937 82.4666 343.515 82.7361 341.058C83.028 338.789 83.4483 335.658 82.7594 333.447ZM75.8472 358.259L75.6487 358.55C75.7071 358.352 75.7655 358.166 75.8239 357.957C77.217 353.564 78.3208 349.086 79.1282 344.55C79.5252 342.222 79.7704 339.895 80.2958 337.637C80.506 336.671 80.973 333.901 81.7786 333.459C82.5843 333.017 82.5726 334.087 82.6543 334.704C82.7361 335.321 82.6543 335.961 82.6543 336.38C82.7623 344.207 80.3792 351.867 75.8472 358.259Z" fill="white"/>
<path d="M76.3727 375.087H75.2985C75.2985 374.145 75.2985 373.191 75.2284 372.259C75.1 368.442 74.9482 364.613 74.7147 360.796C74.5862 358.62 74.4345 356.467 74.2126 354.326C74.2075 354.252 74.2075 354.178 74.2126 354.104C74.2126 353.93 74.2126 353.755 74.2126 353.581C74.2126 353.406 74.2126 353.197 74.1309 353.01C73.6437 348.167 72.3946 343.431 70.4296 338.975C69.7407 337.497 68.9934 336.043 68.2111 334.599L67.9776 334.192C67.9815 334.157 67.9815 334.122 67.9776 334.087C67.9076 333.936 67.8258 333.796 67.7441 333.657C67.6624 333.517 67.6157 333.447 67.5573 333.343C65.0586 328.967 62.2097 324.777 59.5009 320.541C58.7225 319.331 57.9441 318.12 57.1657 316.91C57.1108 316.842 57.0638 316.768 57.0255 316.689L56.8504 316.421C53.4527 311.079 50.1134 305.679 46.5755 300.431C46.4471 300.245 46.7623 300.07 46.8908 300.268C49.226 303.759 51.748 307.169 54.1883 310.614C54.5269 311.068 54.8421 311.533 55.1691 311.987C55.8229 312.895 56.4651 313.803 57.0956 314.71C58.38 316.538 59.641 318.353 60.8786 320.203C64.5075 325.337 67.8218 330.685 70.8032 336.217C71.0134 336.636 71.2119 337.055 71.422 337.486C71.6322 337.916 71.6789 338.009 71.784 338.277L72.2043 339.196C74.4003 344.585 75.6294 350.317 75.8356 356.129L75.9056 357.351C75.9056 357.526 75.9056 357.724 75.9056 357.91C75.8994 358.011 75.8994 358.112 75.9056 358.213C75.9056 358.341 75.9056 358.469 75.9056 358.608C75.9056 358.69 75.9056 358.794 75.9056 358.899C75.9056 359.237 75.9056 359.586 75.9056 359.947C76.0574 363.764 76.1625 367.581 76.2442 371.387C76.2793 372.644 76.326 373.865 76.3727 375.087Z" fill="#455A64"/>
<path d="M44.182 305.889C41.2396 301.932 37.4449 293.774 41.8468 289.526C42.6423 288.715 43.7079 288.221 44.8431 288.137C45.9783 288.054 47.1051 288.386 48.0117 289.072C50.3469 290.725 51.351 293.855 52.0866 296.451C54.0832 303.375 55.4026 310.416 57.9246 317.213C57.9246 317.213 58.1348 317.794 58.1931 317.946C58.2515 318.097 58.018 318.144 57.9596 318.004L57.7144 317.341C52.9389 314.035 47.6848 310.614 44.182 305.889Z" fill="#455A64"/>
<path d="M57.8545 317.259L57.7845 317.143C56.7595 315.493 55.8354 313.783 55.0173 312.022C53.3972 308.332 52.0052 304.546 50.8489 300.687C50.3702 299.209 48.2569 291.935 45.6414 294.868C44.5556 296.09 44.7074 298.243 44.8825 299.744C45.1761 302.141 45.9462 304.456 47.1477 306.552C49.4828 310.754 53.1258 313.931 56.9438 316.759L57.4692 317.154L57.5743 317.341C57.5976 317.382 57.625 317.421 57.656 317.457C57.6771 317.468 57.7005 317.475 57.7245 317.476C57.7484 317.478 57.7724 317.474 57.7947 317.465C57.817 317.456 57.8371 317.442 57.8535 317.425C57.8699 317.408 57.8822 317.387 57.8896 317.364C57.8865 317.327 57.8745 317.291 57.8545 317.259ZM56.6869 316.456C53.5117 314.123 50.7122 311.321 48.3853 308.147C47.211 306.461 46.2978 304.61 45.6765 302.654C45.4061 301.779 45.2108 300.884 45.0927 299.977C44.9895 299.303 44.9504 298.621 44.9759 297.94C44.9759 296.439 45.6414 294.81 46.5288 294.658C47.6264 294.461 47.9883 295.089 48.7122 296.346C48.952 296.771 49.1664 297.21 49.3544 297.661C49.8053 298.803 50.1951 299.969 50.522 301.152C51.1408 303.073 51.7597 304.993 52.4602 306.89C52.9156 308.17 53.4293 309.45 53.9664 310.695C54.9009 312.859 55.9855 314.955 57.2123 316.968L56.6869 316.456Z" fill="white"/>
<path d="M414.486 316.98C413.996 320.913 413.248 324.789 412.454 328.618C411.999 330.806 411.52 332.993 411.077 335.205C410.586 337.625 409.909 340.092 410.528 342.525C410.539 342.637 410.539 342.75 410.528 342.862C410.493 342.902 410.449 342.932 410.399 342.949C410.35 342.967 410.296 342.971 410.244 342.962C410.193 342.952 410.144 342.929 410.104 342.896C410.063 342.862 410.032 342.818 410.014 342.769C410.021 342.715 410.021 342.66 410.014 342.606V342.548C409.656 341.906 409.37 341.227 409.162 340.523C408.406 338.668 407.755 336.772 407.212 334.844C406.068 330.909 405.424 326.847 405.297 322.752C405.199 319.086 405.592 315.422 406.465 311.859C407.165 309.008 408.169 304.76 410.294 302.549C412.233 300.582 413.797 303.713 414.393 305.342C415.549 309.089 414.941 313.279 414.486 316.98Z" fill="#455A64"/>
<path d="M410.96 308.659C409.524 308.659 408.485 313.314 407.971 315.281C407.172 318.427 406.76 321.659 406.745 324.905C406.764 330.719 407.771 336.487 409.722 341.966C409.792 342.187 409.862 342.42 409.944 342.641C409.951 342.695 409.951 342.75 409.944 342.804C409.961 342.855 409.991 342.901 410.032 342.936C410.073 342.97 410.123 342.993 410.176 343.002C410.229 343.01 410.284 343.004 410.333 342.983C410.383 342.963 410.426 342.929 410.458 342.886C410.364 342.408 410.294 341.931 410.236 341.454C410.178 340.977 410.143 340.581 410.108 340.151C409.913 335.419 410.211 330.681 410.995 326.011C411.766 320.611 412.863 308.67 410.96 308.659ZM409.932 341.152C410.002 341.78 410.108 342.408 410.224 343.037C410.072 342.571 409.932 342.117 409.792 341.664C408.212 336.765 407.301 331.676 407.083 326.534C406.99 323.65 407.201 320.763 407.714 317.922C408.008 316.394 408.398 314.886 408.882 313.407C409.08 312.79 410.119 308.926 411.007 309.113C411.625 309.252 411.777 312.732 411.789 312.802C411.789 313.5 411.789 314.198 411.789 314.908C411.789 316.34 411.672 317.783 411.555 319.214C411.275 322.322 410.831 325.417 410.458 328.525C409.785 332.698 409.608 336.937 409.932 341.152Z" fill="white"/>
<path d="M437.079 327.815C434.452 332.935 430.015 336.857 425.403 340.221C422.951 342.024 420.406 343.712 417.907 345.446C415.591 346.885 413.424 348.55 411.439 350.415L411.193 350.683C410.682 351.247 410.232 351.863 409.851 352.522C409.851 352.58 409.781 352.603 409.734 352.603C409.687 352.603 409.676 352.754 409.64 352.824C409.605 352.894 409.535 352.824 409.547 352.824C409.559 352.824 409.547 352.65 409.547 352.568C409.527 352.539 409.516 352.505 409.516 352.469C409.516 352.434 409.527 352.4 409.547 352.37V352.033C410.294 346.051 414.498 339.999 418.047 335.391C421.597 330.782 425.987 326.709 431.475 324.591C432.852 324.067 435.982 322.613 437.394 323.73C438.807 324.847 437.64 326.732 437.079 327.815Z" fill="#455A64"/>
<path d="M433.016 327.838C431.755 326.593 428.077 329.677 427.178 330.398C424.423 332.633 421.871 335.106 419.553 337.788C415.589 341.929 412.303 346.665 409.816 351.823L409.687 351.986C409.682 352.072 409.682 352.157 409.687 352.242C409.683 352.269 409.683 352.297 409.687 352.324C409.663 352.351 409.65 352.386 409.65 352.423C409.65 352.459 409.663 352.494 409.687 352.522L409.862 352.312C410.318 351.754 410.808 351.207 411.298 350.671L411.544 350.404C415.127 346.82 418.937 343.469 422.951 340.372C425.699 338.158 428.236 335.696 430.529 333.017C431.031 332.33 434.067 328.885 433.016 327.838ZM431.848 330.584C428.742 335.728 423.36 339.476 418.783 343.223C415.633 345.678 412.728 348.43 410.108 351.439C412.53 346.846 415.558 342.595 419.11 338.801C421.056 336.576 423.121 334.459 425.298 332.458C426.474 331.365 427.731 330.361 429.058 329.456C429.85 328.904 430.704 328.447 431.603 328.094C433.354 327.582 432.385 329.7 431.86 330.584H431.848Z" fill="white"/>
<path d="M409.045 364.718C409.018 364.765 408.979 364.804 408.931 364.83C408.884 364.857 408.831 364.87 408.776 364.869L408.846 364.963C408.863 364.98 408.872 365.003 408.872 365.027C408.872 365.05 408.863 365.073 408.846 365.091C408.839 365.1 408.829 365.108 408.818 365.114C408.807 365.119 408.795 365.122 408.782 365.122C408.77 365.122 408.758 365.119 408.747 365.114C408.736 365.108 408.726 365.1 408.718 365.091C403.849 360.156 399.155 354.151 396.727 347.634C395.684 344.876 395.096 341.967 394.987 339.022C394.987 337.009 394.835 332.947 396.563 331.481C400.066 328.525 403.219 341.047 403.686 342.932C404.55 346.424 405.122 349.915 405.916 353.336C406.78 357.119 407.936 360.831 409.068 364.544C409.084 364.603 409.075 364.665 409.045 364.718Z" fill="#455A64"/>
<path d="M409.045 364.718C408.847 364.404 408.671 364.078 408.496 363.752C405.549 358.502 403.434 352.83 402.226 346.936C401.696 343.954 400.915 341.023 399.891 338.172C399.599 337.486 398.723 334.809 397.556 336.159C396.96 336.869 397.462 341.92 397.696 343.223C398.284 346.194 399.232 349.082 400.522 351.823C402.628 356.445 405.307 360.784 408.496 364.741L408.776 365.091C408.793 365.073 408.802 365.05 408.802 365.027C408.802 365.003 408.793 364.98 408.776 364.963C408.748 364.936 408.724 364.904 408.706 364.869C408.772 364.885 408.84 364.879 408.902 364.851C408.963 364.824 409.013 364.777 409.045 364.718ZM402.039 353.953C400.627 351.299 399.503 348.502 398.688 345.609C398.372 344.461 398.126 343.295 397.953 342.118C397.806 341.19 397.727 340.252 397.719 339.313C397.719 336.985 397.918 336.438 398.303 336.357C398.688 336.275 398.875 336.555 399.552 337.928C399.962 338.819 400.286 339.746 400.522 340.698C400.884 342.048 401.187 343.409 401.491 344.771C402.074 347.494 402.658 350.241 403.429 352.917C404.549 356.76 406.175 360.439 408.263 363.857C405.894 360.737 403.793 357.424 401.981 353.953H402.039Z" fill="white"/>
<path d="M424.656 352.72C424.086 355.127 422.998 357.382 421.468 359.33C418.573 363.31 414.883 366.627 411.719 370.386C411.252 370.944 410.796 371.55 410.353 372.108C410.353 372.166 409.932 373.004 409.944 372.934C409.956 372.865 410.002 372.597 410.108 372.062C410.61 369.42 412.268 361.471 414.346 357.398C415.582 354.822 417.131 352.406 418.958 350.206C419.857 349.193 421.959 347.017 423.535 347.494C425.111 347.971 424.901 351.451 424.656 352.72Z" fill="#455A64"/>
<path d="M422.145 351.102C420.452 350.055 416.097 357.817 415.513 358.818C413.319 362.53 411.623 366.513 410.469 370.665C410.329 371.119 410.213 371.584 410.096 372.062C409.979 372.539 409.921 372.911 409.921 372.934C409.921 372.958 410.294 372.178 410.341 372.097L410.563 371.794C410.936 371.317 411.322 370.84 411.73 370.386C413.622 367.558 415.572 364.765 417.405 361.89C418.747 359.84 419.919 357.684 420.908 355.443C421.141 354.931 422.823 351.556 422.145 351.102ZM421.667 353.29C419.262 360.04 414.346 365.37 410.598 371.363L410.423 371.654C410.423 371.48 410.516 371.294 410.575 371.119C411.586 367.717 412.915 364.417 414.544 361.262C415.551 359.347 416.67 357.493 417.895 355.71C418.524 354.704 419.218 353.74 419.974 352.824C420.324 352.44 421.328 351.428 421.667 351.602C422.005 351.777 421.76 352.848 421.608 353.29H421.667Z" fill="white"/>
<path d="M441.644 296.986C436.612 308.496 423.43 313.849 417.709 324.917C417.533 325.254 417.37 325.603 417.207 325.953C417.192 325.987 417.169 326.018 417.139 326.041C417.109 326.065 417.074 326.08 417.036 326.086C416.999 326.092 416.96 326.088 416.925 326.075C416.889 326.062 416.857 326.04 416.833 326.011C416.812 325.984 416.801 325.951 416.801 325.918C416.801 325.884 416.812 325.851 416.833 325.825C416.867 325.737 416.906 325.652 416.95 325.568C418.059 318.49 420.432 311.668 423.955 305.423C426.851 300.128 430.797 295.159 436.273 292.366C437.628 291.679 440.255 290.224 441.773 291.365C443.291 292.505 442.263 295.566 441.644 296.986Z" fill="#455A64"/>
<path d="M437.114 297.486C436.472 297.009 435.503 297.579 434.954 297.859C433.585 298.573 432.307 299.448 431.148 300.466C428.77 302.551 426.72 304.979 425.064 307.669C422.089 312.197 419.681 317.071 417.895 322.182C417.522 323.346 417.183 324.509 416.903 325.673C416.903 325.813 416.845 325.964 416.798 326.104C416.824 326.132 416.856 326.154 416.893 326.167C416.929 326.18 416.968 326.184 417.006 326.178C417.044 326.172 417.081 326.157 417.111 326.134C417.142 326.111 417.167 326.081 417.183 326.046C417.335 325.708 417.498 325.382 417.662 325.045V324.952C418.639 322.656 419.839 320.461 421.246 318.4C423.561 315.279 426.072 312.31 428.766 309.508C429.84 308.356 439.333 299.092 437.114 297.486ZM436.308 300.14C434.791 302.851 432.42 305.051 430.354 307.355C428.287 309.66 426.15 312.01 424.107 314.338C422.472 316.208 420.999 318.213 419.705 320.331C418.624 322.091 417.705 323.945 416.961 325.871C417.487 323.91 418.142 321.985 418.923 320.11V320.052C420.34 316.724 421.971 313.49 423.803 310.369L423.862 310.253C425.395 307.46 427.261 304.861 429.42 302.514C430.612 301.255 431.939 300.131 433.378 299.162C435.036 298.092 436.484 297.405 436.881 297.929C437.278 298.452 436.764 299.348 436.308 300.14Z" fill="white"/>
<path d="M424.095 310.474C422.577 313.721 421.141 317.003 419.705 320.308C419.04 321.856 418.362 323.404 417.709 324.963V325.056C417.475 325.615 417.23 326.22 416.985 326.732C414.813 331.783 412.419 336.95 411.088 342.304C410.433 345.144 410.042 348.039 409.921 350.951C409.921 351.242 409.921 351.544 409.921 351.847C409.921 352.01 409.921 352.173 409.921 352.336C409.915 352.429 409.915 352.522 409.921 352.615C409.839 355.14 409.921 357.666 409.921 360.133C409.979 363.566 410.271 366.976 410.598 370.374C410.587 370.475 410.587 370.576 410.598 370.677C410.598 370.828 410.598 370.979 410.598 371.131C410.598 371.282 410.598 371.294 410.598 371.375V371.806C410.715 372.9 410.808 373.994 410.901 375.099H409.851C409.179 371.756 408.754 368.368 408.578 364.963C408.572 364.893 408.572 364.823 408.578 364.753C408.578 364.427 408.578 364.09 408.578 363.764C408.578 363.438 408.578 362.949 408.52 362.542C408.52 361.564 408.461 360.587 408.438 359.621C408.155 353.939 408.546 348.243 409.605 342.653C409.605 342.502 409.687 342.35 409.722 342.199C409.717 342.133 409.717 342.067 409.722 342.001C409.722 341.896 409.722 341.792 409.792 341.675L409.932 341.163C410.014 340.849 410.108 340.535 410.189 340.232L410.271 339.965C411.892 335.181 413.842 330.515 416.109 325.999C416.494 325.161 416.868 324.347 417.277 323.532C417.498 323.066 417.72 322.613 417.93 322.159L418.958 320.099V320.041C420.569 316.805 422.239 313.605 423.839 310.358C423.909 310.207 424.165 310.323 424.095 310.474Z" fill="#455A64"/>
<path d="M0 374.773L60.0029 374.494L240 374.191L419.997 374.482L480 374.773L419.997 375.064L240 375.355L60.0029 375.053L0 374.773Z" fill="#313131"/>
<path d="M341.908 0H138.069C135.335 0.0258576 132.633 0.588223 130.117 1.65498C127.601 2.72174 125.32 4.272 123.406 6.21723C121.491 8.16247 119.979 10.4646 118.957 12.9921C117.935 15.5197 117.423 18.2231 117.449 20.9481V439.212C117.399 444.714 119.543 450.012 123.409 453.939C127.275 457.867 132.548 460.105 138.069 460.16H341.908C347.432 460.108 352.708 457.872 356.579 453.944C360.45 450.016 362.598 444.718 362.551 439.212V20.9365C362.598 15.432 360.449 10.1344 356.578 6.20833C352.707 2.28227 347.431 0.0491727 341.908 0ZM349.661 426.282C349.661 437.292 341.394 446.195 331.19 446.195H148.822C138.594 446.195 130.327 437.292 130.327 426.282V36.7872C130.327 14.3611 138.594 13.2671 148.822 13.2671H185.345C187.47 13.2671 189.209 15.6762 189.209 18.6555V19.9473C189.209 26.93 193.039 26.93 197.756 26.93H282.232C286.984 26.93 290.779 26.93 290.779 19.9473V18.6555C290.779 15.6762 292.495 13.2671 294.655 13.2671H331.19C341.394 13.2671 349.661 16.2581 349.661 36.7872V426.282Z" fill="#313131"/>
<path d="M251.513 18.2249H228.476C228.288 18.2264 228.102 18.1907 227.929 18.1199C227.755 18.0491 227.598 17.9446 227.465 17.8125C227.332 17.6803 227.228 17.5232 227.157 17.3502C227.086 17.1772 227.05 16.9919 227.051 16.805C227.051 16.4285 227.201 16.0673 227.469 15.8011C227.736 15.5348 228.098 15.3852 228.476 15.3852H251.513C251.89 15.3852 252.253 15.5348 252.52 15.8011C252.787 16.0673 252.937 16.4285 252.937 16.805C252.939 16.9919 252.903 17.1772 252.832 17.3502C252.761 17.5232 252.656 17.6803 252.523 17.8125C252.391 17.9446 252.233 18.0491 252.06 18.1199C251.886 18.1907 251.7 18.2264 251.513 18.2249Z" fill="white"/>
<path d="M349.673 36.7872V426.282C349.673 437.292 341.394 446.195 331.19 446.195H148.822C138.594 446.195 130.327 437.292 130.327 426.282V36.7872C130.327 14.3611 138.594 13.2671 148.822 13.2671H185.345C187.47 13.2671 189.209 15.6762 189.209 18.6555V19.9473C189.209 26.93 193.039 26.93 197.756 26.93H282.232C286.984 26.93 290.791 26.93 290.791 19.9473V18.6555C290.791 15.6762 292.495 13.2671 294.655 13.2671H331.19C341.394 13.2671 349.673 16.2581 349.673 36.7872Z" fill="white"/>
<path d="M349.661 36.7872V45.1083H130.316V36.7872C130.316 14.3611 138.594 13.2671 148.822 13.2671H185.356C187.481 13.2671 189.209 15.6762 189.209 18.6555V19.9473C189.209 26.93 193.051 26.93 197.756 26.93H282.232C286.984 26.93 290.791 26.93 290.791 19.9473V18.6555C290.791 15.6762 292.507 13.2671 294.667 13.2671H331.19C341.394 13.2671 349.661 16.2581 349.661 36.7872Z" fill="#1FCB64"/>
<path d="M179.051 22.0188L178.689 22.3679C178.629 22.4395 178.563 22.5057 178.491 22.5658C177.59 21.6672 176.368 21.1609 175.093 21.1576C174.458 21.154 173.829 21.2779 173.244 21.5218C172.658 21.7658 172.127 22.1248 171.684 22.5774C171.628 22.506 171.565 22.4397 171.497 22.3796L171.147 22.0304C171.287 21.8908 171.439 21.7628 171.59 21.6347C171.906 21.3751 172.251 21.1525 172.618 20.9714C173.049 20.7563 173.509 20.6035 173.984 20.5175C174.217 20.5175 174.439 20.4593 174.673 20.4244H175.735C176.167 20.4727 176.59 20.5744 176.996 20.727C177.287 20.8351 177.568 20.9675 177.837 21.1227C178.128 21.2845 178.402 21.4756 178.654 21.6929L179.028 22.0188H179.051Z" fill="white"/>
<path d="M172.805 23.6714L172.279 23.0895C172.651 22.7172 173.094 22.4218 173.58 22.2202C174.067 22.0187 174.589 21.9149 175.117 21.9149C175.644 21.9149 176.166 22.0187 176.653 22.2202C177.14 22.4218 177.582 22.7172 177.954 23.0895L177.393 23.6481C177.088 23.3416 176.724 23.1 176.323 22.938C175.921 22.7759 175.491 22.6968 175.058 22.7054C174.209 22.7212 173.4 23.068 172.805 23.6714Z" fill="white"/>
<path d="M176.821 24.2533L176.261 24.8002C175.949 24.4951 175.53 24.3238 175.093 24.3231C174.876 24.3217 174.66 24.3643 174.459 24.4484C174.258 24.5324 174.077 24.656 173.926 24.8119L173.365 24.2533C173.592 24.0266 173.861 23.8468 174.158 23.7242C174.454 23.6015 174.772 23.5383 175.093 23.5383C175.414 23.5383 175.732 23.6015 176.029 23.7242C176.325 23.8468 176.595 24.0266 176.821 24.2533Z" fill="white"/>
<path d="M175.595 25.289C175.595 25.4217 175.542 25.549 175.448 25.6429C175.354 25.7367 175.226 25.7894 175.093 25.7894C174.96 25.7894 174.832 25.7367 174.738 25.6429C174.644 25.549 174.591 25.4217 174.591 25.289C174.591 25.1563 174.644 25.029 174.738 24.9352C174.832 24.8413 174.96 24.7886 175.093 24.7886C175.226 24.7886 175.354 24.8413 175.448 24.9352C175.542 25.029 175.595 25.1563 175.595 25.289Z" fill="white"/>
<path d="M146.078 24.5209C146.878 24.5209 147.526 23.8748 147.526 23.0778C147.526 22.2808 146.878 21.6347 146.078 21.6347C145.279 21.6347 144.631 22.2808 144.631 23.0778C144.631 23.8748 145.279 24.5209 146.078 24.5209Z" fill="white"/>
<path d="M149.208 23.0895C149.208 22.8013 149.293 22.5195 149.454 22.2801C149.615 22.0406 149.844 21.8541 150.111 21.7444C150.379 21.6346 150.673 21.6065 150.956 21.6636C151.239 21.7207 151.5 21.8604 151.703 22.065C151.907 22.2696 152.045 22.5299 152.1 22.8129C152.155 23.0958 152.124 23.3887 152.012 23.6543C151.9 23.9199 151.711 24.1463 151.469 24.3047C151.228 24.4631 150.944 24.5465 150.655 24.5442C150.27 24.5411 149.902 24.3865 149.631 24.114C149.36 23.8415 149.208 23.4733 149.208 23.0895Z" fill="white"/>
<path d="M155.244 24.5209C156.044 24.5209 156.692 23.8748 156.692 23.0778C156.692 22.2808 156.044 21.6347 155.244 21.6347C154.444 21.6347 153.796 22.2808 153.796 23.0778C153.796 23.8748 154.444 24.5209 155.244 24.5209Z" fill="white"/>
<path d="M158.361 23.0895C158.361 22.8018 158.447 22.5205 158.607 22.2813C158.768 22.042 158.996 21.8556 159.262 21.7455C159.529 21.6354 159.823 21.6066 160.106 21.6627C160.389 21.7188 160.649 21.8574 160.853 22.0608C161.057 22.2643 161.196 22.5235 161.252 22.8057C161.309 23.0879 161.28 23.3804 161.169 23.6462C161.059 23.912 160.872 24.1392 160.632 24.299C160.392 24.4589 160.11 24.5442 159.821 24.5442C159.434 24.5442 159.063 24.3909 158.789 24.1181C158.515 23.8453 158.361 23.4753 158.361 23.0895Z" fill="white"/>
<path d="M162.938 23.0895C162.938 22.8018 163.024 22.5205 163.184 22.2813C163.345 22.042 163.573 21.8556 163.839 21.7455C164.106 21.6354 164.4 21.6066 164.683 21.6627C164.966 21.7188 165.226 21.8574 165.43 22.0608C165.634 22.2643 165.773 22.5235 165.829 22.8057C165.886 23.0879 165.857 23.3804 165.746 23.6462C165.636 23.912 165.449 24.1392 165.209 24.299C164.969 24.4589 164.687 24.5442 164.398 24.5442C164.011 24.5442 163.64 24.3909 163.366 24.1181C163.092 23.8453 162.938 23.4753 162.938 23.0895Z" fill="white"/>
<path d="M333.198 26.2317H321.382V20.7619H333.198V26.2317ZM321.965 25.6498H332.614V21.3787H321.965V25.6498Z" fill="white"/>
<path d="M329.987 21.7046H322.362V25.3123H329.987V21.7046Z" fill="white"/>
<path d="M334.272 22.0537H333.221V24.9748H334.272V22.0537Z" fill="white"/>
<path d="M163.651 404.589H161.993V412.224H158.875V408.337H153.352V412.224H150.235V404.589H148.565L156.108 396.815L163.651 404.589Z" fill="#EBEBEB"/>
<path d="M331.446 396.815H313.267V399.411H331.446V396.815Z" fill="#EBEBEB"/>
<path d="M331.446 403.228H313.267V405.823H331.446V403.228Z" fill="#EBEBEB"/>
<path d="M331.446 409.629H313.267V412.224H331.446V409.629Z" fill="#EBEBEB"/>
<path d="M163.3 86.2829C162.219 86.958 161.037 87.457 159.798 87.7609C156.806 88.505 153.643 88.0971 150.94 86.6187C148.237 85.1403 146.193 82.7001 145.215 79.7853C144.238 76.8706 144.4 73.6957 145.668 70.8945C146.936 68.0933 149.218 65.8719 152.057 64.6739C154.897 63.4758 158.085 63.3892 160.985 64.4313C163.886 65.4735 166.286 67.5676 167.705 70.2958C169.125 73.024 169.459 76.1854 168.643 79.1489C167.826 82.1124 165.919 84.66 163.3 86.2829Z" fill="#DBDBDB"/>
<path d="M160.603 74.5171C160.603 75.2508 160.385 75.9681 159.976 76.5784C159.568 77.1887 158.987 77.6645 158.307 77.9458C157.627 78.2271 156.878 78.3013 156.156 78.159C155.434 78.0167 154.77 77.6643 154.249 77.1463C153.728 76.6282 153.372 75.9678 153.227 75.2485C153.082 74.5291 153.154 73.783 153.434 73.1044C153.714 72.4258 154.19 71.8452 154.801 71.4359C155.412 71.0266 156.131 70.8069 156.867 70.8046C157.357 70.8031 157.843 70.898 158.296 71.0838C158.749 71.2697 159.161 71.5429 159.508 71.8878C159.855 72.2327 160.131 72.6425 160.319 73.0937C160.507 73.5449 160.603 74.0286 160.603 74.5171Z" fill="white"/>
<path d="M163.3 84.77V86.2946C162.219 86.9697 161.037 87.4686 159.798 87.7726C158.22 88.1589 156.582 88.2271 154.978 87.9733C153.373 87.7195 151.836 87.1487 150.457 86.2946V84.77C150.404 83.897 150.531 83.0224 150.83 82.2001C151.129 81.3777 151.593 80.625 152.195 79.9882C152.796 79.3514 153.522 78.844 154.327 78.4972C155.133 78.1503 156.001 77.9714 156.879 77.9714C157.756 77.9714 158.624 78.1503 159.43 78.4972C160.235 78.844 160.961 79.3514 161.563 79.9882C162.164 80.625 162.629 81.3777 162.928 82.2001C163.226 83.0224 163.353 83.897 163.3 84.77Z" fill="white"/>
<path d="M262.243 64.4154H184.446V70.8046H262.243V64.4154Z" fill="#EBEBEB"/>
<path d="M252.353 75.0757H184.446V79.3119H252.353V75.0757Z" fill="#EBEBEB"/>
<path d="M296.722 83.2338H184.446V87.47H296.722V83.2338Z" fill="#EBEBEB"/>
<path d="M130.327 251.296H349.638V98.2234H130.327V251.296Z" fill="#EBEBEB"/>
<path d="M155.933 141.726C155.933 145.307 156.998 148.808 158.995 151.786C160.991 154.764 163.828 157.085 167.148 158.456C170.468 159.826 174.121 160.185 177.645 159.486C181.169 158.787 184.407 157.063 186.947 154.53C189.488 151.998 191.218 148.771 191.919 145.258C192.62 141.746 192.261 138.105 190.886 134.796C189.511 131.487 187.182 128.659 184.194 126.669C181.207 124.679 177.694 123.617 174.101 123.617C169.283 123.62 164.664 125.529 161.258 128.924C157.851 132.32 155.936 136.924 155.933 141.726Z" fill="#DBDBDB"/>
<path d="M227.705 217.988H349.673L288.689 135.604L227.705 217.988Z" fill="#C7C7C7"/>
<path d="M179.904 218.384H280.586L230.251 164.734L179.904 218.384Z" fill="#DBDBDB"/>
<path d="M349.638 218.314H130.327V251.296H349.638V218.314Z" fill="#DBDBDB"/>
<path d="M163.3 332.016C162.216 332.682 161.034 333.177 159.798 333.482C156.813 334.215 153.66 333.799 150.97 332.316C148.279 330.834 146.248 328.395 145.282 325.486C144.317 322.577 144.487 319.412 145.76 316.623C147.032 313.834 149.314 311.625 152.148 310.439C154.982 309.252 158.161 309.175 161.051 310.222C163.94 311.269 166.326 313.363 167.734 316.087C169.142 318.811 169.468 321.964 168.646 324.917C167.824 327.869 165.915 330.404 163.3 332.016Z" fill="#DBDBDB"/>
<path d="M160.603 320.238C160.603 320.973 160.385 321.69 159.976 322.301C159.566 322.911 158.985 323.387 158.304 323.668C157.623 323.949 156.874 324.023 156.152 323.879C155.429 323.736 154.766 323.383 154.245 322.863C153.724 322.344 153.369 321.683 153.226 320.963C153.082 320.242 153.156 319.496 153.438 318.818C153.719 318.139 154.197 317.559 154.809 317.152C155.422 316.744 156.142 316.526 156.879 316.526C157.866 316.526 158.814 316.917 159.512 317.613C160.211 318.309 160.603 319.254 160.603 320.238Z" fill="white"/>
<path d="M163.3 330.48L163.3 332.016C162.216 332.682 161.034 333.177 159.798 333.482C158.221 333.871 156.581 333.941 154.977 333.687C153.372 333.433 151.835 332.861 150.457 332.004V330.48C150.404 329.607 150.531 328.732 150.83 327.91C151.129 327.087 151.593 326.335 152.195 325.698C152.796 325.061 153.522 324.554 154.327 324.207C155.133 323.86 156.001 323.681 156.879 323.681C157.756 323.681 158.624 323.86 159.43 324.207C160.235 324.554 160.961 325.061 161.563 325.698C162.164 326.335 162.629 327.087 162.928 327.91C163.226 328.732 163.353 329.607 163.3 330.48Z" fill="white"/>
<path d="M284.497 310.137H184.446V316.526H284.497V310.137Z" fill="#EBEBEB"/>
<path d="M312.169 320.797H184.446V325.033H312.169V320.797Z" fill="#EBEBEB"/>
<path d="M227.95 328.955H184.446V333.191H227.95V328.955Z" fill="#EBEBEB"/>
<path d="M349.638 343.945H130.327V381.337H349.638V343.945Z" fill="#EBEBEB"/>
<path d="M191.218 381.337H157.03C158.292 377.825 160.611 374.788 163.671 372.64C166.731 370.493 170.382 369.34 174.124 369.34C177.866 369.34 181.517 370.493 184.577 372.64C187.637 374.788 189.956 377.825 191.218 381.337Z" fill="#DBDBDB"/>
<path d="M145.063 269.23C144.722 267.839 144.803 266.378 145.295 265.033C145.788 263.687 146.67 262.518 147.829 261.672C148.989 260.826 150.374 260.342 151.809 260.282C153.245 260.221 154.666 260.586 155.893 261.33C157.121 262.074 158.099 263.165 158.704 264.464C159.31 265.762 159.515 267.211 159.294 268.626C159.073 270.041 158.437 271.359 157.464 272.413C156.492 273.467 155.227 274.21 153.831 274.548C152.905 274.774 151.943 274.815 151.001 274.67C150.059 274.525 149.155 274.196 148.34 273.702C147.526 273.208 146.817 272.558 146.255 271.791C145.692 271.024 145.287 270.153 145.063 269.23Z" fill="#EBEBEB"/>
<path fill-rule="evenodd" clip-rule="evenodd" d="M151.122 270.393C150.936 270.277 150.76 270.103 150.504 270.126C150.247 270.149 150.433 270.056 150.433 269.998V267.112C150.427 267.078 150.431 267.042 150.446 267.011C150.46 266.98 150.485 266.954 150.515 266.937C151.251 266.565 151.566 265.843 152.021 265.215C152.253 264.904 152.421 264.551 152.513 264.175C152.605 263.799 152.621 263.409 152.558 263.027C152.558 262.817 152.629 262.712 152.827 262.666C152.925 262.634 153.031 262.633 153.13 262.664C153.228 262.696 153.315 262.757 153.376 262.841C153.589 263.236 153.731 263.665 153.796 264.109C153.794 264.473 153.751 264.836 153.668 265.191C153.668 265.459 153.563 265.715 153.516 265.983C153.586 265.983 153.656 265.983 153.726 265.983H156.178C156.517 265.983 156.692 266.087 156.738 266.309C156.765 266.45 156.744 266.597 156.679 266.725C156.613 266.853 156.507 266.957 156.377 267.019C156.377 267.019 156.213 267.018 156.201 267.112C156.19 267.205 156.306 267.205 156.365 267.24C156.657 267.449 156.61 267.856 156.26 268.101C156.178 268.159 156.026 268.101 156.015 268.252C156.003 268.403 156.166 268.345 156.236 268.415C156.289 268.483 156.326 268.563 156.342 268.647C156.358 268.732 156.354 268.819 156.331 268.902C156.307 268.985 156.263 269.061 156.204 269.124C156.146 269.187 156.072 269.235 155.991 269.265L155.851 269.323C155.851 269.323 155.769 269.323 155.851 269.439C155.93 269.479 155.995 269.54 156.041 269.615C156.087 269.69 156.112 269.776 156.112 269.864C156.112 269.952 156.087 270.038 156.041 270.113C155.995 270.188 155.93 270.249 155.851 270.289L155.746 270.37C155.616 270.448 155.464 270.48 155.314 270.463H151.473C151.413 270.477 151.35 270.477 151.29 270.465C151.23 270.453 151.173 270.429 151.122 270.393Z" fill="white"/>
<path fill-rule="evenodd" clip-rule="evenodd" d="M147.479 268.648V266.809C147.479 266.681 147.479 266.623 147.643 266.623H149.896C150.036 266.623 150.06 266.681 150.06 266.809V270.498C150.06 270.661 150.06 270.708 149.861 270.708H147.678C147.503 270.708 147.479 270.638 147.479 270.487C147.491 269.916 147.479 269.311 147.479 268.648Z" fill="white"/>
<path d="M160.311 269.23C159.971 267.839 160.052 266.378 160.544 265.033C161.037 263.687 161.919 262.518 163.078 261.672C164.237 260.826 165.623 260.342 167.058 260.282C168.493 260.221 169.915 260.586 171.142 261.33C172.369 262.074 173.348 263.165 173.953 264.464C174.558 265.762 174.764 267.211 174.543 268.626C174.322 270.041 173.685 271.359 172.713 272.413C171.741 273.467 170.476 274.21 169.08 274.548C168.154 274.774 167.192 274.815 166.25 274.67C165.308 274.525 164.403 274.196 163.589 273.702C162.775 273.208 162.066 272.558 161.503 271.791C160.941 271.024 160.536 270.153 160.311 269.23Z" fill="#1FCB64"/>
<path d="M171.112 268.415C170.229 269.901 168.947 271.11 167.41 271.906C165.869 271.112 164.582 269.903 163.697 268.415C162.787 266.576 163.37 264.598 164.807 264.156C166.873 263.539 167.41 267.123 167.41 267.123C167.41 267.123 167.936 263.539 170.002 264.156C171.404 264.598 171.976 266.576 171.112 268.415Z" fill="white"/>
<path d="M288.689 266.565H185.648V270.743H288.689V266.565Z" fill="#EBEBEB"/>
<path d="M130.327 291.516L157.743 291.307L239.988 291.074L322.222 291.295L349.638 291.516L322.222 291.726L239.988 291.947L157.743 291.726L130.327 291.516Z" fill="#EBEBEB"/>
<path d="M53.406 153.27H296.36V47.5988H53.406V153.27Z" fill="#455A64"/>
<path d="M327.628 153.27H296.36V120.812L327.628 153.27Z" fill="#455A64"/>
<path d="M277.025 65.8702H72.7531V67.8835H277.025V65.8702Z" fill="white"/>
<path d="M214.978 76.705H72.7531V78.7183H214.978V76.705Z" fill="white"/>
<path d="M252.447 98.3979H72.7531V100.411H252.447V98.3979Z" fill="white"/>
<path d="M277.025 109.244H72.7531V111.258H277.025V109.244Z" fill="white"/>
<path d="M277.025 120.079H72.7531V122.093H277.025V120.079Z" fill="white"/>
<path d="M194.218 130.926H72.7531V132.939H194.218V130.926Z" fill="white"/>
<path d="M53.406 403.577H296.36V331.62H53.406V403.577Z" fill="#1FCB64"/>
<path d="M327.628 403.577H296.36V371.131L327.628 403.577Z" fill="#1FCB64"/>
<path d="M252.447 348.716H72.7531V350.729H252.447V348.716Z" fill="white"/>
<path d="M277.025 359.551H72.7531V361.564H277.025V359.551Z" fill="white"/>
<path d="M277.025 370.397H72.7531V372.411H277.025V370.397Z" fill="white"/>
<path d="M194.218 381.244H72.7531V383.257H194.218V381.244Z" fill="white"/>
<path d="M426.594 175.801H183.64V268.997H305.117H426.594V175.801Z" fill="#DBDBDB"/>
<path d="M152.372 268.997H183.64V236.539L152.372 268.997Z" fill="#DBDBDB"/>
<path d="M391.017 224.459H203.372V226.472H391.017V224.459Z" fill="white"/>
<path d="M368.027 235.305H203.372V237.319H368.027V235.305Z" fill="white"/>
<path d="M374.729 202.766H203.372V204.779H374.729V202.766Z" fill="white"/>
<path d="M403.931 191.931H203.372V193.945H403.931V191.931Z" fill="white"/>
<path d="M377.24 246.14H203.372V248.154H377.24V246.14Z" fill="white"/>
<path d="M378.314 85.2122C385.798 82.9429 389.71 77.9153 389.371 70.7813C384.701 69.4779 380.1 65.5909 380.1 59.7487V58.4569C380.044 57.0001 380.294 55.5477 380.834 54.1927C381.373 52.8377 382.191 51.6099 383.234 50.5879C384.277 49.5658 385.522 48.7721 386.891 48.2573C388.259 47.7426 389.72 47.5183 391.181 47.5988C398.326 47.5988 402.857 53.1034 402.857 61.8551V63.4844C402.857 74.5054 399.938 82.1049 394.684 87.1558C390.445 91.5316 384.105 94.1385 379.376 94.1385C375.967 94.1385 374.344 92.1949 374.344 89.5997C374.414 87.3187 376.037 85.8523 378.314 85.2122ZM340.577 85.2122C348.061 82.9429 351.961 77.9153 351.634 70.7813C346.964 69.4779 342.363 65.5909 342.363 59.7487V58.4569C342.308 57.0022 342.557 55.5519 343.095 54.1985C343.633 52.8452 344.449 51.6186 345.489 50.5969C346.53 49.5752 347.772 48.7809 349.138 48.2647C350.503 47.7485 351.962 47.5217 353.421 47.5988C360.59 47.5988 365.097 53.1034 365.097 61.8551V63.4844C365.097 74.5054 362.166 82.1049 357.122 87.1558C352.72 91.5316 346.38 94.1385 341.826 94.1385C338.405 94.1385 336.619 92.1949 336.619 89.5997C336.665 87.3187 338.289 85.8523 340.577 85.2122Z" fill="#455A64"/>
<path d="M185.31 319.854L185.368 320.064C185.847 321.903 189.338 335.565 193.927 353.604C194.265 354.908 194.615 356.234 194.966 357.596C202.613 387.586 212.818 427.516 217.641 446.439H228.044C228.044 446.66 228.044 446.893 228.044 447.114C228.055 446.889 228.055 446.664 228.044 446.439H304.335C296.477 415.948 276.558 336.112 273.031 322.007C272.961 321.728 272.891 321.46 272.845 321.239L272.494 319.854H185.31Z" fill="#AD6359"/>
<path d="M185.31 319.854L185.368 320.064L193.296 354.768L214.313 446.474H228.02C228.02 446.695 228.02 446.928 228.02 447.149C228.032 446.924 228.032 446.699 228.02 446.474H304.778L273.043 322.042L272.856 321.274L272.506 319.889L185.31 319.854Z" fill="#313131"/>
<path d="M272.541 320.029L239.148 446.474H228.055C228.067 446.586 228.067 446.699 228.055 446.811C228.061 446.699 228.061 446.586 228.055 446.474H214.313L194.242 358.923L193.296 354.768L185.345 320.064L185.286 319.854H272.483L272.541 320.029Z" fill="#37474F"/>
<path d="M269.68 319.854C269.68 319.913 269.68 320.064 269.68 320.297C269.68 320.529 269.68 321.076 269.587 321.67C269.517 322.543 269.435 323.718 269.307 325.161C269.299 325.192 269.299 325.224 269.307 325.254C269.252 325.984 269.182 326.787 269.097 327.663C268.956 329.13 268.805 330.759 268.63 332.551C268.571 333.145 268.501 333.773 268.431 334.413C268.424 334.506 268.424 334.6 268.431 334.693C268.431 335.065 268.338 335.437 268.303 335.856C268.268 336.275 268.186 336.88 268.116 337.404C268.046 337.928 267.976 338.684 267.894 339.336C267.742 340.639 267.579 341.99 267.415 343.363L267.24 344.701C266.995 346.621 266.715 348.588 266.434 350.613C266.306 351.486 266.166 352.359 266.049 353.243C265.932 354.128 265.734 355.233 265.582 356.234C265.582 356.595 265.477 356.967 265.419 357.328C264.823 361.017 264.158 364.858 263.41 368.733C263.305 369.327 263.177 369.897 263.048 370.467C262.745 372.027 262.43 373.586 262.091 375.122C261.928 375.925 261.741 376.74 261.566 377.543C261.39 378.346 261.274 378.905 261.099 379.58C260.328 382.978 259.476 386.365 258.542 389.681C258.343 390.403 258.133 391.124 257.934 391.846C257.736 392.568 257.479 393.405 257.245 394.174C256.918 395.337 256.58 396.443 256.218 397.549C255.856 398.654 255.599 399.422 255.284 400.342C255.19 400.644 255.074 400.947 254.969 401.238C254.864 401.529 254.77 401.82 254.653 402.111L254.537 402.169L254.256 402.262L253.953 402.378C253.841 402.413 253.731 402.455 253.626 402.506C253.042 402.727 252.19 403.053 251.104 403.519L250.018 403.973C249.423 404.24 248.757 404.508 248.045 404.845L247.111 405.276L246.912 405.369L246.025 405.788L244.098 406.707C242.767 407.359 241.319 408.081 239.778 408.884C239.008 409.268 238.214 409.687 237.443 410.129L236.182 410.816C234.921 411.502 233.602 412.247 232.224 413.038L231.301 413.585C231.301 413.585 231.301 413.585 231.231 413.585H231.161L230.169 414.156L229.433 414.586C229.433 414.586 229.433 414.761 229.433 415.087C229.421 415.199 229.421 415.312 229.433 415.424C229.427 415.544 229.427 415.665 229.433 415.785C229.433 416.099 229.433 416.495 229.433 416.949C229.433 417.403 229.433 417.507 229.433 417.833C229.433 418.334 229.433 418.869 229.363 419.474C229.363 419.649 229.363 419.835 229.363 420.01C229.357 420.126 229.357 420.242 229.363 420.359C229.363 420.813 229.363 421.301 229.363 421.813C229.363 421.93 229.363 422.046 229.363 422.163C229.363 422.279 229.363 422.57 229.363 422.768V422.942C229.363 423.128 229.363 423.326 229.363 423.524C229.363 423.966 229.363 424.42 229.363 424.897C229.363 425.898 229.281 426.934 229.235 428.04C229.235 428.307 229.235 428.575 229.235 428.831C229.235 429.459 229.235 430.088 229.235 430.74C229.235 431.391 229.235 431.985 229.153 432.625C229.071 433.265 229.153 433.696 229.083 434.231C229.013 434.766 229.083 435.034 229.083 435.395C229.083 436.023 229.083 436.64 229.001 437.28C228.931 438.979 228.861 440.69 228.803 442.389C228.803 443.669 228.709 444.984 228.651 446.334H140.988C141.244 442.975 141.505 439.615 141.77 436.256C142.062 432.509 142.354 428.773 142.611 425.072C142.622 424.851 142.622 424.63 142.611 424.409C143.778 409.943 144.829 395.954 145.833 383.153C146.207 378.28 146.573 373.598 146.931 369.106C146.931 368.349 147.036 367.593 147.106 366.836C147.258 364.811 147.433 362.81 147.573 360.854C147.841 357.538 148.098 354.372 148.32 351.393C148.39 350.555 148.46 349.717 148.53 348.914C148.986 343.025 149.394 337.846 149.698 333.54C149.698 332.737 149.815 331.958 149.861 331.213C150.457 323.904 150.784 319.738 150.784 319.738H203.197L269.68 319.854Z" fill="#AD6359"/>
<path d="M136.959 446.474H228.032C228.032 445.182 228.137 443.855 228.196 442.529C228.196 440.83 228.324 439.119 228.394 437.42C228.499 434.499 228.616 431.601 228.721 428.924C228.721 428.668 228.721 428.4 228.721 428.133C228.791 426.306 228.849 424.583 228.919 423.035V422.861C228.919 422 228.955 421.197 229.025 420.452C229.019 420.335 229.019 420.219 229.025 420.103C229.025 418.939 229.106 417.868 229.153 417.042C229.153 416.611 229.153 416.216 229.153 415.878C229.147 415.758 229.147 415.638 229.153 415.517C229.141 415.405 229.141 415.292 229.153 415.18C229.153 414.854 229.153 414.679 229.153 414.679L229.889 414.249L230.881 413.679L231.944 413.073C233.321 412.282 234.641 411.537 235.902 410.851C237.163 410.164 238.389 409.512 239.545 408.919C241.086 408.116 242.534 407.394 243.865 406.742L245.791 405.823L246.679 405.404L246.877 405.323L247.811 404.904L249.785 404.031L250.87 403.577C251.956 403.111 252.809 402.786 253.392 402.564C253.498 402.514 253.607 402.471 253.719 402.436L254.023 402.32L254.303 402.227L254.42 402.169C254.537 401.878 254.63 401.587 254.735 401.296C254.84 401.005 254.969 400.691 255.062 400.377C255.389 399.469 255.693 398.538 255.984 397.607C256.346 396.443 256.685 395.372 257.012 394.232C257.245 393.475 257.467 392.696 257.701 391.904C257.934 391.113 258.109 390.461 258.308 389.74C259.242 386.423 260.094 383.036 260.865 379.638C261.04 378.963 261.192 378.276 261.332 377.601C261.472 376.926 261.694 375.984 261.857 375.181C262.184 373.633 262.511 372.085 262.803 370.525C263.784 365.673 264.613 360.889 265.337 356.292C265.489 355.292 265.652 354.291 265.804 353.301C265.956 352.312 266.061 351.544 266.189 350.671C266.469 348.646 266.75 346.68 266.995 344.759L267.17 343.421C267.333 342.048 267.497 340.698 267.649 339.394C267.73 338.743 267.801 338.091 267.871 337.462C267.941 336.834 267.999 336.427 268.057 335.915C268.116 335.402 268.139 335.146 268.186 334.751C268.179 334.658 268.179 334.564 268.186 334.471C268.256 333.831 268.314 333.203 268.384 332.609C268.559 330.817 268.711 329.188 268.851 327.721C268.921 326.849 269.003 326.046 269.062 325.312C269.054 325.282 269.054 325.25 269.062 325.219C269.178 323.788 269.272 322.624 269.342 321.728C269.342 321.134 269.412 320.681 269.435 320.355C269.459 320.029 269.435 319.971 269.435 319.912H150.889C150.889 319.912 129.872 351.707 140.299 393.499C140.299 393.475 138.302 426.643 136.959 446.474Z" fill="#313131"/>
<path d="M218.283 419.265C222.288 416.495 226.608 414.167 230.846 411.782C235.084 409.396 239.58 406.998 244.098 404.904C253.007 400.992 262.17 397.683 271.525 395C271.759 394.918 271.922 395.302 271.689 395.407C262.757 399.224 254.093 403.612 245.208 407.534C240.747 409.512 236.24 411.409 231.768 413.353C227.297 415.296 222.93 417.542 218.423 419.416C218.259 419.486 218.178 419.335 218.283 419.265Z" fill="#37474F"/>
<path d="M242.721 375.716C242.837 371.352 243.141 366.988 243.363 362.623C243.876 352.324 244.273 341.978 245.231 331.713C245.245 331.639 245.285 331.572 245.344 331.523C245.402 331.475 245.476 331.449 245.552 331.449C245.628 331.449 245.702 331.475 245.76 331.523C245.819 331.572 245.859 331.639 245.873 331.713C246.001 339.674 245.698 347.669 245.534 355.629C245.453 359.621 245.336 363.601 245.231 367.581C245.011 371.387 244.984 375.201 245.149 379.009C245.359 381.872 246.001 387.459 249.749 387.796C253.252 388.122 255.237 384.305 256.125 381.523C258.366 374.436 259.172 366.778 259.896 359.411C260.328 355.047 260.76 350.695 261.064 346.307C261.462 341.834 261.61 337.343 261.507 332.854C261.507 332.574 261.928 332.586 261.939 332.854C262.184 337.358 262.803 341.827 262.955 346.342C263.107 350.858 263.118 355.338 262.827 359.819C262.535 364.299 262.184 368.442 261.542 372.702C261.101 376.601 260.168 380.429 258.763 384.095C257.456 387.109 255.261 389.914 251.816 390.554C251.4 390.631 250.978 390.674 250.555 390.682C250.555 391.602 250.392 392.533 250.322 393.452C250.228 394.895 250.041 396.327 249.855 397.758C249.646 399.168 249.35 400.563 248.967 401.936C248.661 403.323 248.166 404.663 247.496 405.916C247.47 405.956 247.432 405.987 247.388 406.004C247.343 406.021 247.294 406.023 247.248 406.009C247.202 405.996 247.162 405.969 247.133 405.931C247.104 405.893 247.088 405.847 247.087 405.8C247.06 404.422 247.173 403.046 247.426 401.692C247.624 400.283 247.823 398.864 248.115 397.479C248.407 396.094 248.652 394.755 248.932 393.382C249.119 392.474 249.247 391.532 249.423 390.601C248.323 390.413 247.289 389.955 246.412 389.268C245.535 388.581 244.844 387.687 244.402 386.667C242.767 383.304 242.639 379.335 242.721 375.716Z" fill="#37474F"/>
<path d="M147.911 373.167C154.181 373.609 160.37 374.413 166.651 373.668C172.582 373.067 178.234 370.862 182.998 367.29C193.331 359.295 197.861 346.226 200.664 333.959C200.68 333.91 200.714 333.868 200.759 333.841C200.804 333.814 200.857 333.804 200.909 333.812C200.961 333.82 201.008 333.847 201.042 333.886C201.077 333.926 201.095 333.977 201.096 334.029C199.928 344.666 197.593 355.664 190.751 364.218C187.782 367.985 184.03 371.066 179.752 373.249C175.209 375.354 170.235 376.374 165.227 376.228C159.353 376.182 153.508 375.4 147.83 373.9C147.781 373.895 147.735 373.88 147.692 373.857C147.65 373.834 147.612 373.802 147.582 373.764C147.551 373.727 147.529 373.683 147.515 373.637C147.502 373.59 147.497 373.541 147.503 373.493C147.508 373.445 147.523 373.398 147.546 373.356C147.57 373.314 147.601 373.276 147.639 373.246C147.677 373.216 147.721 373.193 147.768 373.18C147.814 373.166 147.863 373.162 147.911 373.167Z" fill="#37474F"/>
<path d="M228.044 446.474C228.044 446.695 228.044 446.928 228.044 447.149C228.055 446.924 228.055 446.699 228.044 446.474H228.487C228.931 439.631 229.959 418.951 230.029 414.272V413.574C230.029 413.388 229.293 413.655 229.27 413.83C229.246 414.004 229.27 414.237 229.2 414.517C228.721 418.985 227.565 434.976 227.285 440.318C227.191 442.366 227.098 444.414 227.04 446.474H228.044Z" fill="#37474F"/>
<path d="M255.412 205.803H246.562C245.978 201.497 244.694 194.48 242.569 190.733C242.569 190.733 244.542 200.229 243.736 205.803H235.948C235.271 199.798 233.438 188.905 228.686 181.213C228.908 182.027 232.819 196.761 231.885 205.803H163.37C160.335 191.396 162.682 175.708 161.491 179.13C158.303 188.265 157.381 199.379 157.194 205.803H149.558C149.345 202.165 149.553 198.514 150.177 194.922C151.181 190.139 147.246 199.577 146.744 205.803H141.922C141.922 205.803 140.953 185.274 148.495 170.634C158.502 151.164 152.64 143.948 156.75 122.628C161.421 98.3746 193.413 69.024 225.382 99.7014C227.962 102.18 243.888 107.056 242.977 137.722C242.464 155.063 239.171 164.233 245.149 173.148C252.563 184.274 255.739 196.493 255.412 205.803Z" fill="#313131"/>
<path d="M138.757 202.941C137.926 195.557 138.605 188.083 140.754 180.968C141.789 177.377 143.113 173.874 144.712 170.494C145.483 168.818 146.429 167.154 147.246 165.56C148.083 163.978 148.801 162.337 149.394 160.649C151.835 153.875 152.594 146.567 153.516 139.293C153.971 135.639 154.462 131.973 155.209 128.354C155.936 124.725 157.068 121.188 158.583 117.81C156.248 124.793 155.804 132.159 155.174 139.456C154.894 143.122 154.543 146.8 154.006 150.477C153.48 154.182 152.604 157.829 151.391 161.37C150.74 163.144 149.96 164.867 149.056 166.526C148.168 168.19 147.304 169.726 146.487 171.367C144.855 174.613 143.454 177.969 142.295 181.411C141.126 184.858 140.228 188.391 139.61 191.978C139.271 193.772 139.026 195.582 138.874 197.401C138.816 199.275 138.734 201.148 138.757 202.941Z" fill="#313131"/>
<path d="M242.942 137.757C243.094 140.701 242.884 143.646 242.942 146.579C243.001 149.511 243.012 152.397 243.269 155.307C243.518 158.182 244.007 161.031 244.729 163.826C244.892 164.524 245.137 165.199 245.336 165.886L245.488 166.398L245.651 166.828C245.78 167.119 245.943 167.422 246.107 167.725C246.795 168.958 247.589 170.203 248.36 171.46C249.878 173.986 251.372 176.569 252.668 179.258C253.97 181.943 255.059 184.725 255.926 187.579C256.789 190.435 257.383 193.364 257.701 196.33C257.999 199.279 257.999 202.25 257.701 205.198C257.49 199.362 256.368 193.594 254.373 188.102C252.327 182.665 249.713 177.458 246.574 172.566C245.815 171.309 245.032 170.064 244.308 168.714C244.122 168.365 243.947 168.015 243.783 167.643C243.62 167.271 243.631 167.224 243.561 167.038L243.398 166.491C243.199 165.769 242.954 165.048 242.814 164.315C242.136 161.392 241.745 158.41 241.646 155.412C241.554 152.448 241.656 149.482 241.95 146.532C242.195 143.588 242.615 140.632 242.942 137.757Z" fill="#313131"/>
<path d="M212.421 198.251C251.933 216.394 293.336 215.905 309.694 213.775C323.46 211.983 396.995 157.309 398.023 150.151C399.19 142.005 367.665 117.833 349.136 123.617C347.197 124.222 298.018 170.634 293.931 171.332C286.459 172.636 248.804 174.544 232.504 175.987C205.381 178.559 192.537 189.126 212.421 198.251Z" fill="#D3766A"/>
<path d="M209.339 200.322C221.564 207.619 249.458 216.161 249.458 216.161L277.819 171.239C277.819 171.239 231.64 170.681 207.763 179.06C198.247 182.423 196.986 192.932 209.339 200.322Z" fill="#455A64"/>
<path d="M205.568 180.491C205.568 181.306 205.243 182.088 204.665 182.664C204.087 183.24 203.303 183.564 202.485 183.564C202.241 183.566 201.998 183.539 201.761 183.482C202.724 182.057 204.023 180.89 205.544 180.084C205.556 180.2 205.568 180.352 205.568 180.491ZM232.889 183.564C233.499 183.564 234.095 183.383 234.602 183.046C235.109 182.708 235.504 182.228 235.737 181.667C235.97 181.106 236.032 180.488 235.913 179.892C235.794 179.296 235.5 178.748 235.069 178.319C234.638 177.889 234.089 177.596 233.491 177.478C232.893 177.359 232.273 177.42 231.71 177.653C231.146 177.885 230.665 178.279 230.326 178.784C229.988 179.29 229.807 179.884 229.807 180.491C229.81 181.305 230.136 182.085 230.713 182.66C231.29 183.236 232.073 183.561 232.889 183.564ZM263.247 183.564C263.856 183.561 264.451 183.379 264.956 183.04C265.462 182.701 265.855 182.221 266.086 181.659C266.318 181.097 266.377 180.48 266.257 179.885C266.137 179.29 265.842 178.743 265.411 178.315C264.979 177.886 264.43 177.595 263.832 177.477C263.235 177.359 262.616 177.421 262.053 177.654C261.49 177.887 261.01 178.281 260.671 178.786C260.333 179.29 260.153 179.884 260.153 180.491C260.152 180.905 260.236 181.314 260.398 181.695C260.56 182.075 260.798 182.419 261.096 182.706C261.395 182.993 261.749 183.217 262.137 183.364C262.524 183.511 262.937 183.579 263.352 183.564H263.247ZM217.629 199.729C216.811 199.729 216.027 200.052 215.449 200.628C214.871 201.205 214.546 201.986 214.546 202.801C214.541 202.906 214.541 203.011 214.546 203.115C216.076 203.848 217.699 204.593 219.392 205.315C219.928 204.939 220.33 204.403 220.54 203.784C220.75 203.165 220.756 202.496 220.558 201.873C220.36 201.251 219.969 200.707 219.44 200.321C218.911 199.936 218.272 199.728 217.617 199.729H217.629ZM247.986 205.885C248.599 205.887 249.198 205.708 249.709 205.371C250.219 205.033 250.617 204.553 250.853 203.989C251.089 203.426 251.152 202.805 251.034 202.206C250.916 201.607 250.622 201.057 250.19 200.624C249.758 200.192 249.207 199.897 248.606 199.777C248.005 199.657 247.383 199.718 246.817 199.951C246.251 200.184 245.767 200.579 245.426 201.086C245.086 201.594 244.904 202.191 244.904 202.801C244.904 203.214 244.987 203.623 245.148 204.003C245.309 204.383 245.546 204.728 245.843 205.015C246.14 205.303 246.492 205.528 246.879 205.677C247.265 205.827 247.677 205.897 248.091 205.885H247.986Z" fill="white"/>
<path d="M209.327 200.322C221.564 207.631 249.458 216.15 249.458 216.15L255.377 206.769L212.585 177.57C210.927 178.036 209.304 178.536 207.809 179.06C198.258 182.411 196.986 193.002 209.327 200.322Z" fill="#313131"/>
<path d="M243.561 212.03C247.333 205.047 251.186 198.204 255.366 191.489C257.444 188.137 259.573 184.82 261.752 181.539C263.936 178.257 266.423 175.184 268.594 171.879C268.711 171.705 268.991 171.879 268.863 172.077C266.528 175.266 264.683 178.792 262.57 182.109C260.456 185.426 258.32 188.754 256.23 192.106C252.05 198.774 247.858 205.454 243.841 212.228C243.725 212.414 243.503 212.216 243.561 212.03Z" fill="#313131"/>
<path d="M272.506 319.854L260.608 263.644C260.608 263.644 272.576 245.361 263.224 229.51C258.495 221.48 234.034 192.083 219.66 181.504C202.754 169.04 186.536 180.503 180.231 189.045C167.597 206.141 155.057 246.361 150.702 319.912L272.506 319.854Z" fill="#455A64"/>
<path d="M199.391 180.491C199.389 179.881 199.568 179.283 199.907 178.775C200.245 178.266 200.728 177.869 201.293 177.634C201.858 177.398 202.481 177.336 203.081 177.453C203.682 177.571 204.235 177.864 204.669 178.295C205.103 178.726 205.399 179.275 205.519 179.874C205.639 180.472 205.579 181.093 205.345 181.657C205.111 182.221 204.714 182.704 204.205 183.043C203.696 183.382 203.098 183.564 202.485 183.564C201.666 183.564 200.881 183.24 200.301 182.664C199.721 182.089 199.394 181.307 199.391 180.491ZM172.069 228.206C172.679 228.206 173.275 228.026 173.782 227.689C174.289 227.351 174.684 226.871 174.917 226.31C175.15 225.748 175.211 225.131 175.092 224.535C174.973 223.939 174.68 223.391 174.249 222.961C173.818 222.532 173.268 222.239 172.67 222.121C172.073 222.002 171.453 222.063 170.889 222.295C170.326 222.528 169.845 222.922 169.506 223.427C169.167 223.932 168.987 224.526 168.987 225.134C168.999 225.942 169.329 226.713 169.905 227.281C170.481 227.849 171.259 228.168 172.069 228.171V228.206ZM202.485 228.206C203.094 228.204 203.689 228.022 204.194 227.683C204.7 227.344 205.093 226.863 205.325 226.302C205.556 225.74 205.615 225.123 205.495 224.527C205.375 223.932 205.08 223.386 204.649 222.957C204.217 222.529 203.668 222.237 203.07 222.12C202.473 222.002 201.854 222.064 201.291 222.297C200.729 222.529 200.248 222.923 199.91 223.428C199.571 223.933 199.391 224.527 199.391 225.134C199.4 225.945 199.731 226.719 200.31 227.288C200.89 227.857 201.672 228.175 202.485 228.171V228.206ZM232.843 228.206C233.452 228.206 234.048 228.026 234.555 227.689C235.062 227.351 235.457 226.871 235.69 226.31C235.924 225.748 235.985 225.131 235.866 224.535C235.747 223.939 235.453 223.391 235.022 222.961C234.591 222.532 234.042 222.239 233.444 222.121C232.846 222.002 232.226 222.063 231.663 222.295C231.1 222.528 230.618 222.922 230.28 223.427C229.941 223.932 229.76 224.526 229.76 225.134C229.772 225.95 230.109 226.728 230.695 227.297C231.282 227.866 232.071 228.181 232.889 228.171L232.843 228.206ZM260.164 225.099C260.165 225.733 260.363 226.351 260.731 226.868C261.099 227.385 261.619 227.775 262.219 227.985C261.694 227.136 261.017 226.158 260.211 225.064L260.164 225.099ZM187.236 205.92C187.848 205.92 188.446 205.739 188.955 205.4C189.464 205.061 189.861 204.58 190.095 204.016C190.329 203.453 190.39 202.832 190.271 202.234C190.152 201.636 189.857 201.086 189.424 200.655C188.991 200.224 188.44 199.93 187.84 199.811C187.24 199.692 186.618 199.753 186.052 199.987C185.487 200.22 185.004 200.615 184.664 201.122C184.324 201.63 184.142 202.226 184.142 202.836C184.147 203.242 184.232 203.643 184.392 204.016C184.553 204.389 184.785 204.727 185.077 205.011C185.369 205.294 185.714 205.517 186.093 205.667C186.471 205.817 186.876 205.891 187.283 205.885L187.236 205.92ZM217.594 205.92C218.206 205.922 218.806 205.743 219.316 205.406C219.826 205.068 220.225 204.587 220.461 204.024C220.697 203.461 220.76 202.84 220.642 202.241C220.523 201.642 220.23 201.092 219.797 200.659C219.365 200.227 218.814 199.932 218.213 199.812C217.613 199.692 216.99 199.752 216.424 199.985C215.858 200.219 215.374 200.614 215.034 201.121C214.693 201.629 214.511 202.225 214.511 202.836C214.516 203.245 214.602 203.649 214.765 204.024C214.927 204.4 215.163 204.739 215.459 205.023C215.754 205.307 216.104 205.529 216.486 205.677C216.869 205.825 217.277 205.896 217.687 205.885L217.594 205.92ZM171.976 272.826C172.588 272.828 173.188 272.649 173.698 272.312C174.208 271.974 174.607 271.493 174.843 270.93C175.079 270.367 175.142 269.746 175.023 269.147C174.905 268.548 174.612 267.998 174.179 267.565C173.747 267.133 173.196 266.838 172.595 266.718C171.995 266.598 171.372 266.658 170.806 266.891C170.24 267.124 169.756 267.52 169.415 268.027C169.075 268.535 168.893 269.131 168.893 269.742C168.898 270.151 168.984 270.555 169.146 270.93C169.309 271.306 169.545 271.645 169.841 271.929C170.136 272.213 170.485 272.435 170.868 272.583C171.251 272.731 171.659 272.802 172.069 272.791L171.976 272.826ZM202.392 272.826C203.004 272.826 203.602 272.645 204.111 272.306C204.62 271.967 205.016 271.486 205.25 270.922C205.484 270.358 205.546 269.738 205.426 269.14C205.307 268.542 205.012 267.992 204.58 267.561C204.147 267.13 203.595 266.836 202.995 266.717C202.395 266.598 201.773 266.659 201.208 266.893C200.642 267.126 200.159 267.521 199.819 268.028C199.479 268.536 199.298 269.132 199.298 269.742C199.302 270.152 199.388 270.557 199.552 270.933C199.715 271.309 199.952 271.649 200.249 271.933C200.546 272.217 200.896 272.439 201.28 272.587C201.664 272.734 202.074 272.803 202.485 272.791L202.392 272.826ZM232.749 272.826C233.362 272.828 233.961 272.649 234.471 272.312C234.982 271.974 235.38 271.493 235.616 270.93C235.852 270.367 235.915 269.746 235.797 269.147C235.679 268.548 235.385 267.998 234.953 267.565C234.521 267.133 233.969 266.838 233.369 266.718C232.768 266.598 232.146 266.658 231.58 266.891C231.013 267.124 230.53 267.52 230.189 268.027C229.849 268.535 229.667 269.131 229.667 269.742C229.671 270.155 229.759 270.563 229.924 270.941C230.09 271.32 230.33 271.662 230.63 271.946C230.931 272.231 231.286 272.452 231.674 272.597C232.062 272.742 232.475 272.808 232.889 272.791L232.749 272.826ZM261.239 267.344C260.791 267.702 260.452 268.176 260.26 268.715C260.068 269.253 260.031 269.835 260.152 270.393C260.273 270.952 260.549 271.466 260.947 271.877C261.345 272.288 261.85 272.58 262.406 272.721L261.239 267.344ZM159.552 245.919C159.296 247.199 159.039 248.491 158.793 249.818C159.156 249.531 159.45 249.167 159.652 248.752C159.854 248.337 159.96 247.882 159.961 247.42C159.961 246.893 159.82 246.375 159.552 245.919ZM187.283 250.493C187.895 250.493 188.494 250.312 189.003 249.972C189.512 249.633 189.909 249.15 190.143 248.586C190.376 248.022 190.437 247.401 190.317 246.803C190.196 246.204 189.901 245.655 189.467 245.224C189.033 244.793 188.48 244.5 187.879 244.383C187.278 244.265 186.656 244.328 186.091 244.563C185.526 244.798 185.043 245.195 184.705 245.704C184.366 246.213 184.186 246.81 184.189 247.42C184.189 247.825 184.269 248.225 184.425 248.599C184.58 248.972 184.808 249.312 185.096 249.597C185.383 249.882 185.724 250.109 186.1 250.262C186.475 250.416 186.877 250.494 187.283 250.493ZM217.641 250.493C218.253 250.495 218.853 250.316 219.364 249.978C219.875 249.64 220.273 249.158 220.509 248.594C220.744 248.03 220.806 247.409 220.687 246.81C220.568 246.211 220.273 245.66 219.84 245.228C219.407 244.796 218.854 244.502 218.253 244.383C217.652 244.265 217.029 244.327 216.463 244.562C215.897 244.797 215.414 245.194 215.075 245.703C214.736 246.212 214.556 246.809 214.558 247.42C214.558 247.828 214.639 248.231 214.797 248.607C214.955 248.983 215.186 249.324 215.477 249.61C215.769 249.895 216.114 250.121 216.493 250.272C216.873 250.424 217.278 250.499 217.687 250.493H217.641ZM247.998 250.493C248.611 250.495 249.211 250.316 249.721 249.978C250.232 249.64 250.63 249.158 250.866 248.594C251.102 248.03 251.164 247.409 251.045 246.81C250.926 246.211 250.631 245.66 250.198 245.228C249.764 244.796 249.212 244.502 248.61 244.383C248.009 244.265 247.386 244.327 246.82 244.562C246.254 244.797 245.771 245.194 245.432 245.703C245.093 246.212 244.913 246.809 244.916 247.42C244.917 247.831 245.001 248.238 245.162 248.616C245.323 248.994 245.559 249.337 245.855 249.623C246.151 249.909 246.501 250.134 246.885 250.283C247.269 250.432 247.679 250.504 248.091 250.493H247.998ZM171.976 317.399C172.588 317.401 173.188 317.222 173.698 316.885C174.208 316.547 174.607 316.066 174.843 315.503C175.079 314.94 175.142 314.319 175.023 313.72C174.905 313.121 174.612 312.571 174.179 312.138C173.747 311.706 173.196 311.411 172.595 311.291C171.995 311.171 171.372 311.231 170.806 311.464C170.24 311.697 169.756 312.093 169.415 312.6C169.075 313.108 168.893 313.704 168.893 314.315C168.893 314.727 168.976 315.134 169.136 315.514C169.297 315.894 169.532 316.237 169.828 316.525C170.124 316.812 170.475 317.038 170.86 317.188C171.245 317.338 171.656 317.41 172.069 317.399H171.976ZM202.392 317.399C203.004 317.399 203.602 317.218 204.111 316.879C204.62 316.54 205.016 316.058 205.25 315.495C205.484 314.931 205.546 314.311 205.426 313.713C205.307 313.115 205.012 312.565 204.58 312.134C204.147 311.703 203.595 311.409 202.995 311.29C202.395 311.171 201.773 311.232 201.208 311.465C200.642 311.699 200.159 312.094 199.819 312.601C199.479 313.108 199.298 313.705 199.298 314.315C199.297 314.728 199.38 315.136 199.542 315.517C199.703 315.897 199.939 316.241 200.237 316.529C200.534 316.817 200.886 317.042 201.272 317.191C201.659 317.341 202.071 317.411 202.485 317.399H202.392ZM232.749 317.399C233.362 317.401 233.961 317.222 234.471 316.885C234.982 316.547 235.38 316.066 235.616 315.503C235.852 314.94 235.915 314.319 235.797 313.72C235.679 313.121 235.385 312.571 234.953 312.138C234.521 311.706 233.969 311.411 233.369 311.291C232.768 311.171 232.146 311.231 231.58 311.464C231.013 311.697 230.53 312.093 230.189 312.6C229.849 313.108 229.667 313.704 229.667 314.315C229.666 314.731 229.75 315.142 229.914 315.525C230.077 315.908 230.317 316.254 230.618 316.542C230.919 316.83 231.275 317.055 231.666 317.202C232.056 317.349 232.472 317.416 232.889 317.399H232.749ZM263.107 317.399C263.719 317.399 264.317 317.218 264.826 316.879C265.335 316.54 265.731 316.058 265.965 315.495C266.2 314.931 266.261 314.311 266.141 313.713C266.022 313.115 265.727 312.565 265.295 312.134C264.862 311.703 264.311 311.409 263.71 311.29C263.11 311.171 262.488 311.232 261.923 311.465C261.357 311.699 260.874 312.094 260.534 312.601C260.194 313.108 260.013 313.705 260.013 314.315C260.011 314.741 260.099 315.163 260.269 315.554C260.44 315.945 260.69 316.297 261.004 316.587C261.318 316.876 261.688 317.098 262.092 317.238C262.497 317.378 262.926 317.433 263.352 317.399H263.107ZM156.867 295.101C157.477 295.101 158.073 294.92 158.579 294.583C159.086 294.245 159.481 293.765 159.715 293.204C159.948 292.643 160.009 292.025 159.89 291.429C159.771 290.833 159.478 290.285 159.047 289.856C158.615 289.426 158.066 289.133 157.468 289.015C156.87 288.896 156.251 288.957 155.687 289.19C155.124 289.422 154.643 289.816 154.304 290.321C153.965 290.827 153.785 291.421 153.785 292.028C153.785 292.843 154.109 293.625 154.687 294.201C155.265 294.777 156.049 295.101 156.867 295.101ZM187.225 295.101C187.834 295.098 188.428 294.916 188.934 294.577C189.439 294.238 189.832 293.758 190.064 293.196C190.296 292.634 190.355 292.017 190.235 291.422C190.114 290.827 189.82 290.28 189.388 289.852C188.957 289.423 188.408 289.132 187.81 289.014C187.212 288.896 186.593 288.958 186.031 289.191C185.468 289.424 184.987 289.818 184.649 290.323C184.311 290.828 184.13 291.421 184.13 292.028C184.13 292.438 184.212 292.843 184.372 293.22C184.531 293.598 184.764 293.94 185.058 294.226C185.352 294.512 185.7 294.737 186.082 294.887C186.464 295.037 186.872 295.11 187.283 295.101H187.225ZM217.582 295.101C218.192 295.101 218.788 294.92 219.295 294.583C219.802 294.245 220.197 293.765 220.43 293.204C220.663 292.643 220.724 292.025 220.605 291.429C220.486 290.833 220.193 290.285 219.762 289.856C219.331 289.426 218.781 289.133 218.183 289.015C217.586 288.896 216.966 288.957 216.403 289.19C215.839 289.422 215.358 289.816 215.019 290.321C214.68 290.827 214.5 291.421 214.5 292.028C214.499 292.441 214.582 292.849 214.744 293.229C214.905 293.608 215.142 293.952 215.439 294.239C215.737 294.525 216.089 294.749 216.475 294.898C216.861 295.046 217.274 295.115 217.687 295.101H217.582ZM247.94 295.101C248.549 295.101 249.145 294.92 249.652 294.583C250.159 294.245 250.554 293.765 250.788 293.204C251.021 292.643 251.082 292.025 250.963 291.429C250.844 290.833 250.55 290.285 250.119 289.856C249.688 289.426 249.139 289.133 248.541 289.015C247.943 288.896 247.323 288.957 246.76 289.19C246.197 289.422 245.715 289.816 245.377 290.321C245.038 290.827 244.857 291.421 244.857 292.028C244.858 292.444 244.944 292.856 245.109 293.238C245.274 293.62 245.514 293.965 245.817 294.252C246.119 294.539 246.476 294.762 246.867 294.908C247.258 295.054 247.674 295.119 248.091 295.101H247.94Z" fill="white"/>
<path d="M222.066 263.9C227.731 262.933 233.46 262.388 239.206 262.27C242.055 262.27 244.892 262.363 247.741 262.526C249.166 262.608 250.578 262.654 252.003 262.678C253.489 262.754 254.979 262.648 256.44 262.363C256.464 262.361 256.489 262.367 256.51 262.38C256.53 262.394 256.545 262.414 256.552 262.438C256.559 262.462 256.557 262.487 256.548 262.509C256.538 262.532 256.52 262.55 256.498 262.561C255.155 262.981 253.786 263.315 252.4 263.562C251.049 263.746 249.688 263.843 248.325 263.853C245.429 263.853 242.487 263.853 239.626 263.853C233.788 263.853 227.95 263.935 222.112 264.4C221.856 264.388 221.797 263.993 222.066 263.9Z" fill="#313131"/>
<path d="M209.642 272.384C214.072 270.705 218.594 269.279 223.187 268.112C225.522 267.542 227.857 267.1 230.192 266.716C231.36 266.53 232.434 266.378 233.555 266.227C234.676 266.076 236.042 266.064 237.28 265.89C237.408 265.89 237.455 266.064 237.28 266.087C236.112 266.285 234.944 266.681 233.858 266.96L230.356 267.763C228.02 268.31 225.767 268.927 223.467 269.404C218.855 270.463 214.266 271.546 209.689 272.756C209.537 272.826 209.467 272.465 209.642 272.384Z" fill="#313131"/>
<path d="M191.556 185.589C192.315 187.835 205.568 200.578 215.749 197.308C222.906 194.98 216.835 181.015 216.835 181.015L219.474 159.788L191.708 145.822C191.708 145.822 191.241 184.634 191.556 185.589Z" fill="#D3766A"/>
<path d="M191.556 159.38C194.163 164.337 197.764 168.706 202.137 172.215C206.51 175.725 211.561 178.301 216.975 179.781L219.485 159.741L191.708 145.776C191.708 145.776 191.638 151.885 191.556 159.38Z" fill="#313131"/>
<path d="M242.685 124.094C251.956 157.844 232.691 167.247 225.382 169.226C218.738 171.03 195.9 176.325 183.173 143.623C170.446 110.92 183.29 95.9772 198.247 91.0661C213.204 86.1549 233.415 90.298 242.685 124.094Z" fill="#D3766A"/>
<path d="M233.263 120.382C232.45 120.428 231.635 120.428 230.823 120.382C229.962 120.482 229.093 120.298 228.347 119.858C228.139 119.678 227.997 119.433 227.944 119.163C227.891 118.893 227.931 118.614 228.055 118.368C228.375 117.916 228.809 117.557 229.314 117.328C229.819 117.099 230.376 117.008 230.928 117.065C232.065 117.016 233.18 117.389 234.057 118.112C234.238 118.289 234.365 118.513 234.423 118.758C234.481 119.004 234.468 119.261 234.384 119.499C234.301 119.737 234.151 119.947 233.953 120.103C233.754 120.259 233.515 120.356 233.263 120.382Z" fill="#313131"/>
<path d="M209.549 125.654C210.343 125.398 211.044 125.037 211.802 124.711C212.64 124.486 213.379 123.991 213.904 123.303C214.042 123.061 214.089 122.777 214.035 122.504C213.982 122.231 213.832 121.986 213.612 121.813C213.147 121.511 212.61 121.339 212.055 121.315C211.501 121.29 210.95 121.414 210.46 121.674C209.391 122.056 208.499 122.813 207.949 123.803C207.84 124.037 207.8 124.298 207.835 124.553C207.87 124.809 207.979 125.049 208.148 125.245C208.317 125.44 208.539 125.583 208.788 125.656C209.036 125.728 209.301 125.728 209.549 125.654Z" fill="#313131"/>
<path d="M216.111 132.276C216.111 132.194 215.959 132.427 215.982 132.52C216.566 134.848 216.847 137.606 214.885 138.851C214.827 138.851 214.885 139.002 214.885 138.967C217.454 138.048 217.045 134.382 216.111 132.276Z" fill="#313131"/>
<path d="M213.484 130.286C209.642 130.821 210.997 138.432 214.558 137.943C218.119 137.455 216.706 129.832 213.484 130.286Z" fill="#313131"/>
<path d="M212.059 130.949C211.464 131.496 210.95 132.38 210.156 132.602C209.362 132.823 208.393 132.183 207.658 131.519C207.576 131.449 207.517 131.519 207.541 131.636C207.774 133.09 208.603 134.498 210.215 134.429C211.826 134.359 212.48 132.904 212.55 131.38C212.596 131.089 212.293 130.728 212.059 130.949Z" fill="#313131"/>
<path d="M229.678 129.494C229.678 129.401 229.889 129.576 229.9 129.669C230.227 131.996 230.998 134.708 233.275 135.139C233.345 135.139 233.356 135.267 233.275 135.267C230.659 135.348 229.608 131.799 229.678 129.494Z" fill="#313131"/>
<path d="M231.383 126.666C235.143 125.735 236.731 133.311 233.251 134.173C229.772 135.034 228.219 127.446 231.383 126.666Z" fill="#313131"/>
<path d="M233.064 126.829C233.753 127.108 234.501 127.714 235.225 127.609C235.948 127.504 236.509 126.55 236.871 125.654C236.871 125.561 236.988 125.654 237.011 125.712C237.361 127.143 237.198 128.749 235.843 129.32C234.489 129.89 233.426 128.796 232.784 127.423C232.667 127.178 232.796 126.724 233.064 126.829Z" fill="#313131"/>
<path d="M220.805 151.49C221.447 151.979 222.112 152.654 222.988 152.654C223.872 152.514 224.718 152.197 225.475 151.722C225.49 151.713 225.508 151.709 225.525 151.71C225.543 151.712 225.56 151.719 225.573 151.731C225.586 151.743 225.595 151.759 225.599 151.776C225.602 151.793 225.6 151.811 225.592 151.827C225.311 152.339 224.897 152.765 224.394 153.062C223.89 153.359 223.316 153.515 222.731 153.515C222.229 153.45 221.757 153.239 221.375 152.907C220.992 152.576 220.717 152.14 220.583 151.653C220.524 151.501 220.711 151.42 220.805 151.49Z" fill="#313131"/>
<path d="M229.06 141.12C229.06 141.12 230.227 144.542 230.531 146.206C230.531 146.357 230.169 146.509 229.608 146.648C228.224 147.188 226.717 147.336 225.254 147.075C223.791 146.814 222.429 146.155 221.318 145.17C221.291 145.141 221.274 145.103 221.271 145.063C221.268 145.023 221.28 144.983 221.303 144.95C221.326 144.917 221.36 144.893 221.399 144.882C221.438 144.872 221.48 144.875 221.517 144.891C223.912 145.936 226.583 146.181 229.13 145.589C229.13 145.112 226.958 139.77 227.215 139.77C228.53 139.635 229.859 139.682 231.161 139.91C228.966 132.706 225.627 125.945 223.537 118.706C223.524 118.653 223.53 118.597 223.554 118.548C223.578 118.498 223.618 118.459 223.669 118.437C223.719 118.415 223.775 118.411 223.828 118.426C223.881 118.441 223.927 118.474 223.957 118.52C227.962 125.386 230.671 133.649 233.135 141.004C233.438 141.877 229.784 141.272 229.06 141.12Z" fill="#313131"/>
<path d="M229.211 145.904C228.562 147.447 227.525 148.798 226.199 149.826C225.462 150.37 224.571 150.668 223.654 150.675C221.657 150.675 221.155 148.976 221.108 147.428C221.088 146.599 221.166 145.771 221.342 144.961C223.798 146.101 226.554 146.431 229.211 145.904Z" fill="#313131"/>
<path d="M226.199 149.826C225.462 150.37 224.571 150.668 223.654 150.675C221.657 150.675 221.155 148.976 221.108 147.428C223.163 147.102 225.51 147.929 226.199 149.826Z" fill="#FF9BBC"/>
<path d="M184.539 145.101C186.585 143.702 188.231 141.797 189.316 139.573C190.401 137.35 190.887 134.883 190.727 132.415C196.341 128.898 200.908 123.947 203.956 118.078C203.839 118.822 202.94 124.164 202.403 126.876C223.584 119.544 227.81 101.913 227.81 101.913C235.983 107.883 238.038 112.165 239.393 114.249C239.393 114.249 237.548 100.9 229.316 93.0096C219.263 83.3502 190.4 84.6653 179.402 100.888C167.609 118.38 184.539 145.101 184.539 145.101Z" fill="#313131"/>
<path d="M218.423 120.847C215.229 123.295 211.687 125.256 207.914 126.666C213.793 124.077 218.831 119.906 222.463 114.621C223.993 112.365 225.24 109.93 226.176 107.371C227.293 104.601 227.853 101.639 227.822 98.6539C227.832 98.6167 227.854 98.5838 227.884 98.5603C227.915 98.5368 227.953 98.5241 227.991 98.5241C228.03 98.5241 228.067 98.5368 228.098 98.5603C228.129 98.5838 228.151 98.6167 228.161 98.6539C228.51 101.598 228.36 104.581 227.717 107.475C226.96 110.318 225.69 113 223.969 115.389C222.418 117.497 220.574 119.374 218.493 120.964" fill="#313131"/>
<path d="M188.999 142.389C188.999 142.389 179.483 133.009 175.081 136.57C170.68 140.131 179.203 154.702 185.345 155.796C186.123 155.989 186.932 156.024 187.724 155.898C188.516 155.771 189.274 155.486 189.953 155.06C190.632 154.634 191.216 154.075 191.673 153.417C192.129 152.76 192.447 152.017 192.607 151.234L188.999 142.389Z" fill="#D3766A"/>
<path d="M177.627 140.69C177.533 140.69 177.545 140.829 177.627 140.853C181.959 141.749 184.761 145.089 186.968 148.685C185.496 147.405 183.71 146.893 181.97 148.685C181.889 148.778 181.97 148.929 182.122 148.883C182.791 148.53 183.553 148.392 184.303 148.488C185.054 148.584 185.756 148.909 186.314 149.418C187.237 150.276 188.066 151.227 188.789 152.258C189.046 152.584 189.665 152.258 189.443 151.885C189.447 151.858 189.447 151.831 189.443 151.804C188.556 146.648 183.243 140.201 177.627 140.69Z" fill="#313131"/>
<path d="M413.549 244.629C431.193 198.912 408.313 147.594 362.445 130.008C316.578 112.422 265.092 135.227 247.448 180.945C229.805 226.662 252.685 277.98 298.552 295.566C344.42 313.152 395.905 290.347 413.549 244.629Z" fill="#1FCB64"/>
<path d="M409.092 253.053L369.767 292.249L425.111 308.228L409.092 253.053Z" fill="#1FCB64"/>
<path d="M330.582 154.969C340.492 155.036 350.223 157.616 358.856 162.466C367.489 167.316 374.742 174.277 379.93 182.693C385.118 191.109 388.072 200.704 388.512 210.572C388.953 220.44 386.865 230.257 382.447 239.099C381.957 239.6 377.146 248.829 367.385 251.633C366.306 251.904 365.193 252.018 364.081 251.971C362.264 252.04 360.458 251.67 358.816 250.894C357.173 250.118 355.743 248.959 354.647 247.514C352.988 245.2 352.065 242.443 351.996 239.6V233.99C349.364 237.078 346.092 239.56 342.406 241.268C338.719 242.976 334.706 243.868 330.641 243.883C314.294 243.883 301.019 229.696 301.019 212.705C301.019 195.714 314.259 181.864 330.641 181.864C347.022 181.864 359.936 195.83 359.936 212.705V239.099H360.111C360.121 240.375 360.463 241.626 361.103 242.73C361.462 243.157 361.923 243.487 362.443 243.691C362.963 243.894 363.526 243.964 364.081 243.894H365.4C370.362 242.73 374.344 236.911 374.998 235.317C378.701 228.363 380.581 220.589 380.462 212.716C380.446 202.879 377.503 193.267 372.007 185.096C366.51 176.925 358.705 170.563 349.581 166.813C340.456 163.063 330.42 162.094 320.743 164.029C311.066 165.965 302.182 170.716 295.214 177.684C288.247 184.652 283.509 193.522 281.599 203.174C279.689 212.826 280.694 222.825 284.486 231.908C288.278 240.99 294.687 248.748 302.902 254.2C311.118 259.653 320.771 262.554 330.641 262.538C334.823 262.68 339.005 262.237 343.064 261.223C345.212 260.722 347.524 261.712 347.734 264.028C347.917 264.525 347.986 265.057 347.938 265.585C347.891 266.112 347.726 266.623 347.457 267.08C347.189 267.537 346.822 267.929 346.383 268.228C345.945 268.527 345.445 268.726 344.92 268.811C340.272 270.009 335.489 270.615 330.687 270.615C323.07 270.615 315.527 269.119 308.489 266.214C301.452 263.308 295.057 259.049 289.671 253.68C284.284 248.312 280.012 241.938 277.097 234.923C274.181 227.909 272.681 220.39 272.681 212.798C272.681 205.205 274.181 197.687 277.097 190.672C280.012 183.658 284.284 177.284 289.671 171.915C295.057 166.546 301.452 162.288 308.489 159.382C315.527 156.477 323.07 154.981 330.687 154.981L330.582 154.969ZM330.582 235.271C342.013 235.271 351.774 225.378 351.774 212.67C351.774 199.961 342.013 189.906 330.582 189.906C319.152 189.906 309.566 200.136 309.566 212.67C309.566 225.204 319 235.305 330.582 235.305V235.271Z" fill="white"/>
<path d="M175.245 224.762C180.569 267.065 188.953 325.033 211.219 329.502C247.823 336.822 280.784 343.607 304.241 342.164C312.636 341.652 305.759 283.079 296.769 282.811C285.093 282.415 234.325 275.828 231.208 271.325C229.445 268.764 216.566 243.754 198.714 210.482C180.09 175.731 173.54 211.169 175.245 224.762Z" fill="#D3766A"/>
<path d="M301.217 342.152C324.09 342.152 352.592 343.479 374.776 330.398C377.285 329.012 379.252 326.822 380.357 324.184C390.422 318.504 390.749 312.057 390.749 312.057C398.502 303.91 397.929 297.265 397.929 297.265C397.929 297.265 409.676 290.469 406.721 282.718C403.452 274.001 387.596 285.255 375.08 286.139C346.415 288.141 305.094 283.009 296.769 282.765L301.217 342.152Z" fill="#D3766A"/>
<path d="M346.52 309.287C354.95 308.531 363.24 308.007 371.518 306.11C380.602 304.038 389.032 300.524 397.626 297.149C397.653 297.136 397.682 297.128 397.712 297.127C397.741 297.125 397.771 297.129 397.799 297.139C397.828 297.148 397.854 297.164 397.876 297.183C397.898 297.203 397.916 297.227 397.929 297.254C397.943 297.28 397.95 297.309 397.952 297.339C397.954 297.369 397.95 297.399 397.94 297.427C397.93 297.455 397.915 297.481 397.895 297.503C397.875 297.525 397.851 297.543 397.824 297.556C383.171 306.122 363.485 310.451 346.555 309.671C346.146 309.648 346.1 309.38 346.52 309.287Z" fill="#313131"/>
<path d="M345.224 326.709C353.397 325.545 367.7 323.334 390.632 311.813C390.702 311.813 390.795 311.894 390.714 311.941C376.831 321.402 361.921 326.069 345.282 327.07C344.769 327.128 344.675 326.837 345.224 326.709Z" fill="#313131"/>
<path d="M344.699 336.147C358.5 333.599 366.883 330.247 380.287 324.219C380.357 324.219 380.439 324.3 380.357 324.346C365.832 332.796 359.609 334.227 344.722 336.636C344.208 336.659 344.161 336.147 344.699 336.147Z" fill="#313131"/>
<path d="M340.414 286.372C336.584 285.208 337.191 283.149 343.916 280.635C350.642 278.121 379.271 273.873 376.936 264.028C374.601 254.182 334.26 260.792 323.425 265.82C312.59 270.847 296.827 282.765 296.827 282.765C304.883 283.055 324.487 285.616 340.414 286.372Z" fill="#D3766A"/>
<path d="M174.953 270.836L217.816 237.517C217.816 237.517 206.653 212.693 198.527 199.81C187.773 182.784 178.911 182.761 175.046 207.13C172.408 223.435 174.953 270.836 174.953 270.836Z" fill="#455A64"/>
<path d="M175.163 225.099C175.161 225.593 175.04 226.079 174.811 226.516C174.581 226.954 174.25 227.33 173.844 227.613C173.844 225.914 173.844 224.261 173.926 222.643C174.309 222.929 174.62 223.299 174.835 223.726C175.05 224.152 175.162 224.622 175.163 225.099ZM202.485 228.171C203.094 228.169 203.689 227.987 204.194 227.648C204.7 227.309 205.093 226.828 205.325 226.267C205.556 225.705 205.615 225.088 205.495 224.493C205.375 223.897 205.08 223.351 204.649 222.922C204.217 222.494 203.668 222.202 203.07 222.085C202.473 221.967 201.854 222.029 201.291 222.262C200.729 222.495 200.248 222.888 199.91 223.393C199.571 223.898 199.391 224.492 199.391 225.099C199.391 225.503 199.471 225.904 199.627 226.277C199.782 226.651 200.01 226.99 200.298 227.276C200.585 227.561 200.927 227.787 201.302 227.941C201.677 228.095 202.079 228.173 202.485 228.171ZM187.306 205.885C187.918 205.885 188.516 205.704 189.025 205.365C189.534 205.026 189.931 204.545 190.165 203.981C190.399 203.418 190.46 202.798 190.341 202.199C190.222 201.601 189.927 201.052 189.494 200.62C189.061 200.189 188.51 199.895 187.91 199.776C187.31 199.657 186.688 199.718 186.122 199.952C185.557 200.185 185.074 200.58 184.734 201.088C184.394 201.595 184.212 202.191 184.212 202.801C184.212 203.615 184.535 204.396 185.11 204.973C185.685 205.551 186.466 205.879 187.283 205.885H187.306ZM174.848 268.322C174.918 269.765 174.965 270.65 174.976 270.812C175.135 270.412 175.205 269.983 175.183 269.553C175.161 269.124 175.046 268.704 174.848 268.322ZM187.306 250.493C187.919 250.493 188.517 250.312 189.026 249.972C189.536 249.633 189.932 249.15 190.166 248.586C190.4 248.022 190.46 247.401 190.34 246.803C190.22 246.204 189.924 245.655 189.49 245.224C189.056 244.793 188.504 244.5 187.903 244.383C187.302 244.265 186.679 244.328 186.114 244.563C185.549 244.798 185.066 245.195 184.728 245.704C184.389 246.213 184.21 246.81 184.212 247.42C184.212 248.233 184.535 249.013 185.111 249.589C185.686 250.165 186.467 250.49 187.283 250.493H187.306Z" fill="white"/>
<path d="M212.561 241.602C212.958 241.159 217.232 237.586 217.617 237.424C216.239 234.537 214.815 231.605 213.46 228.765C212.783 227.31 212.129 225.844 211.499 224.378C210.868 222.911 209.923 220.886 209.316 219.513C209.21 219.28 209.491 219.14 209.607 219.35C210.588 221.142 211.265 222.504 212.118 224.005C212.713 225.099 213.285 226.228 213.834 227.345L213.624 226.391C213.227 224.68 212.982 222.958 212.456 221.259C212.386 221.049 212.725 220.968 212.783 221.177C213.204 222.888 213.834 224.517 214.289 226.216C214.694 227.486 214.999 228.786 215.2 230.103C216.368 232.524 217.676 234.991 218.703 237.424C216.779 238.981 214.755 240.412 212.643 241.706C212.585 241.799 212.503 241.671 212.561 241.602Z" fill="#313131"/>
<path d="M176.121 263.399C182.017 258.127 187.983 252.925 194.172 248.026C197.285 245.574 200.399 243.165 203.513 240.798C206.677 238.471 210.086 236.399 213.204 234.002C213.379 233.862 213.577 234.153 213.402 234.27C210.168 236.504 207.19 239.192 204.061 241.601C200.932 244.011 197.815 246.443 194.72 248.887C188.532 253.775 182.321 258.651 176.249 263.678C176.156 263.818 175.969 263.55 176.121 263.399Z" fill="#313131"/>
<path d="M174.358 271.487C173.19 264.505 172.805 234.875 173.774 227.729C173.78 227.714 173.79 227.701 173.804 227.692C173.817 227.683 173.833 227.678 173.85 227.678C173.866 227.678 173.882 227.683 173.896 227.692C173.909 227.701 173.92 227.714 173.926 227.729C174.498 234.875 174.801 263.341 174.918 270.324C175.023 270.231 179.939 266.646 181.363 265.727C181.573 265.599 181.748 265.843 181.562 265.994C179.294 267.994 176.887 269.829 174.358 271.487Z" fill="#313131"/>
<path d="M346.333 118.659C356.223 119.02 371.005 114.691 377.858 117.274C379.578 117.847 381.067 118.956 382.103 120.438C383.14 121.921 383.67 123.696 383.615 125.502C383.615 125.502 390.2 120.743 396.061 124.118C399.074 125.852 398.945 132.171 398.945 132.171C398.945 132.171 404.386 128.586 409.454 131.903C413.447 134.545 412.711 140.492 412.711 140.492C412.711 140.492 419.553 139.468 422.764 143.471C429.268 151.618 410.236 188.021 393.82 186.659C386.172 186.031 391.309 177.349 391.309 177.349C391.309 177.349 380.906 188.009 373.27 184.332C365.634 180.654 372.99 169.773 372.99 169.773C372.99 169.773 362.82 180.014 355.289 175.359C347.454 170.518 356.667 160.94 356.667 160.94C356.667 160.94 346.917 166.177 341.978 161.3C333.805 153.247 354.074 144.251 356.351 135.255L345.399 123.955L346.333 118.659Z" fill="#D3766A"/>
<path d="M361.664 117.356C352.323 116.192 347.723 101.528 338.954 99.1427C327.091 95.9191 331.295 113.294 345.376 123.978L357.776 130.367L361.664 117.356Z" fill="#D3766A"/>
<path d="M412.711 141.458C412.711 141.43 412.722 141.403 412.742 141.384C412.762 141.364 412.789 141.353 412.816 141.353C412.844 141.353 412.871 141.364 412.891 141.384C412.91 141.403 412.921 141.43 412.921 141.458C409.594 154.969 401.771 168.795 391.064 177.838C390.714 178.14 390.072 177.698 390.398 177.291C399.646 165.921 406.967 155.051 412.711 141.458Z" fill="#313131"/>
<path d="M399.12 132.043C399.179 131.903 399.436 132.043 399.389 132.171C395.886 146.066 386.651 161.394 373.071 170.378C372.604 170.68 371.904 170.494 372.382 170.099C380.964 163.442 393.995 144.309 399.12 132.043Z" fill="#313131"/>
<path d="M355.452 161.277C368.132 152.165 376.621 139.922 383.475 126.096C383.568 125.921 383.813 126.096 383.778 126.236C382.26 133.917 376.936 142.273 372.254 148.417C368.01 154.216 362.313 158.803 355.732 161.719C355.511 161.836 355.172 161.475 355.452 161.277Z" fill="#313131"/>
</svg>
