<svg width="658" height="389" viewBox="0 0 658 389" fill="none" xmlns="http://www.w3.org/2000/svg">
<path d="M76.65 206.84C77.1518 194.07 76.9782 181.282 76.13 168.53C74.241 142.232 70.2279 116.131 64.13 90.48C60.78 76.03 56.66 61.83 52.36 47.65C52.24 47.22 51.55 47.34 51.67 47.79C64.95 97.79 75.84 149.39 75.09 201.37C74.88 215.92 73.2 230.21 71.82 244.66C71.82 245.05 72.42 245.2 72.51 244.8C75.25 232.43 76.14 219.47 76.65 206.84Z" fill="#EBEBEB"/>
<path d="M51.67 47.79C51.67 47.79 31.55 98.85 36.06 110.85C40.57 122.85 49.85 125.41 49.85 125.41C49.85 125.41 37.54 142.94 46.14 159.47C54.74 176 73.85 175.17 75.14 193.86C75.12 193.86 76.19 115.72 51.67 47.79Z" fill="#EBEBEB"/>
<path d="M72.93 161.59C72.964 161.503 72.964 161.407 72.93 161.32C70.11 126.6 63.93 91.99 53.42 58.61C53.42 58.51 53.23 58.54 53.26 58.61C57.26 73.55 60.78 88.5667 63.82 103.66C61.118 101.102 57.8172 99.2621 54.22 98.31C54.2067 98.31 54.194 98.3153 54.1846 98.3246C54.1753 98.334 54.17 98.3467 54.17 98.36C54.17 98.3733 54.1753 98.386 54.1846 98.3954C54.194 98.4047 54.2067 98.41 54.22 98.41C57.94 100.02 61.5 101.88 64.13 105.04C64.72 108.04 65.3 110.96 65.84 113.92C61.35 108.92 55.11 106.4 48.84 104.03C48.76 104.03 48.71 104.14 48.84 104.17C55.33 106.82 61.84 110.22 66.21 115.82C67.7433 124.3 69.0767 132.803 70.21 141.33C66.9576 137.929 62.7896 135.543 58.21 134.46C58.07 134.46 57.99 134.63 58.14 134.67C62.8631 136.032 67.0881 138.739 70.3 142.46C70.3222 142.485 70.3494 142.506 70.38 142.52C70.78 145.52 71.16 148.52 71.51 151.52C68.9982 149.393 66.1624 147.681 63.11 146.45C63.097 146.455 63.0859 146.464 63.078 146.476C63.0702 146.487 63.066 146.501 63.066 146.515C63.066 146.529 63.0702 146.543 63.078 146.554C63.0859 146.566 63.097 146.575 63.11 146.58C66.2216 147.928 69.0718 149.814 71.53 152.15C71.53 152.15 71.6 152.15 71.64 152.2C71.97 155.06 72.31 157.92 72.64 160.78C68.1095 155.305 62.2293 151.107 55.58 148.6C55.5551 148.596 55.5294 148.6 55.5073 148.612C55.4852 148.624 55.468 148.644 55.4586 148.667C55.4492 148.691 55.4482 148.717 55.4558 148.741C55.4633 148.765 55.4789 148.786 55.5 148.8C62.0659 151.698 67.8359 156.136 72.32 161.74C72.3656 161.806 72.4311 161.855 72.5068 161.88C72.5824 161.905 72.6643 161.905 72.74 161.88C73.18 166.273 73.5633 170.673 73.89 175.08C73.89 175.14 73.99 175.15 73.99 175.08C73.65 170.593 73.2967 166.097 72.93 161.59Z" fill="white"/>
<path d="M56.77 93.26C53.28 90.87 48.85 89.84 44.68 89.5C44.58 89.5 44.58 89.64 44.68 89.65C49.01 90.29 52.68 91.86 56.63 93.55C56.77 93.63 56.92 93.37 56.77 93.26Z" fill="white"/>
<path d="M59.21 147.33C56.4115 145.727 53.3334 144.671 50.14 144.22C50.03 144.22 50.02 144.38 50.14 144.39C53.2716 145.017 56.3006 146.078 59.14 147.54C59.1636 147.538 59.1861 147.53 59.2048 147.515C59.2234 147.5 59.2374 147.481 59.2449 147.458C59.2523 147.436 59.253 147.412 59.2468 147.389C59.2406 147.366 59.2278 147.346 59.21 147.33Z" fill="white"/>
<path d="M129.54 111.68C121.032 117.565 113.219 124.395 106.25 132.04C99.0674 140.127 93.5217 149.531 89.92 159.73C82.2845 180.989 78.1803 203.355 77.77 225.94C77.5121 238.454 78.7169 250.955 81.36 263.19C81.3772 263.281 81.4301 263.362 81.507 263.415C81.5839 263.467 81.6785 263.487 81.77 263.47C81.8615 263.453 81.9424 263.4 81.9949 263.323C82.0474 263.246 82.0672 263.151 82.05 263.06C78.7675 241.471 78.8923 219.5 82.42 197.95C85.88 176.83 91.3 153.85 104.73 136.68C112.04 127.33 121.16 119.98 130.17 112.38C130.63 112 130.03 111.34 129.54 111.68Z" fill="#EBEBEB"/>
<path d="M80.77 210.75C85.6225 202.917 91.3236 195.643 97.77 189.06C107.84 179 116.31 171.85 117.62 165.19C118.93 158.53 107.54 153.64 107.54 153.64C107.54 153.64 121.47 156.14 125.28 150.29C129.09 144.44 130.93 110.6 130.93 110.6C130.93 110.6 105.59 128.68 93.79 154.04C81.99 179.4 80.77 210.75 80.77 210.75Z" fill="#EBEBEB"/>
<path d="M122.08 119.27C111.42 129.74 100.69 140.9 94.41 154.66C92.266 159.411 90.3996 164.283 88.82 169.25C88.5 170.25 88.17 171.25 87.82 172.25C87.793 172.3 87.776 172.354 87.77 172.41C84.7933 182.695 82.3929 193.138 80.58 203.69C80.58 203.75 80.66 203.79 80.68 203.69C81.77 198.41 82.97 193.07 84.32 187.76C84.3696 187.769 84.4204 187.769 84.47 187.76C86.5842 186.851 88.8284 186.281 91.12 186.07C91.27 186.07 91.26 185.79 91.12 185.8C88.8827 185.902 86.6694 186.306 84.54 187C85.77 182.2 87.1 177.42 88.6 172.71C93.5138 171.507 98.5427 170.837 103.6 170.71V170.62C98.6569 170.421 93.7089 170.865 88.88 171.94C89.14 171.13 89.41 170.33 89.68 169.52C92.9726 168.738 96.3132 168.173 99.68 167.83C99.74 167.83 99.74 167.72 99.68 167.72C96.3849 167.785 93.1048 168.184 89.89 168.91C91.26 164.83 92.75 160.81 94.41 156.91C95.7763 153.702 97.3738 150.597 99.19 147.62C101.858 146.96 104.568 146.479 107.3 146.18C107.38 146.18 107.37 146.05 107.3 146.04C104.749 145.848 102.184 146.102 99.72 146.79C101.05 144.64 102.45 142.53 103.95 140.49C109.63 139.23 115.39 138.06 121.21 139.15C121.31 139.15 121.34 139 121.21 138.98C115.68 137.52 110.21 138.36 104.68 139.45C105.28 138.65 105.9 137.86 106.52 137.08C109.959 136.021 113.532 135.459 117.13 135.41C117.146 135.41 117.161 135.404 117.172 135.392C117.184 135.381 117.19 135.366 117.19 135.35C117.19 135.334 117.184 135.319 117.172 135.308C117.161 135.296 117.146 135.29 117.13 135.29C113.807 134.986 110.457 135.284 107.24 136.17C111.93 130.34 117.12 124.86 122.24 119.43C122.52 119.17 122.33 119.03 122.08 119.27Z" fill="white"/>
<path d="M121.77 142.35C120.114 142.113 118.438 142.053 116.77 142.17C116.57 142.17 116.58 142.53 116.77 142.53C118.44 142.53 120.1 142.46 121.77 142.53C121.787 142.522 121.801 142.509 121.811 142.493C121.821 142.477 121.826 142.459 121.826 142.44C121.826 142.421 121.821 142.403 121.811 142.387C121.801 142.371 121.787 142.358 121.77 142.35Z" fill="white"/>
<path d="M103.56 175.19C100.885 175.251 98.241 175.782 95.75 176.76C95.69 176.76 95.75 176.88 95.75 176.87C98.33 176.25 100.94 176 103.54 175.57C103.565 175.571 103.59 175.568 103.613 175.559C103.637 175.551 103.659 175.538 103.677 175.521C103.696 175.505 103.711 175.484 103.722 175.462C103.732 175.439 103.739 175.415 103.74 175.39C103.741 175.365 103.738 175.34 103.729 175.317C103.721 175.293 103.708 175.271 103.691 175.253C103.675 175.234 103.655 175.219 103.632 175.208C103.609 175.198 103.585 175.191 103.56 175.19Z" fill="white"/>
<path d="M98.1 163.84C96.9864 163.835 95.8747 163.936 94.78 164.14C94.67 164.14 94.68 164.34 94.78 164.34C95.8889 164.4 97.0011 164.35 98.1 164.19C98.3 164.15 98.29 163.85 98.1 163.84Z" fill="white"/>
<path d="M6.45 147.61C14.694 150.404 22.5945 154.125 30 158.7C37.6835 163.583 44.3438 169.914 49.61 177.34C60.7135 192.779 69.2127 209.933 74.77 228.12C77.8689 238.197 79.7818 248.6 80.47 259.12C80.4573 259.189 80.4208 259.251 80.3669 259.296C80.313 259.341 80.2451 259.365 80.175 259.365C80.1049 259.365 80.037 259.341 79.9831 259.296C79.9292 259.251 79.8928 259.189 79.88 259.12C77.5476 240.889 72.3714 223.137 64.54 206.51C56.86 190.22 47.15 172.88 32.32 162.09C24.24 156.21 15.16 152.37 6.11 148.3C5.64 148.11 5.98 147.44 6.45 147.61Z" fill="#EBEBEB"/>
<path d="M68.86 216.5C63.128 211.281 56.8403 206.707 50.11 202.86C39.64 197.05 31.11 193.22 28.53 188.14C25.95 183.06 34.01 176.46 34.01 176.46C34.01 176.46 23.32 181.7 18.89 177.85C14.46 174 5.14 147.03 5.14 147.03C5.14 147.03 29.82 155.81 45.24 173.61C60.66 191.41 68.86 216.5 68.86 216.5Z" fill="#EBEBEB"/>
<path d="M67.57 210.94C55.22 187.76 38.77 166.8 16.18 152.94C22.0746 156.752 27.6018 161.104 32.69 165.94C28.0973 165.689 23.5198 166.655 19.42 168.74C19.4072 168.751 19.3983 168.766 19.3945 168.783C19.3908 168.799 19.3923 168.816 19.399 168.832C19.4057 168.847 19.4171 168.86 19.4317 168.869C19.4462 168.878 19.4631 168.882 19.48 168.88C23.8437 167.243 28.4808 166.459 33.14 166.57C33.1956 166.569 33.2489 166.547 33.29 166.51C34.1 167.27 34.89 168.04 35.67 168.82C33.2843 168.932 30.9124 169.246 28.58 169.76C28.5667 169.76 28.554 169.765 28.5446 169.775C28.5353 169.784 28.53 169.797 28.53 169.81C28.53 169.823 28.5353 169.836 28.5446 169.845C28.554 169.855 28.5667 169.86 28.58 169.86C31.049 169.399 33.5587 169.191 36.07 169.24C40.2134 173.415 44.1195 177.818 47.77 182.43C46.0967 182.192 44.3919 182.315 42.77 182.79C42.75 182.797 42.7326 182.809 42.7202 182.826C42.7079 182.843 42.7012 182.864 42.7012 182.885C42.7012 182.906 42.7079 182.927 42.7202 182.944C42.7326 182.961 42.75 182.973 42.77 182.98C44.5264 182.777 46.2989 182.753 48.06 182.91C48.74 183.77 49.42 184.62 50.06 185.49C45.0144 185.187 39.9524 185.679 35.06 186.95C34.99 186.95 35.01 187.08 35.06 187.07C40.1259 186.078 45.2983 185.742 50.45 186.07C51.08 186.9 51.68 187.76 52.29 188.61C49.2845 188.523 46.2816 188.859 43.37 189.61C43.3564 189.605 43.3419 189.604 43.3277 189.606C43.3135 189.608 43.3 189.613 43.2883 189.622C43.2766 189.63 43.267 189.641 43.2604 189.654C43.2539 189.666 43.2504 189.681 43.2504 189.695C43.2504 189.709 43.2539 189.724 43.2604 189.736C43.267 189.749 43.2766 189.76 43.2883 189.768C43.3 189.777 43.3135 189.782 43.3277 189.784C43.3419 189.786 43.3564 189.785 43.37 189.78C46.3999 189.124 49.5054 188.885 52.6 189.07C55.26 192.72 57.8 196.46 60.25 200.25C58.943 200.014 57.5984 200.096 56.33 200.49C56.3167 200.49 56.304 200.495 56.2946 200.505C56.2853 200.514 56.28 200.527 56.28 200.54C56.28 200.553 56.2853 200.566 56.2946 200.575C56.304 200.585 56.3167 200.59 56.33 200.59C57.7462 200.481 59.1703 200.549 60.57 200.79C62.77 204.217 64.89 207.67 66.93 211.15C67.26 211.46 67.77 211.24 67.57 210.94Z" fill="white"/>
<path d="M48.37 191.71C45.9427 191.551 43.507 191.849 41.19 192.59C41.13 192.59 41.19 192.71 41.19 192.7C43.5516 192.302 45.9367 192.058 48.33 191.97C48.5 191.94 48.53 191.73 48.37 191.71Z" fill="white"/>
<path d="M26.83 163.47C25.726 163.386 24.6158 163.454 23.53 163.67C23.51 163.677 23.4926 163.689 23.4802 163.706C23.4679 163.723 23.4612 163.744 23.4612 163.765C23.4612 163.786 23.4679 163.807 23.4802 163.824C23.4926 163.841 23.51 163.853 23.53 163.86C24.62 163.75 25.69 163.79 26.78 163.75C26.8171 163.757 26.8554 163.748 26.8863 163.727C26.9173 163.705 26.9384 163.672 26.945 163.635C26.9516 163.598 26.9432 163.56 26.9217 163.529C26.9001 163.498 26.8671 163.477 26.83 163.47Z" fill="white"/>
<path d="M100.7 293.13H44.97L52.92 234.93L54.95 220.01H90.72L92.75 234.93L100.7 293.13Z" fill="#DBDBDB"/>
<path d="M92.75 234.93H52.92L54.95 220.01H90.72L92.75 234.93Z" fill="#C7C7C7"/>
<path d="M95.83 214.83H49.83V227.47H95.83V214.83Z" fill="#DBDBDB"/>
<path d="M524.68 27.59C522.034 34.324 520.478 41.4364 520.07 48.66H501.42V48.15L501.57 46.72C501.794 44.2379 502.195 41.775 502.77 39.35C503.736 35.3818 505.127 31.5295 506.92 27.86C506.953 27.7706 507.016 27.6951 507.098 27.6461C507.179 27.597 507.275 27.5772 507.37 27.59H524.68Z" fill="#EBEBEB"/>
<path d="M524.12 74.64H506.98C506.89 74.6493 506.799 74.6276 506.723 74.5786C506.646 74.5295 506.589 74.456 506.56 74.37C504.581 70.2411 503.152 65.8705 502.31 61.37C501.885 59.2043 501.605 57.0128 501.47 54.81C501.47 54.74 501.47 54.66 501.42 54.59V54.07H519.77C520.1 54.07 520.09 54.07 520.11 54.41C520.23 55.9 520.33 57.41 520.47 58.9C520.708 61.2747 521.092 63.6326 521.62 65.96C522.239 68.8085 523.051 71.6116 524.05 74.35C524.06 74.45 524.08 74.54 524.12 74.64Z" fill="#EBEBEB"/>
<path d="M596.2 80.08C596.2 80.18 596.1 80.26 596.06 80.33C594.603 82.551 592.979 84.6572 591.2 86.63C589.056 89.0529 586.67 91.2509 584.08 93.19C581.539 95.1065 578.824 96.7805 575.97 98.19C573.221 99.5623 570.353 100.68 567.4 101.53C565.057 102.197 562.672 102.705 560.26 103.05L559.56 103.17H559.15L558.77 102.94L559.23 102.62C564.467 99.0614 569.048 94.6225 572.77 89.5C574.875 86.6124 576.725 83.5476 578.3 80.34C578.327 80.253 578.384 80.1783 578.461 80.129C578.538 80.0797 578.63 80.0588 578.72 80.07H596.25L596.2 80.08Z" fill="#EBEBEB"/>
<path d="M579.06 48.64H554.98V27.64H573.77C573.852 27.63 573.934 27.6498 574.002 27.6957C574.07 27.7417 574.119 27.8107 574.14 27.89C575.873 31.844 577.158 35.9798 577.97 40.22C578.404 42.4242 578.715 44.651 578.9 46.89C578.96 47.43 579.01 48.02 579.06 48.64Z" fill="#EBEBEB"/>
<path d="M578.91 54.26C578.91 54.75 578.91 55.26 578.84 55.74C578.74 56.91 578.65 58.09 578.49 59.25C578.26 60.86 578.02 62.48 577.69 64.08C576.976 67.5908 575.932 71.0262 574.57 74.34C574.548 74.4371 574.491 74.5228 574.41 74.5801C574.329 74.6374 574.229 74.6623 574.13 74.65H554.84V54.26H578.91Z" fill="#EBEBEB"/>
<path d="M549.55 48.8H526.04C526.04 48.26 526.09 47.74 526.15 47.22C526.27 46.04 526.36 44.86 526.55 43.69C526.84 41.91 527.14 40.12 527.55 38.35C528.324 34.7765 529.453 31.2892 530.92 27.94C530.947 27.8575 531.001 27.7867 531.074 27.7394C531.147 27.6921 531.234 27.6711 531.32 27.68H549.55V48.8Z" fill="#EBEBEB"/>
<path d="M549.58 54.54C549.58 61.14 549.58 67.7433 549.58 74.35V74.64H530.77C530.678 74.6528 530.584 74.6314 530.507 74.5798C530.429 74.5282 530.374 74.45 530.35 74.36C528.922 70.9424 527.85 67.387 527.15 63.75C526.8 61.88 526.53 59.99 526.3 58.1C526.14 56.87 526.1 55.62 526.02 54.37C526.016 54.3268 526.016 54.2832 526.02 54.24H549.25C549.52 54.23 549.58 54.3 549.58 54.54Z" fill="#EBEBEB"/>
<path d="M604.59 48.79H584.86C584.461 41.524 582.908 34.3679 580.26 27.59H598.65C598.741 27.5777 598.833 27.5967 598.911 27.644C598.989 27.6914 599.049 27.764 599.08 27.85C601.186 32.0207 602.717 36.4578 603.63 41.04C604.123 43.4791 604.457 45.9476 604.63 48.43L604.59 48.79Z" fill="#EBEBEB"/>
<path d="M604.6 54.1C604.6 54.58 604.6 55.03 604.54 55.48C604.413 57.2599 604.196 59.0321 603.89 60.79C603.159 64.8712 601.94 68.8497 600.26 72.64C600 73.25 599.7 73.85 599.43 74.46C599.412 74.5207 599.373 74.573 599.32 74.6077C599.266 74.6424 599.203 74.6574 599.14 74.65H580.77C580.99 74.02 581.21 73.41 581.42 72.79C582.484 69.6555 583.299 66.4423 583.86 63.18C584.283 60.8153 584.567 58.4279 584.71 56.03C584.71 55.46 584.78 54.89 584.8 54.33C584.8 54.18 584.8 54.1 585.01 54.12C585.07 54.125 585.13 54.125 585.19 54.12L604.6 54.1Z" fill="#EBEBEB"/>
<path d="M595.66 22.22V22.31H595.4C589.65 22.31 583.9 22.31 578.15 22.31C578.062 22.3206 577.973 22.3018 577.897 22.2566C577.821 22.2114 577.763 22.1422 577.73 22.06C575.438 17.4772 572.561 13.2115 569.17 9.37C567.169 7.15406 564.97 5.12562 562.6 3.31C561.42 2.41 560.2 1.56 559 0.689999L558.8 0.539997L559.04 0.369999C559.04 0.269999 558.97 0.15 558.92 0C565.005 0.682933 570.916 2.45803 576.37 5.24C584.163 9.13194 590.811 14.9834 595.66 22.22Z" fill="#EBEBEB"/>
<path d="M546.21 102.94C546.048 102.991 545.88 103.018 545.71 103.02C543.816 102.773 541.939 102.409 540.09 101.93C536.636 101.047 533.284 99.8037 530.09 98.22C526.433 96.3992 523.006 94.1501 519.88 91.52C517.658 89.6598 515.607 87.6049 513.75 85.38C512.362 83.6965 511.083 81.9263 509.92 80.08C509.886 80.0273 509.859 79.9701 509.84 79.91H510.12C515.48 79.91 520.83 79.91 526.19 79.91C526.276 79.903 526.362 79.9247 526.434 79.9717C526.507 80.0188 526.562 80.0885 526.59 80.17C528.265 83.5488 530.243 86.7686 532.5 89.79C534.587 92.5366 536.902 95.1023 539.42 97.46C541.492 99.4206 543.719 101.21 546.08 102.81L546.21 102.94Z" fill="#EBEBEB"/>
<path d="M546 0.509998C545.26 1.05 544.4 1.66 543.56 2.3C540.756 4.48371 538.149 6.90972 535.77 9.55C532.55 13.0599 529.803 16.9766 527.6 21.2C527.46 21.47 527.34 21.75 527.18 22C527.152 22.0429 527.115 22.0794 527.072 22.107C527.029 22.1346 526.981 22.1526 526.93 22.16C526.64 22.16 526.35 22.16 526.06 22.16H510.36C519.11 9.81 530.86 2.38 545.82 0.16C545.82 0.23 545.75 0.299997 545.71 0.359997L546 0.509998Z" fill="#EBEBEB"/>
<path d="M571.87 80.09C569.64 83.9815 566.954 87.5937 563.87 90.85C561.161 93.7691 558.113 96.3541 554.79 98.55V80.09H571.87Z" fill="#EBEBEB"/>
<path d="M549.55 80.1V98.2C542.752 93.5401 537.153 87.3379 533.21 80.1H549.55Z" fill="#EBEBEB"/>
<path d="M571.34 22.15H554.98V4.94C558.336 7.12801 561.418 9.7097 564.16 12.63C566.873 15.5491 569.279 18.7392 571.34 22.15Z" fill="#EBEBEB"/>
<path d="M549.55 5.43V22.29H533.85C537.691 15.5179 543.068 9.74275 549.55 5.43Z" fill="#EBEBEB"/>
<path d="M238.01 91.94H100.58V2.44H238.01V91.94ZM101.58 90.94H237.01V3.44H101.58V90.94Z" fill="#EBEBEB"/>
<path d="M238.01 15.2H100.58V2.44H238.01V15.2ZM101.58 14.2H237.01V3.44H101.58V14.2Z" fill="#EBEBEB"/>
<path d="M112.12 8.94C112.12 9.53334 111.944 10.1134 111.614 10.6067C111.285 11.1001 110.816 11.4846 110.268 11.7116C109.72 11.9387 109.117 11.9981 108.535 11.8824C107.953 11.7666 107.418 11.4809 106.999 11.0613C106.579 10.6418 106.293 10.1072 106.178 9.52527C106.062 8.94333 106.121 8.34013 106.348 7.79195C106.575 7.24377 106.96 6.77524 107.453 6.44559C107.947 6.11595 108.527 5.94 109.12 5.94C109.916 5.94 110.679 6.25607 111.241 6.81868C111.804 7.38129 112.12 8.14435 112.12 8.94Z" fill="#C7C7C7"/>
<path d="M124.19 8.94C124.19 9.53546 124.013 10.1174 123.681 10.6118C123.349 11.1062 122.877 11.4906 122.326 11.7161C121.775 11.9416 121.169 11.998 120.586 11.8782C120.003 11.7583 119.468 11.4676 119.051 11.043C118.633 10.6184 118.352 10.0792 118.242 9.49402C118.132 8.90882 118.198 8.30411 118.433 7.75688C118.668 7.20965 119.06 6.74466 119.56 6.42111C120.06 6.09755 120.645 5.93008 121.24 5.94C121.632 5.93994 122.019 6.01787 122.381 6.16924C122.742 6.32061 123.069 6.54239 123.344 6.82164C123.618 7.10089 123.835 7.43202 123.98 7.79572C124.125 8.15943 124.197 8.54841 124.19 8.94Z" fill="#EBEBEB"/>
<path d="M136.27 8.94C136.27 9.53334 136.094 10.1134 135.764 10.6067C135.435 11.1001 134.966 11.4846 134.418 11.7116C133.87 11.9387 133.267 11.9981 132.685 11.8824C132.103 11.7666 131.568 11.4809 131.149 11.0613C130.729 10.6418 130.443 10.1072 130.328 9.52527C130.212 8.94333 130.271 8.34013 130.498 7.79195C130.725 7.24377 131.11 6.77524 131.603 6.44559C132.097 6.11595 132.677 5.94 133.27 5.94C134.066 5.94 134.829 6.25607 135.391 6.81868C135.954 7.38129 136.27 8.14435 136.27 8.94Z" fill="#1FCB64"/>
<path d="M328.77 388.8C510.345 388.8 657.54 370.3 657.54 347.48C657.54 324.66 510.345 306.16 328.77 306.16C147.195 306.16 0 324.66 0 347.48C0 370.3 147.195 388.8 328.77 388.8Z" fill="#EBEBEB"/>
<path d="M4.49 293.13L85.56 292.89L328.77 292.63L571.98 292.89L653.05 293.13L571.98 293.38L328.77 293.63L85.56 293.37L4.49 293.13Z" fill="#263238"/>
<path d="M522.49 47.38H134.3V307.05H522.49V47.38Z" fill="#DBDBDB"/>
<path d="M519.67 50.55H137.12V303.88H519.67V50.55Z" fill="#263238"/>
<path d="M573.05 326.52H83.74V344.34H573.05V326.52Z" fill="#C7C7C7"/>
<path d="M83.74 326.52L134.3 307.05H522.49L573.05 326.52H83.74Z" fill="#DBDBDB"/>
<path d="M138.82 319.62L171.45 307.05H485.35L517.98 319.62H138.82Z" fill="#263238"/>
<path d="M498.05 69.8H158.74V284.64H498.05V69.8Z" fill="white"/>
<path d="M498.06 69.8H158.46V78.07H498.06V69.8Z" fill="#455A64"/>
<path d="M165.03 73.94C165.03 74.3475 164.908 74.7458 164.681 75.0839C164.453 75.4221 164.13 75.6847 163.753 75.8383C163.375 75.9918 162.96 76.0294 162.561 75.9462C162.162 75.8629 161.797 75.6627 161.513 75.3709C161.228 75.0792 161.037 74.7093 160.963 74.3084C160.89 73.9075 160.938 73.4938 161.101 73.1202C161.264 72.7466 161.534 72.43 161.878 72.2109C162.221 71.9918 162.623 71.8801 163.03 71.89C163.565 71.903 164.074 72.1248 164.447 72.5078C164.821 72.8909 165.03 73.4049 165.03 73.94Z" fill="#C7C7C7"/>
<path d="M173.4 73.94C173.4 74.3475 173.278 74.7458 173.051 75.0839C172.823 75.4221 172.5 75.6847 172.122 75.8383C171.745 75.9918 171.33 76.0294 170.931 75.9462C170.532 75.8629 170.167 75.6627 169.883 75.3709C169.598 75.0792 169.407 74.7093 169.333 74.3084C169.26 73.9075 169.308 73.4938 169.471 73.1202C169.634 72.7466 169.904 72.43 170.248 72.2109C170.591 71.9918 170.993 71.8801 171.4 71.89C171.935 71.903 172.444 72.1248 172.817 72.5078C173.191 72.8909 173.4 73.4049 173.4 73.94Z" fill="white"/>
<path d="M181.77 73.94C181.77 74.3455 181.65 74.7418 181.424 75.0789C181.199 75.416 180.879 75.6788 180.504 75.834C180.13 75.9891 179.718 76.0297 179.32 75.9506C178.922 75.8715 178.557 75.6763 178.27 75.3896C177.984 75.1029 177.788 74.7376 177.709 74.3399C177.63 73.9423 177.671 73.5301 177.826 73.1555C177.981 72.7809 178.244 72.4607 178.581 72.2355C178.918 72.0102 179.315 71.89 179.72 71.89C180.264 71.89 180.785 72.106 181.17 72.4904C181.554 72.8749 181.77 73.3963 181.77 73.94Z" fill="#1FCB64"/>
<path d="M175.04 187.85H306.99V95.44H175.04V187.85Z" fill="#EBEBEB"/>
<path d="M190.46 121.71C190.46 123.872 191.101 125.985 192.302 127.782C193.503 129.58 195.21 130.981 197.207 131.808C199.204 132.635 201.402 132.852 203.522 132.43C205.643 132.008 207.59 130.967 209.119 129.439C210.647 127.91 211.688 125.963 212.11 123.842C212.532 121.722 212.315 119.524 211.488 117.527C210.661 115.53 209.26 113.823 207.462 112.622C205.665 111.421 203.552 110.78 201.39 110.78C198.491 110.78 195.711 111.932 193.661 113.981C191.612 116.031 190.46 118.811 190.46 121.71Z" fill="#DBDBDB"/>
<path d="M233.61 167.94H307L270.3 118.21L233.61 167.94Z" fill="#C7C7C7"/>
<path d="M204.87 167.99H265.45L235.16 135.6L204.87 167.99Z" fill="#DBDBDB"/>
<path d="M306.99 167.94H175.04V187.85H306.99V167.94Z" fill="#DBDBDB"/>
<path d="M325.76 266.94H399.49V200.23H325.76V266.94Z" fill="#EBEBEB"/>
<path d="M335.29 214.81C334.958 216.473 335.17 218.198 335.894 219.731C336.618 221.264 337.816 222.523 339.31 223.323C340.805 224.123 342.518 224.42 344.195 224.172C345.872 223.923 347.424 223.142 348.623 221.943C349.822 220.744 350.603 219.192 350.852 217.515C351.1 215.838 350.803 214.125 350.003 212.63C349.203 211.136 347.944 209.938 346.411 209.214C344.878 208.49 343.153 208.278 341.49 208.61C339.96 208.916 338.554 209.668 337.451 210.771C336.348 211.874 335.596 213.28 335.29 214.81Z" fill="#DBDBDB"/>
<path d="M346.52 252.56H399.5L373.01 216.66L346.52 252.56Z" fill="#C7C7C7"/>
<path d="M325.77 252.59H369.51L347.64 229.21L325.77 252.59Z" fill="#DBDBDB"/>
<path d="M399.5 252.56H325.77V266.93H399.5V252.56Z" fill="#DBDBDB"/>
<path d="M444.04 95.45H325.77V101.42H444.04V95.45Z" fill="#A6A6A6"/>
<path d="M469.76 107.8H325.77V113.77H469.76V107.8Z" fill="#DBDBDB"/>
<path d="M469.76 120.15H325.77V126.12H469.76V120.15Z" fill="#DBDBDB"/>
<path d="M469.76 132.51H325.77V138.48H469.76V132.51Z" fill="#DBDBDB"/>
<path d="M469.76 144.86H325.77V150.83H469.76V144.86Z" fill="#DBDBDB"/>
<path d="M421.36 157.21H325.77V163.18H421.36V157.21Z" fill="#DBDBDB"/>
<path d="M458.38 200.22H406.07V206.1H458.38V200.22Z" fill="#A6A6A6"/>
<path d="M469.75 212.39H406.07V218.27H469.75V212.39Z" fill="#DBDBDB"/>
<path d="M469.75 224.56H406.07V230.44H469.75V224.56Z" fill="#DBDBDB"/>
<path d="M469.75 236.72H406.07V242.6H469.75V236.72Z" fill="#DBDBDB"/>
<path d="M469.75 248.89H406.07V254.77H469.75V248.89Z" fill="#DBDBDB"/>
<path d="M449.29 261.06H406.07V266.94H449.29V261.06Z" fill="#DBDBDB"/>
<path d="M469.76 170.31H325.77V187.85H469.76V170.31Z" fill="#1FCB64"/>
<path d="M306.99 200.22H175.04V217.76H306.99V200.22Z" fill="#A6A6A6"/>
<path d="M306.99 224.15H175.04V230.08H306.99V224.15Z" fill="#DBDBDB"/>
<path d="M306.99 236.43H175.04V242.36H306.99V236.43Z" fill="#DBDBDB"/>
<path d="M306.99 248.72H175.04V254.65H306.99V248.72Z" fill="#DBDBDB"/>
<path d="M265.45 261H175.04V266.93H265.45V261Z" fill="#DBDBDB"/>
<path d="M498.05 78.06H488.98V284.63H498.05V78.06Z" fill="#DBDBDB"/>
<path d="M493.51 186.17C492.889 186.17 492.294 185.923 491.855 185.485C491.417 185.046 491.17 184.451 491.17 183.83V82.45C491.17 81.8294 491.417 81.2342 491.855 80.7954C492.294 80.3565 492.889 80.11 493.51 80.11C494.131 80.11 494.726 80.3565 495.165 80.7954C495.603 81.2342 495.85 81.8294 495.85 82.45V183.83C495.85 184.451 495.603 185.046 495.165 185.485C494.726 185.923 494.131 186.17 493.51 186.17Z" fill="#A6A6A6"/>
<path d="M288.83 185.94V332.52C288.801 335.677 287.522 338.694 285.272 340.909C283.023 343.125 279.987 344.359 276.83 344.34H46.43C43.2728 344.359 40.237 343.125 37.9877 340.909C35.7384 338.694 34.4591 335.677 34.43 332.52V185.94C34.4591 182.784 35.7387 179.768 37.9883 177.554C40.2379 175.34 43.2738 174.109 46.43 174.13H276.77C278.338 174.112 279.894 174.403 281.349 174.986C282.804 175.57 284.13 176.436 285.25 177.533C286.371 178.63 287.264 179.937 287.878 181.38C288.492 182.822 288.816 184.372 288.83 185.94Z" fill="#455A64"/>
<path d="M271.36 181.28H52.37V336.96H271.36V181.28Z" fill="white"/>
<path d="M65.4 260.16H162.55V192.13H65.4V260.16Z" fill="#EBEBEB"/>
<path d="M76.77 211.48C76.7799 213.06 77.2575 214.602 78.1425 215.911C79.0275 217.22 80.2804 218.237 81.743 218.835C83.2057 219.433 84.8126 219.584 86.3611 219.27C87.9097 218.956 89.3305 218.19 90.4443 217.069C91.5581 215.948 92.3151 214.523 92.6198 212.972C92.9244 211.422 92.7631 209.816 92.1561 208.357C91.5492 206.898 90.5238 205.652 89.2093 204.775C87.8948 203.898 86.3501 203.43 84.77 203.43C83.7152 203.43 82.6708 203.639 81.6969 204.044C80.7231 204.449 79.8389 205.043 79.0954 205.791C78.3519 206.539 77.7636 207.427 77.3646 208.403C76.9655 209.38 76.7634 210.425 76.77 211.48Z" fill="#DBDBDB"/>
<path d="M108.52 245.51H162.55L135.53 208.9L108.52 245.51Z" fill="#C7C7C7"/>
<path d="M87.36 245.54H131.96L109.66 221.7L87.36 245.54Z" fill="#DBDBDB"/>
<path d="M162.55 245.51H65.4V260.17H162.55V245.51Z" fill="#DBDBDB"/>
<path d="M193.37 324.8H258.33V279.31H193.37V324.8Z" fill="#EBEBEB"/>
<path d="M200.96 292.25C200.958 293.316 201.272 294.36 201.864 295.247C202.455 296.135 203.296 296.827 204.28 297.237C205.265 297.646 206.349 297.754 207.395 297.548C208.442 297.341 209.403 296.828 210.158 296.075C210.913 295.321 211.427 294.361 211.636 293.315C211.844 292.269 211.738 291.185 211.331 290.2C210.923 289.214 210.232 288.372 209.346 287.779C208.459 287.186 207.416 286.87 206.35 286.87C205.643 286.869 204.942 287.007 204.288 287.277C203.634 287.546 203.04 287.943 202.539 288.442C202.039 288.942 201.641 289.535 201.37 290.189C201.099 290.842 200.96 291.543 200.96 292.25Z" fill="#DBDBDB"/>
<path d="M222.21 315H258.33L240.27 290.52L222.21 315Z" fill="#C7C7C7"/>
<path d="M208.06 315.03H237.88L222.97 299.08L208.06 315.03Z" fill="#DBDBDB"/>
<path d="M258.33 315.01H193.37V324.81H258.33V315.01Z" fill="#DBDBDB"/>
<path d="M258.34 192.14H170.93V208.76H258.34V192.14Z" fill="#1FCB64"/>
<path d="M258.34 215.07H170.93V217.4H258.34V215.07Z" fill="#DBDBDB"/>
<path d="M258.34 220.54H170.93V222.87H258.34V220.54Z" fill="#DBDBDB"/>
<path d="M258.34 226.01H170.93V228.34H258.34V226.01Z" fill="#DBDBDB"/>
<path d="M258.34 231.48H170.93V233.81H258.34V231.48Z" fill="#DBDBDB"/>
<path d="M258.34 236.95H170.93V239.28H258.34V236.95Z" fill="#DBDBDB"/>
<path d="M258.34 242.42H170.93V244.75H258.34V242.42Z" fill="#DBDBDB"/>
<path d="M221.18 247.89H170.93V250.22H221.18V247.89Z" fill="#DBDBDB"/>
<path d="M184.13 312.14H96.72V314.47H184.13V312.14Z" fill="#DBDBDB"/>
<path d="M184.13 279.32H96.72V281.65H184.13V279.32Z" fill="#DBDBDB"/>
<path d="M184.13 284.79H96.72V287.12H184.13V284.79Z" fill="#DBDBDB"/>
<path d="M184.13 290.26H96.72V292.59H184.13V290.26Z" fill="#DBDBDB"/>
<path d="M156.33 295.73H96.72V298.06H156.33V295.73Z" fill="#DBDBDB"/>
<path d="M184.13 306.67H96.72V309H184.13V306.67Z" fill="#DBDBDB"/>
<path d="M156.33 317.61H96.72V319.94H156.33V317.61Z" fill="#DBDBDB"/>
<path d="M258.34 267.76H65.4V273.26H258.34V267.76Z" fill="#455A64"/>
<path d="M90.38 279.32H65.4V324.81H90.38V279.32Z" fill="#1FCB64"/>
<path d="M44.97 240.7H44.82C44.1296 240.7 43.57 241.26 43.57 241.95V276.5C43.57 277.19 44.1296 277.75 44.82 277.75H44.97C45.6604 277.75 46.22 277.19 46.22 276.5V241.95C46.22 241.26 45.6604 240.7 44.97 240.7Z" fill="#37474F"/>
<path d="M285.77 259.22C285.772 260.17 285.492 261.1 284.965 261.891C284.439 262.681 283.689 263.298 282.812 263.663C281.934 264.027 280.968 264.123 280.036 263.938C279.104 263.753 278.248 263.296 277.576 262.624C276.904 261.952 276.447 261.096 276.262 260.164C276.077 259.232 276.173 258.266 276.537 257.388C276.902 256.511 277.519 255.761 278.31 255.235C279.1 254.708 280.03 254.428 280.98 254.43C282.25 254.433 283.466 254.938 284.364 255.836C285.262 256.734 285.767 257.95 285.77 259.22Z" fill="#37474F"/>
<path d="M607.88 142.74H518.77C516.36 142.766 514.059 143.748 512.372 145.469C510.684 147.19 509.749 149.51 509.77 151.92V335.32C509.751 337.729 510.688 340.048 512.375 341.768C514.061 343.489 516.361 344.471 518.77 344.5H607.86C610.269 344.471 612.569 343.489 614.255 341.768C615.942 340.048 616.879 337.729 616.86 335.32V151.94C616.887 149.53 615.956 147.208 614.273 145.483C612.589 143.758 610.29 142.772 607.88 142.74ZM611.27 329.65C611.27 334.48 607.65 338.38 603.19 338.38H523.49C519.02 338.38 515.41 334.48 515.41 329.65V158.87C515.41 149.04 519.02 148.56 523.49 148.56H539.49C540.42 148.56 541.18 149.56 541.18 150.92V151.48C541.18 154.55 542.86 154.56 544.92 154.56H581.77C583.84 154.56 585.5 154.56 585.5 151.48V150.94C585.5 149.63 586.25 148.58 587.2 148.58H603.2C607.66 148.58 611.28 149.89 611.28 158.89L611.27 329.65Z" fill="#455A64"/>
<path d="M568.37 150.73H558.3C558.136 150.73 557.978 150.665 557.862 150.548C557.745 150.432 557.68 150.274 557.68 150.11C557.68 149.946 557.745 149.788 557.862 149.672C557.978 149.555 558.136 149.49 558.3 149.49H568.37C568.535 149.49 568.694 149.555 568.812 149.671C568.93 149.787 568.997 149.945 569 150.11C568.997 150.275 568.93 150.433 568.812 150.549C568.694 150.665 568.535 150.73 568.37 150.73Z" fill="white"/>
<path d="M611.27 158.87V329.65C611.27 334.48 607.65 338.38 603.19 338.38H523.49C519.02 338.38 515.41 334.48 515.41 329.65V158.87C515.41 149.04 519.02 148.56 523.49 148.56H539.49C540.42 148.56 541.18 149.56 541.18 150.92V151.48C541.18 154.55 542.86 154.56 544.92 154.56H581.77C583.84 154.56 585.5 154.56 585.5 151.48V150.94C585.5 149.63 586.25 148.58 587.2 148.58H603.2C607.65 148.56 611.27 149.87 611.27 158.87Z" fill="white"/>
<path d="M611.27 158.87V171.61H515.4V158.87C515.4 149.04 519.02 148.56 523.49 148.56H539.49C540.41 148.56 541.17 149.56 541.17 150.92V151.48C541.17 154.55 542.85 154.56 544.9 154.56H581.77C583.84 154.56 585.51 154.56 585.51 151.48V150.94C585.51 149.63 586.26 148.58 587.2 148.58H603.2C607.65 148.56 611.27 149.87 611.27 158.87Z" fill="#1FCB64"/>
<path d="M524.49 165.39L521.66 162.74L524.49 160.09L524.93 160.55L522.6 162.74L524.93 164.93L524.49 165.39Z" fill="white"/>
<path d="M602.62 165.63H600.62V164.94C600.62 164.921 600.614 164.902 600.603 164.886C600.593 164.87 600.578 164.858 600.56 164.85L600.34 164.72C600.323 164.713 600.304 164.709 600.285 164.709C600.266 164.709 600.247 164.713 600.23 164.72L599.62 165.08L598.62 163.35L599.23 163C599.242 162.984 599.249 162.965 599.249 162.945C599.249 162.925 599.242 162.906 599.23 162.89V162.65C599.242 162.634 599.249 162.615 599.249 162.595C599.249 162.575 599.242 162.556 599.23 162.54L598.62 162.19L599.62 160.46L600.23 160.81C600.247 160.82 600.266 160.825 600.285 160.825C600.304 160.825 600.323 160.82 600.34 160.81L600.56 160.68C600.578 160.672 600.593 160.66 600.603 160.644C600.614 160.628 600.62 160.609 600.62 160.59V159.88H602.62V160.59C602.62 160.609 602.626 160.628 602.637 160.644C602.647 160.66 602.662 160.672 602.68 160.68L602.9 160.81C602.917 160.82 602.936 160.825 602.955 160.825C602.974 160.825 602.993 160.82 603.01 160.81L603.62 160.46L604.62 162.19L604.01 162.54C603.998 162.556 603.991 162.575 603.991 162.595C603.991 162.615 603.998 162.634 604.01 162.65V162.89C603.998 162.906 603.991 162.925 603.991 162.945C603.991 162.965 603.998 162.984 604.01 163L604.62 163.35L603.62 165.08L603.01 164.73C602.993 164.72 602.974 164.715 602.955 164.715C602.936 164.715 602.917 164.72 602.9 164.73L602.68 164.86C602.662 164.868 602.647 164.88 602.637 164.896C602.626 164.912 602.62 164.931 602.62 164.95V165.63ZM601.12 165.13H602.12V164.94C602.121 164.829 602.153 164.72 602.211 164.625C602.269 164.53 602.352 164.452 602.45 164.4C602.51 164.372 602.567 164.339 602.62 164.3C602.717 164.244 602.828 164.214 602.94 164.214C603.052 164.214 603.163 164.244 603.26 164.3L603.44 164.41L603.94 163.54L603.76 163.43C603.663 163.376 603.584 163.295 603.531 163.198C603.478 163.101 603.453 162.991 603.46 162.88V162.68C603.454 162.568 603.478 162.457 603.531 162.358C603.584 162.259 603.663 162.177 603.76 162.12L603.94 162.02L603.44 161.15L603.26 161.26C603.165 161.316 603.056 161.346 602.945 161.346C602.834 161.346 602.725 161.316 602.63 161.26L602.45 161.16C602.352 161.108 602.269 161.03 602.211 160.935C602.153 160.84 602.121 160.731 602.12 160.62V160.41H601.12V160.62C601.119 160.731 601.087 160.84 601.029 160.935C600.971 161.03 600.888 161.108 600.79 161.16C600.73 161.188 600.673 161.221 600.62 161.26C600.523 161.316 600.412 161.346 600.3 161.346C600.188 161.346 600.077 161.316 599.98 161.26L599.8 161.15L599.3 162.02L599.48 162.12C599.577 162.177 599.656 162.259 599.709 162.358C599.762 162.457 599.786 162.568 599.78 162.68V162.88C599.786 162.992 599.762 163.103 599.709 163.202C599.656 163.301 599.577 163.383 599.48 163.44L599.3 163.54L599.8 164.41L599.98 164.3C600.077 164.244 600.188 164.214 600.3 164.214C600.412 164.214 600.523 164.244 600.62 164.3C600.673 164.339 600.73 164.372 600.79 164.4C600.888 164.452 600.971 164.53 601.029 164.625C601.087 164.72 601.119 164.829 601.12 164.94V165.13ZM601.62 164.22C601.327 164.22 601.041 164.133 600.798 163.971C600.554 163.808 600.365 163.577 600.253 163.306C600.141 163.036 600.111 162.738 600.168 162.451C600.226 162.164 600.367 161.9 600.573 161.693C600.78 161.486 601.044 161.346 601.331 161.288C601.618 161.231 601.916 161.261 602.186 161.373C602.457 161.485 602.688 161.674 602.851 161.918C603.013 162.161 603.1 162.447 603.1 162.74C603.097 163.132 602.941 163.507 602.664 163.784C602.387 164.061 602.012 164.217 601.62 164.22ZM601.62 161.76C601.422 161.76 601.229 161.819 601.064 161.929C600.9 162.038 600.772 162.195 600.696 162.377C600.62 162.56 600.601 162.761 600.639 162.955C600.678 163.149 600.773 163.327 600.913 163.467C601.053 163.607 601.231 163.702 601.425 163.741C601.619 163.779 601.82 163.76 602.003 163.684C602.185 163.608 602.342 163.48 602.451 163.316C602.561 163.151 602.62 162.958 602.62 162.76C602.62 162.495 602.515 162.24 602.327 162.053C602.14 161.865 601.885 161.76 601.62 161.76Z" fill="white"/>
<path d="M536.7 152.39L536.55 152.55L536.46 152.64C536.264 152.44 536.031 152.282 535.774 152.174C535.516 152.065 535.239 152.01 534.96 152.01C534.681 152.01 534.404 152.065 534.146 152.174C533.889 152.282 533.656 152.44 533.46 152.64L533.38 152.55L533.23 152.4C533.289 152.338 533.352 152.281 533.42 152.23C533.557 152.115 533.709 152.018 533.87 151.94C534.061 151.848 534.262 151.781 534.47 151.74H535.23C535.418 151.763 535.602 151.807 535.78 151.87C535.908 151.92 536.032 151.98 536.15 152.05C536.277 152.118 536.398 152.199 536.51 152.29L536.67 152.44L536.7 152.39Z" fill="white"/>
<path d="M533.97 153.12L533.73 152.88C533.893 152.717 534.086 152.587 534.299 152.499C534.511 152.41 534.74 152.365 534.97 152.365C535.2 152.365 535.429 152.41 535.641 152.499C535.854 152.587 536.047 152.717 536.21 152.88L535.97 153.13C535.704 152.866 535.345 152.718 534.97 152.718C534.595 152.718 534.236 152.866 533.97 153.13V153.12Z" fill="white"/>
<path d="M535.77 153.36L535.53 153.61C535.465 153.543 535.387 153.491 535.301 153.455C535.215 153.418 535.123 153.4 535.03 153.4C534.937 153.4 534.845 153.418 534.759 153.455C534.673 153.491 534.595 153.543 534.53 153.61L534.29 153.36C534.488 153.167 534.754 153.059 535.03 153.059C535.307 153.059 535.572 153.167 535.77 153.36Z" fill="white"/>
<path d="M535.19 153.83C535.19 153.874 535.177 153.916 535.153 153.952C535.129 153.988 535.094 154.017 535.054 154.033C535.014 154.05 534.97 154.054 534.927 154.046C534.884 154.037 534.845 154.016 534.814 153.986C534.784 153.955 534.763 153.916 534.754 153.873C534.746 153.83 534.75 153.786 534.767 153.746C534.783 153.706 534.812 153.671 534.848 153.647C534.884 153.623 534.927 153.61 534.97 153.61C534.999 153.609 535.029 153.613 535.056 153.624C535.083 153.634 535.108 153.651 535.129 153.671C535.149 153.692 535.166 153.717 535.176 153.744C535.187 153.771 535.191 153.801 535.19 153.83Z" fill="white"/>
<path d="M521.66 152.86C521.66 152.693 521.726 152.533 521.845 152.415C521.963 152.296 522.123 152.23 522.29 152.23C522.458 152.23 522.619 152.296 522.739 152.414C522.859 152.532 522.927 152.692 522.93 152.86C522.93 153.03 522.863 153.193 522.743 153.313C522.623 153.433 522.46 153.5 522.29 153.5C522.122 153.497 521.962 153.429 521.844 153.309C521.726 153.189 521.66 153.028 521.66 152.86Z" fill="white"/>
<path d="M523.66 152.86C523.66 152.693 523.726 152.533 523.845 152.415C523.963 152.296 524.123 152.23 524.29 152.23C524.458 152.23 524.619 152.296 524.739 152.414C524.859 152.532 524.927 152.692 524.93 152.86C524.93 153.03 524.863 153.193 524.743 153.313C524.623 153.433 524.46 153.5 524.29 153.5C524.122 153.497 523.962 153.429 523.844 153.309C523.726 153.189 523.66 153.028 523.66 152.86Z" fill="white"/>
<path d="M525.66 152.86C525.68 152.705 525.755 152.563 525.872 152.46C525.989 152.357 526.139 152.3 526.295 152.3C526.451 152.3 526.601 152.357 526.718 152.46C526.835 152.563 526.911 152.705 526.93 152.86C526.941 152.95 526.933 153.042 526.907 153.128C526.88 153.215 526.835 153.295 526.775 153.363C526.715 153.431 526.641 153.486 526.558 153.523C526.476 153.561 526.386 153.58 526.295 153.58C526.204 153.58 526.115 153.561 526.032 153.523C525.949 153.486 525.875 153.431 525.815 153.363C525.755 153.295 525.71 153.215 525.683 153.128C525.657 153.042 525.649 152.95 525.66 152.86Z" fill="white"/>
<path d="M527.66 152.86C527.66 152.733 527.698 152.61 527.768 152.504C527.838 152.399 527.938 152.317 528.055 152.269C528.172 152.22 528.301 152.208 528.425 152.232C528.549 152.257 528.663 152.318 528.753 152.407C528.842 152.497 528.903 152.611 528.928 152.735C528.952 152.859 528.94 152.988 528.891 153.105C528.843 153.222 528.761 153.322 528.656 153.392C528.55 153.462 528.427 153.5 528.3 153.5C528.13 153.5 527.967 153.433 527.847 153.313C527.727 153.193 527.66 153.03 527.66 152.86Z" fill="white"/>
<path d="M529.66 152.86C529.663 152.692 529.731 152.532 529.851 152.414C529.971 152.296 530.132 152.23 530.3 152.23C530.467 152.23 530.627 152.296 530.745 152.415C530.864 152.533 530.93 152.693 530.93 152.86C530.93 153.028 530.864 153.189 530.746 153.309C530.628 153.429 530.468 153.497 530.3 153.5C530.13 153.5 529.967 153.433 529.847 153.313C529.727 153.193 529.66 153.03 529.66 152.86Z" fill="white"/>
<path d="M604.07 154.24H598.91V151.86H604.07V154.24ZM599.16 153.99H603.82V152.11H599.16V153.99Z" fill="white"/>
<path d="M602.66 152.26H599.33V153.84H602.66V152.26Z" fill="white"/>
<path d="M604.54 152.41H604.08V153.69H604.54V152.41Z" fill="white"/>
<path d="M529.97 327.94H529.24V331.29H527.88V329.58H525.47V331.29H524.11V327.94H523.38L526.68 324.54L529.97 327.94Z" fill="#EBEBEB"/>
<path d="M603.31 324.54H595.36V325.68H603.31V324.54Z" fill="#EBEBEB"/>
<path d="M603.31 327.34H595.36V328.48H603.31V327.34Z" fill="#EBEBEB"/>
<path d="M603.31 330.15H595.36V331.29H603.31V330.15Z" fill="#EBEBEB"/>
<path d="M529.82 188.38C528.976 188.907 528 189.186 527.005 189.186C526.01 189.186 525.034 188.907 524.19 188.38C523.2 187.768 522.437 186.849 522.017 185.764C521.596 184.679 521.541 183.487 521.859 182.367C522.177 181.248 522.852 180.263 523.781 179.561C524.709 178.86 525.841 178.48 527.005 178.48C528.169 178.48 529.301 178.86 530.229 179.561C531.158 180.263 531.833 181.248 532.151 182.367C532.469 183.487 532.414 184.679 531.993 185.764C531.573 186.849 530.81 187.768 529.82 188.38Z" fill="#DBDBDB"/>
<path d="M528.63 183.22C528.63 183.543 528.534 183.858 528.355 184.127C528.175 184.395 527.92 184.604 527.621 184.727C527.323 184.85 526.995 184.882 526.678 184.818C526.362 184.754 526.071 184.598 525.844 184.369C525.616 184.14 525.462 183.849 525.4 183.532C525.338 183.215 525.372 182.887 525.497 182.589C525.622 182.292 525.832 182.038 526.102 181.86C526.371 181.682 526.687 181.588 527.01 181.59C527.441 181.593 527.853 181.766 528.156 182.071C528.46 182.376 528.63 182.789 528.63 183.22Z" fill="white"/>
<path d="M529.82 187.71V188.38C528.976 188.907 528 189.186 527.005 189.186C526.01 189.186 525.034 188.907 524.19 188.38V187.71C524.233 186.992 524.548 186.318 525.071 185.825C525.594 185.332 526.286 185.058 527.005 185.058C527.724 185.058 528.416 185.332 528.939 185.825C529.462 186.318 529.777 186.992 529.82 187.71Z" fill="white"/>
<path d="M573.06 178.79H539.06V181.59H573.06V178.79Z" fill="#EBEBEB"/>
<path d="M568.74 183.46H539.06V185.32H568.74V183.46Z" fill="#EBEBEB"/>
<path d="M588.13 187.04H539.06V188.9H588.13V187.04Z" fill="#EBEBEB"/>
<path d="M515.41 260.73H611.27V193.61H515.41V260.73Z" fill="#EBEBEB"/>
<path d="M526.61 212.69C526.61 214.26 527.076 215.796 527.948 217.101C528.821 218.407 530.061 219.425 531.512 220.026C532.962 220.627 534.559 220.784 536.099 220.477C537.639 220.171 539.054 219.415 540.164 218.304C541.275 217.194 542.031 215.779 542.337 214.239C542.644 212.699 542.487 211.102 541.886 209.651C541.285 208.201 540.267 206.961 538.961 206.088C537.656 205.216 536.12 204.75 534.55 204.75C532.444 204.75 530.425 205.587 528.936 207.076C527.447 208.565 526.61 210.584 526.61 212.69Z" fill="#DBDBDB"/>
<path d="M557.97 246.27H611.27L584.62 210.14L557.97 246.27Z" fill="#C7C7C7"/>
<path d="M537.07 246.3H581.08L559.07 222.78L537.07 246.3Z" fill="#DBDBDB"/>
<path d="M611.27 246.27H515.41V260.73H611.27V246.27Z" fill="#DBDBDB"/>
<path d="M529.82 296.12C528.976 296.647 528 296.926 527.005 296.926C526.01 296.926 525.034 296.647 524.19 296.12C523.2 295.508 522.437 294.589 522.017 293.504C521.596 292.419 521.541 291.227 521.859 290.107C522.177 288.988 522.852 288.003 523.781 287.301C524.709 286.6 525.841 286.22 527.005 286.22C528.169 286.22 529.301 286.6 530.229 287.301C531.158 288.003 531.833 288.988 532.151 290.107C532.469 291.227 532.414 292.419 531.993 293.504C531.573 294.589 530.81 295.508 529.82 296.12Z" fill="#DBDBDB"/>
<path d="M527.01 292.59C527.91 292.59 528.64 291.86 528.64 290.96C528.64 290.06 527.91 289.33 527.01 289.33C526.11 289.33 525.38 290.06 525.38 290.96C525.38 291.86 526.11 292.59 527.01 292.59Z" fill="white"/>
<path d="M529.82 295.45V296.12C528.976 296.647 528 296.926 527.005 296.926C526.01 296.926 525.034 296.647 524.19 296.12V295.45C524.233 294.732 524.548 294.058 525.071 293.565C525.594 293.072 526.286 292.798 527.005 292.798C527.724 292.798 528.416 293.072 528.939 293.565C529.462 294.058 529.777 294.732 529.82 295.45Z" fill="white"/>
<path d="M582.78 286.53H539.06V289.33H582.78V286.53Z" fill="#EBEBEB"/>
<path d="M594.88 291.2H539.06V293.06H594.88V291.2Z" fill="#EBEBEB"/>
<path d="M558.07 294.78H539.06V296.64H558.07V294.78Z" fill="#EBEBEB"/>
<path d="M611.25 301.35H515.41V317.74H611.25V301.35Z" fill="#EBEBEB"/>
<path d="M542.02 317.75H527.08C527.629 316.208 528.642 314.874 529.98 313.931C531.317 312.988 532.913 312.482 534.55 312.482C536.187 312.482 537.783 312.988 539.12 313.931C540.458 314.874 541.471 316.208 542.02 317.75Z" fill="#DBDBDB"/>
<path d="M521.85 268.59C521.702 267.981 521.737 267.341 521.952 266.752C522.167 266.164 522.552 265.652 523.058 265.281C523.564 264.911 524.169 264.699 524.795 264.673C525.422 264.646 526.042 264.806 526.578 265.132C527.113 265.458 527.54 265.935 527.804 266.504C528.069 267.072 528.159 267.706 528.062 268.326C527.966 268.945 527.689 269.522 527.265 269.984C526.841 270.446 526.289 270.772 525.68 270.92C525.275 271.02 524.855 271.039 524.443 270.976C524.031 270.912 523.636 270.768 523.28 270.552C522.924 270.335 522.615 270.05 522.369 269.714C522.124 269.377 521.947 268.995 521.85 268.59Z" fill="#EBEBEB"/>
<path fill-rule="evenodd" clip-rule="evenodd" d="M524.5 269.1C524.41 269.05 524.34 268.97 524.23 268.98C524.12 268.99 524.23 268.98 524.23 268.93V267.66C524.223 267.65 524.219 267.638 524.219 267.625C524.219 267.612 524.223 267.6 524.23 267.59C524.55 267.43 524.69 267.11 524.89 266.83C524.996 266.689 525.071 266.526 525.111 266.354C525.15 266.182 525.153 266.004 525.12 265.83C525.12 265.74 525.12 265.7 525.24 265.68C525.282 265.663 525.329 265.66 525.372 265.673C525.416 265.686 525.454 265.713 525.48 265.75C525.574 265.924 525.635 266.114 525.66 266.31C525.68 266.466 525.68 266.624 525.66 266.78C525.66 266.9 525.61 267.01 525.59 267.13C525.57 267.25 525.65 267.13 525.68 267.13H526.75C526.9 267.13 526.98 267.13 527 267.27C527.011 267.332 527.001 267.396 526.972 267.452C526.943 267.508 526.897 267.553 526.84 267.58C526.84 267.58 526.77 267.58 526.77 267.63C526.77 267.68 526.77 267.63 526.84 267.68C526.91 267.73 526.94 267.95 526.84 268.06C526.74 268.17 526.74 268.06 526.74 268.12C526.74 268.18 526.8 268.12 526.83 268.2C526.853 268.229 526.869 268.264 526.876 268.3C526.883 268.336 526.882 268.374 526.872 268.41C526.863 268.446 526.845 268.479 526.82 268.507C526.795 268.534 526.765 268.556 526.73 268.57H526.66C526.66 268.57 526.66 268.57 526.66 268.62C526.696 268.637 526.727 268.664 526.748 268.697C526.769 268.731 526.781 268.77 526.781 268.81C526.781 268.85 526.769 268.889 526.748 268.923C526.727 268.956 526.696 268.983 526.66 269C526.598 269.02 526.532 269.02 526.47 269H524.79C524.783 269.03 524.769 269.058 524.749 269.081C524.728 269.104 524.702 269.121 524.673 269.131C524.644 269.141 524.613 269.144 524.582 269.138C524.552 269.133 524.524 269.12 524.5 269.1Z" fill="white"/>
<path fill-rule="evenodd" clip-rule="evenodd" d="M522.9 268.36C522.9 268.09 522.9 267.82 522.9 267.55C522.9 267.5 522.9 267.47 522.98 267.47C523.3 267.47 523.63 267.47 523.98 267.47C524.04 267.47 524.05 267.47 524.05 267.55V269.17C524.05 269.24 524.05 269.26 523.96 269.26H523.01C522.93 269.26 522.92 269.26 522.92 269.16C522.91 268.94 522.9 268.63 522.9 268.36Z" fill="white"/>
<path d="M528.51 268.59C528.362 267.981 528.398 267.342 528.613 266.754C528.828 266.166 529.213 265.654 529.719 265.284C530.224 264.914 530.828 264.702 531.454 264.675C532.08 264.648 532.699 264.807 533.235 265.132C533.771 265.457 534.198 265.934 534.463 266.501C534.728 267.069 534.819 267.702 534.724 268.321C534.63 268.941 534.353 269.518 533.931 269.98C533.508 270.443 532.958 270.77 532.35 270.92C531.945 271.021 531.523 271.041 531.111 270.979C530.698 270.916 530.301 270.773 529.944 270.556C529.587 270.339 529.276 270.054 529.03 269.717C528.784 269.379 528.607 268.996 528.51 268.59Z" fill="#1FCB64"/>
<path d="M533.21 268.24C533.21 268.67 533.039 269.082 532.736 269.386C532.432 269.689 532.02 269.86 531.59 269.86C531.16 269.86 530.748 269.689 530.445 269.386C530.141 269.082 529.97 268.67 529.97 268.24C529.867 268.089 529.797 267.917 529.766 267.736C529.734 267.556 529.742 267.371 529.789 267.193C529.835 267.016 529.919 266.851 530.035 266.709C530.151 266.567 530.296 266.451 530.46 266.37C531.36 266.1 531.59 267.67 531.59 267.67C531.59 267.67 531.82 266.1 532.73 266.37C533.36 266.56 533.61 267.43 533.21 268.24Z" fill="white"/>
<path d="M584.62 267.43H539.59V269.26H584.62V267.43Z" fill="#EBEBEB"/>
<path d="M515.41 278.36L527.39 278.18L539.37 278.08L563.33 277.99L587.29 278.08L599.27 278.18L611.25 278.36L599.27 278.55L587.29 278.65L563.33 278.74L539.37 278.65L527.39 278.55L515.41 278.36Z" fill="#EBEBEB"/>
<path d="M371.44 364.99C370.69 362.87 331.98 313.87 329.38 312.99C329.09 312.87 312.5 325.21 312.5 325.21C311.82 326.15 279.66 320.05 279.66 320.05L280.15 358.68L338.44 356.22C338.44 356.22 346.44 360.69 353.7 364.31C356.798 365.975 359.998 367.444 363.28 368.71C366.23 369.38 372.2 367.09 371.44 364.99Z" fill="#EB9481"/>
<path d="M363.3 368.69C360.021 367.426 356.824 365.956 353.73 364.29C346.45 360.67 338.47 356.2 338.47 356.2L325.47 356.75L304.47 324.38C308.95 325.08 312.28 325.48 312.47 325.18C312.47 325.18 329.05 312.85 329.35 312.97C331.95 313.87 370.66 362.87 371.41 364.97C372.16 367.07 366.23 369.39 363.3 368.69Z" fill="white"/>
<path d="M371.77 365.04C370.98 362.88 332.1 313.91 329.43 312.98C328.43 312.62 320.29 317.88 312.48 325.19L337.58 356.72C337.58 356.72 360.38 368.2 363.41 368.91C366.44 369.62 372.57 367.21 371.77 365.04Z" fill="#1FCB64"/>
<path d="M369.27 365.94C362.55 357.94 336.21 324.79 330.18 316.33C330.13 316.26 330.18 316.22 330.18 316.33C337.01 324.16 363.09 357.47 369.35 365.87C369.54 365.94 369.41 366.07 369.27 365.94Z" fill="#263238"/>
<path d="M359.17 367.16C358.419 366.266 357.863 365.225 357.536 364.105C357.209 362.984 357.118 361.808 357.27 360.65C357.525 358.568 358.575 356.666 360.2 355.34C360.25 355.34 360.32 355.39 360.27 355.44C358.865 357.008 358.008 358.99 357.827 361.088C357.647 363.186 358.153 365.285 359.27 367.07C359.32 367.14 359.22 367.22 359.17 367.16Z" fill="#263238"/>
<path d="M340.47 358.65C337.81 355.4 335.95 350.65 337.02 346.49C337.02 346.33 337.29 346.39 337.31 346.49C338.088 350.557 339.298 354.53 340.92 358.34C340.961 358.4 340.977 358.473 340.964 358.544C340.951 358.616 340.91 358.679 340.85 358.72C340.79 358.761 340.717 358.777 340.645 358.764C340.574 358.751 340.511 358.71 340.47 358.65Z" fill="#263238"/>
<path d="M343.47 360.4C340.82 357.15 338.95 352.4 340.02 348.24C340.02 348.08 340.29 348.14 340.32 348.24C341.089 352.308 342.296 356.281 343.92 360.09C343.961 360.15 343.977 360.223 343.964 360.294C343.951 360.366 343.91 360.429 343.85 360.47C343.82 360.49 343.787 360.505 343.752 360.512C343.717 360.52 343.681 360.52 343.646 360.514C343.574 360.501 343.511 360.46 343.47 360.4Z" fill="#263238"/>
<path d="M346.47 362.15C343.82 358.9 341.96 354.15 343.02 349.99C343.02 349.83 343.29 349.89 343.32 349.99C344.096 354.057 345.303 358.029 346.92 361.84C346.961 361.9 346.977 361.973 346.964 362.044C346.951 362.116 346.91 362.179 346.85 362.22C346.79 362.261 346.717 362.277 346.645 362.264C346.574 362.251 346.511 362.21 346.47 362.15Z" fill="#263238"/>
<path d="M349.48 363.94C346.82 360.69 344.96 355.94 346.02 351.78C346.02 351.62 346.29 351.68 346.32 351.78C347.095 355.848 348.305 359.821 349.93 363.63C349.971 363.69 349.987 363.763 349.974 363.835C349.961 363.906 349.92 363.969 349.86 364.01C349.83 364.03 349.797 364.045 349.762 364.052C349.727 364.06 349.691 364.06 349.655 364.054C349.584 364.041 349.521 364 349.48 363.94Z" fill="#263238"/>
<path d="M324.04 324.57C321.12 320.87 326.86 316.34 329.78 320.04C332.7 323.74 326.96 328.27 324.04 324.57Z" fill="#263238"/>
<path d="M339.13 365.07C340.01 361.48 339.3 357.64 339.06 354.01C339.048 353.931 339.017 353.855 338.971 353.79C338.924 353.725 338.862 353.672 338.791 353.635C338.72 353.598 338.641 353.578 338.561 353.577C338.481 353.576 338.402 353.595 338.33 353.63C338.319 353.617 338.305 353.607 338.289 353.6C338.274 353.593 338.257 353.589 338.24 353.589C338.223 353.589 338.206 353.593 338.191 353.6C338.175 353.607 338.161 353.617 338.15 353.63C335.339 356.266 333.27 359.593 332.15 363.28C331.54 365.44 331.85 368.61 334.55 369.18C337.25 369.75 338.62 367.17 339.13 365.07ZM336.53 367.38C332.69 369.9 332.88 364.49 333.4 362.92C333.746 361.89 334.167 360.888 334.66 359.92C335.696 357.957 336.831 356.048 338.06 354.2C338.06 355.99 338.23 357.76 338.3 359.54C338.39 361.71 338.64 366 336.53 367.38Z" fill="#263238"/>
<path d="M326.77 343.6C324.83 345.6 326.31 348.38 328.02 349.84C330.992 352.304 334.563 353.939 338.37 354.58C338.46 354.58 338.5 354.53 338.5 354.46C338.581 354.452 338.658 354.424 338.726 354.38C338.793 354.335 338.85 354.276 338.89 354.205C338.93 354.135 338.952 354.056 338.956 353.975C338.96 353.894 338.944 353.814 338.91 353.74C337.11 350.58 335.58 346.99 332.91 344.48C331.31 343.01 328.63 341.75 326.77 343.6ZM335.2 349.51C336.13 351.04 336.97 352.61 337.94 354.11C335.94 353.18 333.88 352.34 331.94 351.21C331.005 350.677 330.106 350.083 329.25 349.43C327.95 348.43 324.82 343.99 329.41 343.98C331.97 343.94 334.13 347.69 335.22 349.51H335.2Z" fill="#263238"/>
<path d="M277.77 310.84L251.48 308.77C251.48 308.77 213.48 297.77 191.56 303.52C166.4 310.13 162.85 339.52 188.43 351.3C213.77 362.94 325.14 358.66 325.14 358.66L301.26 323.29C301.26 323.29 264.58 314.68 232.47 316.43L277.93 321.66L277.77 310.84Z" fill="#37474F"/>
<path d="M277.5 318.32C273.59 317.68 269.63 317.32 265.69 316.99C261.75 316.66 257.69 316.33 253.69 316.08C245.731 315.56 237.751 315.44 229.78 315.72C229.03 315.72 228.29 315.79 227.54 315.84C227.379 315.794 227.215 315.757 227.05 315.73C226.67 315.64 226.28 315.55 225.9 315.49C225.17 315.37 224.45 315.28 223.72 315.18C222.21 314.98 220.72 314.85 219.19 314.6C219.1 314.6 219.06 314.73 219.19 314.74C220.71 315.05 222.19 315.45 223.72 315.74L225.03 315.99C222.11 316.2 219.2 316.49 216.29 316.82C216.2 316.82 216.2 316.97 216.29 316.96C220.29 316.64 224.29 316.53 228.23 316.52C232.17 316.51 236.12 316.52 240.07 316.65C248.07 316.94 256.07 317.49 263.99 318.16C268.45 318.53 272.93 318.99 277.41 319.08C277.85 319.1 277.94 318.39 277.5 318.32Z" fill="#263238"/>
<path d="M313.77 357.85C312.3 355.6 311.03 353.19 309.68 350.85L305.6 343.85C302.88 339.2 293.14 323.58 292.19 322.49C292.13 322.42 292.01 322.49 292.04 322.59C292.51 323.8 298.6 334.15 300.04 336.46C302.84 341.07 305.78 345.59 308.67 350.14C309.5 351.44 310.35 352.73 311.19 354.02C312.03 355.31 312.92 356.58 313.69 357.91C313.66 358.01 313.77 357.94 313.77 357.85Z" fill="#263238"/>
<path d="M182.94 372.11C183.59 369.96 219.94 319.19 222.49 318.16C222.78 318.03 239.94 329.56 239.94 329.56C240.66 330.47 272.49 322.86 272.49 322.86L273.83 361.47L215.49 361.77C215.49 361.77 207.74 366.61 200.63 370.58C197.613 372.387 194.487 374.007 191.27 375.43C188.35 376.26 182.28 374.25 182.94 372.11Z" fill="#EB9481"/>
<path d="M191.25 375.43C194.465 374.011 197.588 372.391 200.6 370.58C207.7 366.58 215.46 361.77 215.46 361.77L228.46 361.71L247.91 328.38C243.47 329.29 240.16 329.85 239.91 329.56C239.91 329.56 222.75 318.02 222.46 318.16C219.91 319.16 183.56 369.96 182.91 372.11C182.26 374.26 188.35 376.26 191.25 375.43Z" fill="white"/>
<path d="M182.6 372.19C183.28 369.99 219.81 319.19 222.42 318.19C223.42 317.78 231.79 322.65 239.94 329.57L216.35 362.27C216.35 362.27 194.13 374.81 191.13 375.66C188.13 376.51 181.92 374.39 182.6 372.19Z" fill="#1FCB64"/>
<path d="M185.16 372.94C191.49 364.58 216.23 330.28 221.86 321.53C221.86 321.46 221.86 321.43 221.8 321.53C215.35 329.67 190.88 364.18 185.02 372.87C184.89 373 185.02 373.1 185.16 372.94Z" fill="#263238"/>
<path d="M195.31 373.7C196.014 372.77 196.519 371.705 196.79 370.571C197.062 369.436 197.096 368.258 196.89 367.11C196.553 365.05 195.436 363.198 193.77 361.94C193.77 361.94 193.65 362 193.69 362.05C195.168 363.549 196.119 365.488 196.401 367.575C196.682 369.661 196.278 371.783 195.25 373.62C195.249 373.629 195.249 373.639 195.251 373.648C195.254 373.657 195.258 373.665 195.263 373.673C195.269 373.68 195.276 373.686 195.284 373.691C195.292 373.696 195.301 373.699 195.31 373.7Z" fill="#263238"/>
<path d="M213.58 364.31C216.08 360.94 217.72 356.13 216.45 352.01C216.45 351.85 216.18 351.92 216.16 352.06C215.591 356.155 214.585 360.178 213.16 364.06C213.15 364.112 213.156 364.167 213.178 364.215C213.2 364.264 213.237 364.305 213.282 364.332C213.328 364.359 213.381 364.372 213.435 364.368C213.488 364.364 213.539 364.344 213.58 364.31Z" fill="#263238"/>
<path d="M210.66 366.2C213.16 362.83 214.8 358.02 213.54 353.9C213.54 353.74 213.26 353.81 213.24 353.95C212.671 358.045 211.665 362.068 210.24 365.95C210.23 366.002 210.236 366.057 210.258 366.105C210.28 366.154 210.317 366.195 210.362 366.222C210.408 366.249 210.461 366.262 210.515 366.258C210.568 366.254 210.619 366.234 210.66 366.2Z" fill="#263238"/>
<path d="M207.77 368.09C210.26 364.72 211.9 359.91 210.64 355.79C210.59 355.63 210.37 355.7 210.35 355.79C209.776 359.885 208.771 363.907 207.35 367.79C207.32 367.846 207.311 367.911 207.325 367.973C207.339 368.034 207.376 368.089 207.427 368.126C207.479 368.163 207.542 368.179 207.605 368.173C207.669 368.166 207.727 368.137 207.77 368.09Z" fill="#263238"/>
<path d="M204.83 369.99C207.33 366.61 208.97 361.8 207.7 357.68C207.7 357.52 207.43 357.59 207.41 357.73C206.841 361.825 205.835 365.848 204.41 369.73C204.397 369.783 204.401 369.839 204.422 369.89C204.443 369.94 204.479 369.983 204.526 370.012C204.572 370.041 204.627 370.054 204.682 370.05C204.736 370.046 204.788 370.025 204.83 369.99Z" fill="#263238"/>
<path d="M228.38 329.5C231.12 325.67 225.17 321.41 222.43 325.24C219.69 329.07 225.63 333.33 228.38 329.5Z" fill="#263238"/>
<path d="M220.02 374.53C222.69 373.84 222.85 370.66 222.13 368.53C220.831 364.894 218.596 361.666 215.65 359.17C215.58 359.11 215.52 359.17 215.48 359.17C215.405 359.138 215.325 359.125 215.244 359.13C215.163 359.135 215.085 359.159 215.015 359.199C214.945 359.24 214.885 359.297 214.841 359.365C214.797 359.432 214.769 359.51 214.76 359.59C214.7 363.22 214.17 367.09 215.22 370.64C215.83 372.74 217.49 375.19 220.02 374.53ZM215.77 365.14C215.77 363.36 215.83 361.58 215.77 359.8C217.085 361.585 218.307 363.438 219.43 365.35C219.964 366.281 220.435 367.246 220.84 368.24C221.43 369.79 221.84 375.18 217.92 372.86C215.77 371.57 215.77 367.27 215.77 365.14Z" fill="#263238"/>
<path d="M220.48 349.8C217.89 352.44 216.53 356.1 214.89 359.34C214.86 359.415 214.848 359.496 214.855 359.576C214.862 359.657 214.888 359.734 214.931 359.802C214.974 359.871 215.033 359.928 215.102 359.969C215.171 360.011 215.249 360.035 215.33 360.04C215.328 360.057 215.33 360.074 215.336 360.091C215.342 360.107 215.352 360.121 215.365 360.133C215.377 360.144 215.393 360.153 215.409 360.158C215.426 360.162 215.443 360.163 215.46 360.16C219.232 359.336 222.722 357.536 225.58 354.94C227.21 353.4 228.58 350.52 226.53 348.65C224.48 346.78 221.99 348.26 220.48 349.8ZM223.9 349.14C228.48 348.94 225.56 353.49 224.31 354.58C223.487 355.271 222.618 355.906 221.71 356.48C219.818 357.637 217.869 358.699 215.87 359.66C216.77 358.12 217.54 356.51 218.39 354.94C219.4 353.07 221.37 349.25 223.9 349.14Z" fill="#263238"/>
<path d="M273.94 310.94L300.11 310.25C300.11 310.25 327.11 296.36 349.33 301.08C374.77 306.48 378.85 338.15 360.25 349.88C336.69 364.74 230.08 364.81 230.08 364.81L252.08 325.17C252.08 325.17 287.31 316.77 319.47 317L274.3 324.38L273.94 310.94Z" fill="#37474F"/>
<path d="M250.6 327.76C250.626 327.696 250.643 327.629 250.65 327.56V327.39L250.74 327.01C250.81 326.75 250.9 326.5 250.99 326.24C251.08 325.98 251.19 325.74 251.29 325.49C251.412 325.246 251.553 325.012 251.71 324.79C251.71 324.79 251.71 324.79 251.77 324.74H251.88C255.76 323.91 282.13 319.42 286.06 318.87C289.99 318.32 293.98 317.87 297.96 317.4C305.883 316.5 313.847 316 321.82 315.9C322.57 315.9 323.32 315.9 324.07 315.9C324.227 315.846 324.387 315.803 324.55 315.77C324.93 315.67 325.31 315.56 325.69 315.48C326.41 315.32 327.13 315.19 327.85 315.06C329.35 314.79 330.85 314.59 332.35 314.27C332.44 314.27 332.48 314.39 332.35 314.41C330.85 314.79 329.35 315.26 327.88 315.63L326.58 315.94C329.51 316.02 332.43 316.17 335.36 316.36C335.379 316.36 335.396 316.367 335.41 316.38C335.423 316.394 335.43 316.411 335.43 316.43C335.43 316.449 335.423 316.466 335.41 316.479C335.396 316.493 335.379 316.5 335.36 316.5C331.36 316.37 327.36 316.45 323.41 316.62C319.46 316.79 315.53 316.98 311.59 317.32C303.59 317.98 295.69 318.91 287.77 319.95C283.33 320.54 256.44 325.19 251.97 325.5H251.91C251.882 325.606 251.845 325.71 251.8 325.81L251.44 326.54C251.32 326.77 251.2 327 251.06 327.23L250.85 327.56L250.74 327.72C250.74 327.77 250.64 327.84 250.63 327.89C250.62 327.94 250.55 327.85 250.6 327.76Z" fill="#263238"/>
<path d="M238.32 362.25C239.69 359.93 240.84 357.47 242.08 355.08L245.82 347.9C248.32 343.13 257.31 327.06 258.21 325.9C258.26 325.83 258.39 325.9 258.36 325.99C257.95 327.23 252.36 337.85 251.07 340.22C248.49 344.96 245.77 349.62 243.07 354.3C242.31 355.64 241.51 356.96 240.74 358.3C239.97 359.64 239.14 360.94 238.43 362.3C238.431 362.312 238.429 362.325 238.424 362.336C238.419 362.347 238.411 362.357 238.401 362.364C238.391 362.371 238.38 362.376 238.367 362.377C238.355 362.378 238.343 362.376 238.331 362.371C238.32 362.366 238.311 362.358 238.303 362.348C238.296 362.338 238.292 362.326 238.291 362.314C238.29 362.301 238.292 362.289 238.297 362.278C238.302 362.267 238.31 362.257 238.32 362.25Z" fill="#263238"/>
<path d="M326.38 204.82L320.87 234.65C320.61 235.53 321.09 236.21 321.94 236.15L337.09 235.15C337.549 235.083 337.981 234.888 338.335 234.588C338.688 234.287 338.95 233.893 339.09 233.45L344.6 203.62C344.86 202.74 344.38 202.07 343.53 202.12L328.39 203.12C327.929 203.186 327.496 203.381 327.141 203.681C326.785 203.982 326.522 204.377 326.38 204.82Z" fill="#37474F"/>
<path d="M328.18 204.69L322.67 234.52C322.41 235.4 322.89 236.08 323.73 236.02L338.88 235.02C339.34 234.954 339.772 234.76 340.126 234.459C340.48 234.158 340.741 233.763 340.88 233.32L346.4 203.49C346.66 202.61 346.18 201.93 345.33 201.99L330.18 202.99C329.721 203.058 329.29 203.253 328.937 203.554C328.583 203.854 328.321 204.248 328.18 204.69Z" fill="#455A64"/>
<path d="M332.42 205.76C332.432 206.015 332.367 206.268 332.235 206.487C332.103 206.705 331.909 206.88 331.677 206.988C331.446 207.096 331.187 207.133 330.935 207.094C330.682 207.055 330.447 206.942 330.259 206.769C330.071 206.597 329.938 206.372 329.878 206.124C329.818 205.875 329.832 205.615 329.92 205.375C330.008 205.135 330.165 204.927 330.372 204.776C330.578 204.626 330.825 204.54 331.08 204.53C331.421 204.516 331.753 204.638 332.004 204.869C332.255 205.099 332.404 205.42 332.42 205.76Z" fill="#263238"/>
<path d="M280.4 252.41C289.99 270.2 310.56 292.86 318.54 292.52C322.33 292.36 329.15 292.89 333.88 288.26C344.21 278.16 352.28 259.47 353.56 248.96C354.01 245.23 335.56 238.2 333.07 241.36C327.23 248.77 320.76 263.02 319.65 263C315.55 262.91 298.87 250.51 287.22 241.78C273.08 231.17 276.58 245.32 280.4 252.41Z" fill="#EB9481"/>
<path d="M352.94 229.81C350.62 222.4 348.89 220.81 350.25 213.56C351.14 208.77 348.47 206.15 345.33 210.12C340.2 216.62 341.19 226.81 342.55 230.25L352.94 229.81Z" fill="#EB9481"/>
<path d="M352.86 252.24C352.86 252.24 355.63 241.58 353.94 233.44C352.77 227.81 348.86 215.84 332.61 210.31C328.75 209 322.33 209.87 327.85 214.31C331.77 217.46 335.2 218.31 337.15 220.52C337.15 220.52 329.15 222.58 327.95 226.52C326.931 229.933 326.159 233.416 325.64 236.94C326.263 237.182 326.901 237.382 327.55 237.54C327.55 237.54 326.55 241.24 329.55 246.24L352.86 252.24Z" fill="#EB9481"/>
<path d="M351.96 228.24C349.56 226.42 344.4 222.65 339.11 221.03C333.23 219.24 321.43 217.36 320.11 221.71C319.17 224.91 323.61 226.02 323.61 226.02C323.61 226.02 318.61 226.27 318.35 229.34C318.15 232.14 321.64 232.79 321.64 232.79C321.64 232.79 318.64 233.47 318.94 236.2C319.33 239.48 325.62 237.52 328.94 240.5C329.67 241.17 351.96 228.24 351.96 228.24Z" fill="#EB9481"/>
<path d="M338.25 227.56C333.699 225.565 328.649 225 323.77 225.94C323.65 225.94 323.61 226.08 323.72 226.07C328.612 225.998 333.495 226.522 338.26 227.63L338.25 227.56Z" fill="#263238"/>
<path d="M336.26 233.44C333.95 232.51 327.13 231.2 321.69 232.68C321.56 232.68 321.53 232.82 321.69 232.81C326.567 232.487 331.465 232.718 336.29 233.5L336.26 233.44Z" fill="#263238"/>
<path d="M354.15 256.58C354.15 256.58 340.98 286.53 332.59 290.37C324.2 294.21 319.02 293.75 315.81 293.44C314.562 293.219 313.378 292.728 312.34 292C303.34 286.3 286.68 265.31 279.72 253.38C274.5 244.38 274.57 236.03 281.86 238.33C284.334 239.23 286.642 240.535 288.69 242.19C302.43 252.48 318.26 262.13 318.97 261.71C319.68 261.29 326.57 248.91 326.57 248.91L354.15 256.58Z" fill="#1FCB64"/>
<path d="M320.17 267.94C320.077 268.603 320.077 269.277 320.17 269.94C320.268 270.633 320.47 271.307 320.77 271.94C320.868 271.277 320.868 270.603 320.77 269.94C320.672 269.247 320.47 268.573 320.17 267.94Z" fill="white"/>
<path d="M337.36 275.39C337.267 276.053 337.267 276.727 337.36 277.39C337.452 278.058 337.633 278.711 337.9 279.33C337.999 278.667 337.999 277.993 337.9 277.33C337.817 276.66 337.635 276.007 337.36 275.39Z" fill="white"/>
<path d="M307.06 282.62C306.967 283.283 306.967 283.957 307.06 284.62C307.142 285.29 307.324 285.944 307.6 286.56C307.693 285.897 307.693 285.223 307.6 284.56C307.507 283.892 307.325 283.24 307.06 282.62Z" fill="white"/>
<path d="M298.77 253.2C298.601 254.559 298.794 255.939 299.33 257.2C299.423 256.537 299.423 255.863 299.33 255.2C299.237 254.511 299.049 253.837 298.77 253.2Z" fill="white"/>
<path d="M296.05 265.25C296.713 265.343 297.387 265.343 298.05 265.25C298.72 265.168 299.374 264.986 299.99 264.71C299.327 264.617 298.653 264.617 297.99 264.71C297.322 264.803 296.67 264.985 296.05 265.25Z" fill="white"/>
<path d="M331.13 268.74C331.793 268.833 332.467 268.833 333.13 268.74C333.798 268.648 334.451 268.467 335.07 268.2C334.407 268.101 333.733 268.101 333.07 268.2C332.4 268.283 331.746 268.465 331.13 268.74Z" fill="white"/>
<path d="M313.31 279.26C313.973 279.353 314.647 279.353 315.31 279.26C315.98 279.178 316.634 278.996 317.25 278.72C315.89 278.559 314.511 278.756 313.25 279.29L313.31 279.26Z" fill="white"/>
<path d="M347.2 258.41C347.863 258.503 348.537 258.503 349.2 258.41C349.87 258.328 350.524 258.146 351.14 257.87C349.78 257.709 348.401 257.906 347.14 258.44L347.2 258.41Z" fill="white"/>
<path d="M329.84 289.07C330.503 289.163 331.177 289.163 331.84 289.07C332.51 288.988 333.164 288.806 333.78 288.53C333.117 288.431 332.443 288.431 331.78 288.53C331.11 288.613 330.456 288.795 329.84 289.07Z" fill="white"/>
<path d="M278.28 239.32C277.728 239.564 277.147 239.732 276.55 239.82C276.635 239.628 276.742 239.447 276.87 239.28C277.34 239.234 277.814 239.247 278.28 239.32Z" fill="white"/>
<path d="M311.62 260.63C311.086 261.043 310.612 261.528 310.21 262.07C309.795 262.607 309.459 263.199 309.21 263.83C310.278 262.993 311.105 261.889 311.61 260.63H311.62Z" fill="white"/>
<path d="M328.11 277.37C327.574 277.784 327.099 278.272 326.7 278.82C326.288 279.355 325.951 279.943 325.7 280.57C326.236 280.159 326.711 279.674 327.11 279.13C327.525 278.593 327.861 278.001 328.11 277.37Z" fill="white"/>
<path d="M337.48 255.18C336.944 255.591 336.469 256.076 336.07 256.62C335.655 257.157 335.319 257.749 335.07 258.38C335.606 257.966 336.081 257.478 336.48 256.93C336.892 256.395 337.229 255.807 337.48 255.18Z" fill="white"/>
<path d="M301.21 275.28C300.676 275.697 300.202 276.185 299.8 276.73C299.388 277.265 299.051 277.853 298.8 278.48C299.336 278.069 299.811 277.584 300.21 277.04C300.628 276.506 300.965 275.913 301.21 275.28Z" fill="white"/>
<path d="M288.77 247.12C288.234 247.531 287.759 248.016 287.36 248.56C286.942 249.094 286.605 249.687 286.36 250.32C287.428 249.483 288.255 248.379 288.76 247.12H288.77Z" fill="white"/>
<path d="M288 260.94C287.586 260.404 287.098 259.929 286.55 259.53C286.018 259.114 285.428 258.777 284.8 258.53C285.205 259.071 285.691 259.546 286.24 259.94C286.774 260.358 287.367 260.695 288 260.94Z" fill="white"/>
<path d="M346.27 267.48C345.857 266.946 345.372 266.472 344.83 266.07C344.293 265.655 343.701 265.319 343.07 265.07C343.483 265.604 343.968 266.078 344.51 266.48C345.047 266.895 345.639 267.231 346.27 267.48Z" fill="white"/>
<path d="M328.34 262.09C327.927 261.556 327.442 261.082 326.9 260.68C326.366 260.262 325.773 259.925 325.14 259.68C325.977 260.748 327.081 261.575 328.34 262.08V262.09Z" fill="white"/>
<path d="M308.59 273.15C308.182 272.612 307.697 272.137 307.15 271.74C306.618 271.318 306.025 270.981 305.39 270.74C305.807 271.274 306.295 271.748 306.84 272.15C307.375 272.562 307.963 272.899 308.59 273.15Z" fill="white"/>
<path d="M320.47 289.64C320.059 289.104 319.574 288.629 319.03 288.23C318.493 287.815 317.901 287.479 317.27 287.23C317.684 287.766 318.172 288.241 318.72 288.64C319.255 289.052 319.843 289.389 320.47 289.64Z" fill="white"/>
<path d="M312.34 292C303.34 286.3 286.68 265.31 279.72 253.38C274.5 244.38 274.57 236.03 281.86 238.33C285.91 245.38 303.59 276.22 312.34 292Z" fill="#263238"/>
<path d="M350.77 262.09C349.77 261.6 340.31 258.5 338.24 257.87C336.17 257.24 327.75 254.6 325.56 254.13C325.551 254.127 325.541 254.125 325.531 254.126C325.522 254.126 325.512 254.129 325.503 254.133C325.494 254.137 325.486 254.143 325.48 254.15C325.473 254.157 325.468 254.166 325.465 254.175C325.462 254.184 325.46 254.194 325.461 254.204C325.461 254.213 325.464 254.223 325.468 254.232C325.472 254.241 325.478 254.249 325.485 254.255C325.492 254.262 325.501 254.267 325.51 254.27C327.57 255.14 336.06 257.84 338.16 258.52C340.26 259.2 349.67 262.06 350.74 262.23C350.85 262.24 350.86 262.12 350.77 262.09Z" fill="#263238"/>
<path d="M302.82 311.77C301.87 312.77 240.7 314.77 240.39 314.39C239.54 313.39 247.07 274.45 253.33 259.55C261.33 240.45 265.93 238.69 268.67 237.55C272.16 236.07 278.55 236.35 280.1 236.98C281.86 237.68 289.54 246.13 291.88 252.98C296.58 266.76 303.65 310.86 302.82 311.77Z" fill="#1FCB64"/>
<path d="M275.88 248.48C275.719 249.84 275.916 251.219 276.45 252.48C276.544 251.817 276.544 251.143 276.45 250.48C276.363 249.788 276.171 249.114 275.88 248.48Z" fill="white"/>
<path d="M276.4 277.68C276.231 279.039 276.424 280.419 276.96 281.68C277.053 281.017 277.053 280.343 276.96 279.68C276.867 278.991 276.679 278.317 276.4 277.68Z" fill="white"/>
<path d="M241.62 308.22C241.462 309.58 241.658 310.958 242.19 312.22C242.283 311.557 242.283 310.883 242.19 310.22C242.102 309.528 241.91 308.854 241.62 308.22Z" fill="white"/>
<path d="M266.68 309.43C266.586 310.093 266.586 310.767 266.68 311.43C266.771 312.103 266.956 312.759 267.23 313.38C267.323 312.717 267.323 312.043 267.23 311.38C267.146 310.706 266.96 310.049 266.68 309.43Z" fill="white"/>
<path d="M287.31 295.94C287.217 296.603 287.217 297.277 287.31 297.94C287.392 298.61 287.574 299.264 287.85 299.88C287.944 299.217 287.944 298.543 287.85 297.88C287.762 297.211 287.58 296.558 287.31 295.94Z" fill="white"/>
<path d="M257.89 265.94C257.797 266.603 257.797 267.277 257.89 267.94C257.972 268.61 258.154 269.264 258.43 269.88C258.529 269.217 258.529 268.543 258.43 267.88C258.347 267.21 258.165 266.556 257.89 265.94Z" fill="white"/>
<path d="M254.93 291.66C254.837 292.323 254.837 292.997 254.93 293.66C255.022 294.328 255.203 294.981 255.47 295.6C255.641 294.241 255.448 292.86 254.91 291.6L254.93 291.66Z" fill="white"/>
<path d="M291.68 271.28C291.587 271.943 291.587 272.617 291.68 273.28C291.772 273.948 291.953 274.601 292.22 275.22C292.319 274.557 292.319 273.883 292.22 273.22C292.137 272.55 291.955 271.896 291.68 271.28Z" fill="white"/>
<path d="M269.96 260.83C270.623 260.924 271.297 260.924 271.96 260.83C272.633 260.748 273.29 260.566 273.91 260.29C272.55 260.116 271.167 260.313 269.91 260.86L269.96 260.83Z" fill="white"/>
<path d="M255.21 280.09C256.57 280.251 257.949 280.054 259.21 279.52C258.547 279.426 257.873 279.426 257.21 279.52C256.518 279.607 255.844 279.799 255.21 280.09Z" fill="white"/>
<path d="M278.56 291.01C279.223 291.103 279.897 291.103 280.56 291.01C281.229 290.923 281.882 290.741 282.5 290.47C281.837 290.377 281.163 290.377 280.5 290.47C279.832 290.562 279.179 290.743 278.56 291.01Z" fill="white"/>
<path d="M261.23 303.39C261.893 303.483 262.567 303.483 263.23 303.39C263.898 303.298 264.551 303.117 265.17 302.85C264.507 302.757 263.833 302.757 263.17 302.85C262.502 302.943 261.85 303.125 261.23 303.39Z" fill="white"/>
<path d="M295.4 303.05C296.063 303.143 296.737 303.143 297.4 303.05C298.07 302.968 298.724 302.786 299.34 302.51C298.677 302.411 298.003 302.411 297.34 302.51C296.67 302.593 296.016 302.775 295.4 303.05Z" fill="white"/>
<path d="M274.32 239.88C274.983 239.974 275.657 239.974 276.32 239.88C276.991 239.788 277.647 239.607 278.27 239.34C277.607 239.247 276.933 239.247 276.27 239.34C275.598 239.426 274.941 239.608 274.32 239.88Z" fill="white"/>
<path d="M268.17 245.03C267.629 245.442 267.15 245.93 266.75 246.48C266.336 247.013 265.999 247.602 265.75 248.23C266.288 247.822 266.763 247.337 267.16 246.79C267.578 246.254 267.918 245.661 268.17 245.03Z" fill="white"/>
<path d="M282.43 266.86C281.363 267.7 280.533 268.803 280.02 270.06C280.561 269.651 281.036 269.162 281.43 268.61C281.846 268.078 282.183 267.489 282.43 266.86Z" fill="white"/>
<path d="M296.6 288.78C296.066 289.197 295.592 289.685 295.19 290.23C294.775 290.767 294.439 291.359 294.19 291.99C294.726 291.576 295.201 291.088 295.6 290.54C296.018 290.006 296.355 289.413 296.6 288.78Z" fill="white"/>
<path d="M280.84 305.45C280.304 305.861 279.829 306.345 279.43 306.89C279.012 307.424 278.675 308.017 278.43 308.65C278.971 308.245 279.446 307.759 279.84 307.21C280.258 306.676 280.595 306.083 280.84 305.45Z" fill="white"/>
<path d="M248.21 300.25C247.671 300.661 247.196 301.15 246.8 301.7C246.384 302.232 246.047 302.822 245.8 303.45C246.341 303.045 246.816 302.559 247.21 302.01C247.628 301.476 247.965 300.883 248.21 300.25Z" fill="white"/>
<path d="M266.96 284.78C266.426 285.193 265.952 285.678 265.55 286.22C265.135 286.757 264.799 287.349 264.55 287.98C265.084 287.567 265.558 287.082 265.96 286.54C266.376 286.004 266.713 285.412 266.96 284.78Z" fill="white"/>
<path d="M288.77 247.12C288.234 247.531 287.759 248.016 287.36 248.56C286.942 249.094 286.605 249.687 286.36 250.32C287.428 249.483 288.255 248.379 288.76 247.12H288.77Z" fill="white"/>
<path d="M288 260.94C287.586 260.404 287.098 259.929 286.55 259.53C286.018 259.114 285.428 258.777 284.8 258.53C285.205 259.071 285.691 259.546 286.24 259.94C286.774 260.358 287.367 260.695 288 260.94Z" fill="white"/>
<path d="M247.83 284.6C247.229 284.367 246.663 284.051 246.15 283.66L246.27 283.11L246.38 283.19C246.928 283.589 247.416 284.064 247.83 284.6Z" fill="white"/>
<path d="M290.05 284.13C289.639 283.594 289.154 283.119 288.61 282.72C288.073 282.305 287.481 281.969 286.85 281.72C287.264 282.256 287.752 282.731 288.3 283.13C288.835 283.542 289.423 283.879 290.05 284.13Z" fill="white"/>
<path d="M292.39 312.61C291.973 312.076 291.485 311.602 290.94 311.2C290.406 310.782 289.813 310.445 289.18 310.2C289.597 310.734 290.085 311.208 290.63 311.61C291.167 312.025 291.759 312.361 292.39 312.61Z" fill="white"/>
<path d="M261.23 256.38C260.815 255.832 260.324 255.347 259.77 254.94C259.236 254.522 258.642 254.185 258.01 253.94C258.418 254.478 258.903 254.953 259.45 255.35C259.99 255.778 260.59 256.125 261.23 256.38Z" fill="white"/>
<path d="M273.54 297.94C273.126 297.404 272.638 296.929 272.09 296.53C271.555 296.118 270.967 295.781 270.34 295.53C270.748 296.065 271.229 296.54 271.77 296.94C272.31 297.355 272.906 297.692 273.54 297.94Z" fill="white"/>
<path d="M255.67 311.41C255.259 310.874 254.775 310.399 254.23 310C253.696 309.582 253.103 309.245 252.47 309C252.878 309.538 253.363 310.013 253.91 310.41C254.446 310.826 255.039 311.162 255.67 311.41Z" fill="white"/>
<path d="M269.88 272.37C269.467 271.836 268.982 271.362 268.44 270.96C267.906 270.542 267.313 270.205 266.68 269.96C267.093 270.494 267.578 270.968 268.12 271.37C268.657 271.785 269.249 272.121 269.88 272.37Z" fill="white"/>
<path d="M258.58 242.78C232.39 262.86 209.84 290.59 212.11 299.28C214.51 308.46 232.85 318.6 248.97 320.55C252.27 320.95 262.25 296.67 258.86 295.55C256.22 294.71 244.22 291.42 242.77 289.79C241.77 288.66 260.09 262.35 266 248.65C272.19 234.36 265.59 237.41 258.58 242.78Z" fill="#EB9481"/>
<path d="M252.05 294.94C252.05 294.94 262.13 295.85 268.69 296.76C272.35 297.27 278.55 298.7 281.07 300.3C284.83 302.7 299.07 315.14 296.12 318.65C293.46 321.83 289.35 316.87 289.35 316.87C289.35 316.87 294.35 321.87 290.74 324.21C287.13 326.55 282.37 319.6 282.37 319.6C282.37 319.6 288.05 324.53 283.96 326.67C280.4 328.52 274.09 321.08 274.09 321.08C274.09 321.08 280.62 325.6 277.16 327.86C273.35 330.35 262.48 320.38 262.48 320.38C253.87 321.38 248.56 320.89 242.48 319.24C241.36 318.94 252.05 294.94 252.05 294.94Z" fill="#EB9481"/>
<path d="M283.9 321.25C283.51 320.72 283.1 320.2 282.7 319.67C281.954 318.617 281.138 317.615 280.26 316.67C279.4 315.75 278.5 314.88 277.56 314.04C276.62 313.2 275.5 312.35 274.56 311.43C274.553 311.423 274.544 311.418 274.535 311.415C274.526 311.412 274.516 311.41 274.506 311.411C274.497 311.411 274.487 311.414 274.478 311.418C274.469 311.422 274.462 311.428 274.455 311.435C274.448 311.442 274.443 311.451 274.44 311.46C274.437 311.469 274.435 311.479 274.436 311.489C274.436 311.498 274.439 311.508 274.443 311.517C274.447 311.526 274.453 311.533 274.46 311.54C275.422 312.435 276.33 313.387 277.18 314.39C278.05 315.34 278.9 316.3 279.76 317.26C280.62 318.22 281.49 319.07 282.35 319.99C282.78 320.44 283.19 320.92 283.6 321.39C283.959 321.866 284.357 322.31 284.79 322.72C284.84 322.72 284.89 322.72 284.87 322.65C284.596 322.151 284.271 321.682 283.9 321.25Z" fill="#263238"/>
<path d="M290.37 317.94C289.036 315.954 287.566 314.063 285.97 312.28C284.346 310.51 282.551 308.906 280.61 307.49C280.603 307.483 280.594 307.478 280.585 307.475C280.576 307.472 280.566 307.47 280.556 307.471C280.547 307.471 280.537 307.474 280.528 307.478C280.52 307.482 280.512 307.488 280.505 307.495C280.498 307.502 280.493 307.511 280.49 307.52C280.487 307.529 280.485 307.539 280.486 307.549C280.486 307.558 280.489 307.568 280.493 307.577C280.497 307.586 280.503 307.593 280.51 307.6C282.13 309.37 283.78 311.12 285.42 312.88C286.22 313.73 289.75 317.74 290.18 318.11C290.28 318.17 290.42 318.02 290.37 317.94Z" fill="#263238"/>
<path d="M277.9 324.54C276.607 322.699 275.194 320.945 273.67 319.29C271.958 317.747 270.137 316.329 268.22 315.05C268.15 315.05 268.06 315.11 268.12 315.16C269.82 316.71 271.55 318.22 273.12 319.84C273.92 320.64 276.89 323.98 277.71 324.67C277.727 324.695 277.754 324.713 277.784 324.718C277.814 324.724 277.845 324.717 277.87 324.7C277.895 324.683 277.913 324.656 277.918 324.626C277.924 324.596 277.917 324.565 277.9 324.54Z" fill="#263238"/>
<path d="M259.96 294.58L245.86 321.53C245.86 321.53 214.09 313.14 211.35 298.75C208.61 284.36 245.01 251.28 256.24 243.46C267.47 235.64 274.32 234.59 265.46 252.4C256.6 270.21 242.89 288.53 244.01 289.45C244.96 290.22 259.96 294.58 259.96 294.58Z" fill="#1FCB64"/>
<path d="M237.6 274.94C237.507 275.603 237.507 276.277 237.6 276.94C237.684 277.613 237.866 278.27 238.14 278.89C238.233 278.227 238.233 277.553 238.14 276.89C238.047 276.219 237.865 275.563 237.6 274.94Z" fill="white"/>
<path d="M241.62 308.22C241.462 309.58 241.658 310.958 242.19 312.22C242.283 311.557 242.283 310.883 242.19 310.22C242.102 309.528 241.91 308.854 241.62 308.22Z" fill="white"/>
<path d="M225.22 292C225.127 292.663 225.127 293.337 225.22 294C225.307 294.67 225.492 295.324 225.77 295.94C225.868 295.277 225.868 294.603 225.77 293.94C225.682 293.27 225.497 292.616 225.22 292Z" fill="white"/>
<path d="M257.93 266.05L257.87 266.15C257.865 266.083 257.865 266.017 257.87 265.95C257.895 265.98 257.915 266.014 257.93 266.05Z" fill="white"/>
<path d="M250.31 248.34C250.149 249.7 250.346 251.079 250.88 252.34C250.973 251.677 250.973 251.003 250.88 250.34C250.794 249.648 250.602 248.973 250.31 248.34Z" fill="white"/>
<path d="M255.49 295.62C255.223 295.001 255.042 294.348 254.95 293.68C254.95 293.48 254.93 293.28 254.89 293.08L255.4 293.23C255.4 293.35 255.45 293.48 255.47 293.6C255.572 294.269 255.578 294.949 255.49 295.62Z" fill="white"/>
<path d="M257.47 242.7C258.133 242.794 258.807 242.794 259.47 242.7C260.158 242.613 260.831 242.431 261.47 242.16C260.111 241.989 258.73 242.182 257.47 242.72V242.7Z" fill="white"/>
<path d="M224.4 276.82C225.063 276.913 225.737 276.913 226.4 276.82C227.07 276.738 227.724 276.556 228.34 276.28C227.677 276.187 227.003 276.187 226.34 276.28C225.672 276.372 225.019 276.553 224.4 276.82Z" fill="white"/>
<path d="M238.38 293.94C239.043 294.034 239.717 294.034 240.38 293.94C241.053 293.858 241.71 293.676 242.33 293.4C241.667 293.307 240.993 293.307 240.33 293.4C239.659 293.491 239.003 293.673 238.38 293.94Z" fill="white"/>
<path d="M230.08 313.62C230.743 313.714 231.417 313.714 232.08 313.62C232.753 313.538 233.41 313.356 234.03 313.08C232.67 312.919 231.291 313.116 230.03 313.65L230.08 313.62Z" fill="white"/>
<path d="M214.91 299.94C215.573 300.033 216.247 300.033 216.91 299.94C217.58 299.858 218.234 299.676 218.85 299.4C217.49 299.239 216.111 299.436 214.85 299.97L214.91 299.94Z" fill="white"/>
<path d="M244.25 259.51C244.913 259.604 245.587 259.604 246.25 259.51C246.923 259.428 247.58 259.246 248.2 258.97C246.84 258.809 245.461 259.006 244.2 259.54L244.25 259.51Z" fill="white"/>
<path d="M268.17 245.03C267.629 245.442 267.15 245.93 266.75 246.48C266.336 247.013 265.999 247.602 265.75 248.23C266.288 247.822 266.763 247.337 267.16 246.79C267.578 246.254 267.918 245.661 268.17 245.03Z" fill="white"/>
<path d="M248.21 268.31C247.671 268.721 247.196 269.21 246.8 269.76C246.384 270.292 246.047 270.882 245.8 271.51C246.341 271.105 246.816 270.619 247.21 270.07C247.628 269.536 247.965 268.943 248.21 268.31Z" fill="white"/>
<path d="M248.21 300.25C247.671 300.661 247.196 301.15 246.8 301.7C246.384 302.232 246.047 302.822 245.8 303.45C246.341 303.045 246.816 302.559 247.21 302.01C247.628 301.476 247.965 300.883 248.21 300.25Z" fill="white"/>
<path d="M227.4 304.56C226.333 305.4 225.503 306.503 224.99 307.76C225.531 307.351 226.006 306.862 226.4 306.31C226.816 305.778 227.153 305.189 227.4 304.56Z" fill="white"/>
<path d="M232.48 284.13C231.946 284.543 231.472 285.028 231.07 285.57C230.654 286.106 230.317 286.698 230.07 287.33C230.606 286.919 231.081 286.434 231.48 285.89C231.895 285.353 232.231 284.761 232.48 284.13Z" fill="white"/>
<path d="M247 317.06C245.938 317.902 245.111 319.005 244.6 320.26C245.668 319.423 246.495 318.319 247 317.06Z" fill="white"/>
<path d="M246.94 283.65L246.71 284.03C246.49 283.9 246.28 283.75 246.07 283.6C245.526 283.201 245.041 282.726 244.63 282.19C245.257 282.441 245.845 282.778 246.38 283.19C246.57 283.34 246.77 283.49 246.94 283.65Z" fill="white"/>
<path d="M219.45 288.53C219.037 287.996 218.552 287.522 218.01 287.12C217.473 286.705 216.881 286.369 216.25 286.12C216.661 286.656 217.146 287.131 217.69 287.53C218.227 287.945 218.819 288.281 219.45 288.53Z" fill="white"/>
<path d="M236.77 303.62C236.359 303.084 235.874 302.609 235.33 302.21C234.793 301.795 234.201 301.459 233.57 301.21C233.984 301.746 234.472 302.221 235.02 302.62C235.555 303.032 236.143 303.369 236.77 303.62Z" fill="white"/>
<path d="M261.23 256.38C260.815 255.832 260.324 255.347 259.77 254.94C259.236 254.522 258.642 254.185 258.01 253.94C258.418 254.478 258.903 254.953 259.45 255.35C259.99 255.778 260.59 256.125 261.23 256.38Z" fill="white"/>
<path d="M237.5 267.48C236.658 266.418 235.555 265.591 234.3 265.08C234.711 265.616 235.196 266.091 235.74 266.49C236.277 266.901 236.87 267.234 237.5 267.48Z" fill="white"/>
<path d="M241.36 317.79C242.03 316.9 246.9 308.23 247.92 306.32C248.94 304.41 253.18 296.66 254.06 294.61C254.064 294.594 254.063 294.576 254.057 294.56C254.05 294.545 254.039 294.531 254.024 294.522C254.01 294.513 253.993 294.509 253.976 294.511C253.959 294.512 253.943 294.519 253.93 294.53C252.68 296.38 248.38 304.19 247.3 306.11C246.22 308.03 241.6 316.71 241.22 317.73C241.19 317.82 241.31 317.85 241.36 317.79Z" fill="#263238"/>
<path d="M260.13 294.49L259.47 295.59C259.56 295.47 259.92 294.65 259.92 294.65C255.62 293.65 251.34 292.58 247.11 291.27C246.58 291.1 246.05 290.93 245.52 290.73C244.951 290.538 244.408 290.28 243.9 289.96C243.857 289.927 243.817 289.89 243.78 289.85C243.717 289.775 243.666 289.691 243.63 289.6C243.593 289.446 243.593 289.284 243.63 289.13C243.68 288.99 243.74 288.83 243.8 288.7C243.86 288.57 244.04 288.18 244.16 287.93C244.41 287.43 244.68 286.93 244.94 286.45C246 284.45 247.1 282.57 248.23 280.66C250.52 276.86 252.8 273.06 255.17 269.33C257.41 265.79 259.74 261.79 262.09 258.33C262.23 258.12 262.59 257.93 262.16 258.69C260 262.56 258.05 265.9 255.82 269.69L249.08 281.13C247.96 283.04 246.82 284.93 245.75 286.86C245.48 287.34 245.21 287.86 244.96 288.31C244.83 288.55 244.72 288.79 244.6 289.03L244.5 289.3L244.43 289.25C244.436 289.273 244.436 289.297 244.43 289.32C244.43 289.32 244.43 289.41 244.43 289.38V289.31C244.847 289.546 245.282 289.75 245.73 289.92L247.27 290.49C249.34 291.24 251.45 291.91 253.57 292.56L260.13 294.49Z" fill="#263238"/>
<path d="M244.5 289.38C244.5 289.38 244.5 289.33 244.5 289.32C244.506 289.297 244.506 289.273 244.5 289.25V289.38Z" fill="#263238"/>
<path d="M261.5 263.34C261.8 263.11 261.77 263.34 261.63 263.47C260.86 264.47 259.68 265.52 258.82 266.4C257.812 267.446 256.736 268.425 255.6 269.33C256.487 268.177 257.445 267.082 258.47 266.05C259.415 265.077 260.428 264.171 261.5 263.34Z" fill="#263238"/>
<path d="M278.77 247.58C275.33 248.58 269.13 243.58 266.58 239.35C266.4 239.06 266.71 235.93 266.9 232.11C267.01 229.8 267.08 227.21 266.97 224.85C266.97 224.37 281.97 227.76 281.97 227.76C281.263 230.754 280.927 233.824 280.97 236.9C280.987 237.237 281.034 237.571 281.11 237.9C281.11 237.9 281.11 238 281.11 238.06C281.51 239.85 282.09 246.63 278.77 247.58Z" fill="#EB9481"/>
<path d="M267.89 224.87C268.76 228.87 271.7 238.36 279.61 238.17C280.117 238.164 280.622 238.114 281.12 238.02C281.127 237.967 281.127 237.913 281.12 237.86C281.046 237.531 280.996 237.196 280.97 236.86C280.931 233.784 281.266 230.715 281.97 227.72C281.97 227.72 271.13 225.31 267.89 224.87Z" fill="#263238"/>
<path d="M285.44 201.23C285.44 201.23 290.26 203.23 291.15 208.11C292.04 212.99 290.93 218.11 290.51 218.38C290.09 218.65 285.44 201.23 285.44 201.23Z" fill="#263238"/>
<path d="M265.17 207.41C263.77 212.72 267.17 227.79 270.98 231.03C276.59 235.73 285.47 235.86 289.39 229.19C293.19 222.73 288.48 203.19 284.19 200.25C277.87 195.94 267.24 199.56 265.17 207.41Z" fill="#EB9481"/>
<path d="M280.6 217.33C280.6 217.33 280.53 217.4 280.54 217.44C280.8 218.44 280.92 219.65 280.07 220.18C280.07 220.18 280.07 220.25 280.07 220.24C281.18 219.84 281 218.25 280.6 217.33Z" fill="#263238"/>
<path d="M279.46 216.47C277.8 216.7 278.39 220.01 279.93 219.79C281.47 219.57 280.86 216.28 279.46 216.47Z" fill="#263238"/>
<path d="M286.34 216.35C286.34 216.35 286.43 216.35 286.43 216.43C286.58 217.43 286.93 218.61 287.91 218.79V218.85C286.77 218.94 286.31 217.35 286.34 216.35Z" fill="#263238"/>
<path d="M287.06 215.12C288.69 214.7 289.4 217.98 287.9 218.37C286.4 218.76 285.7 215.47 287.06 215.12Z" fill="#263238"/>
<path d="M277.48 214.12C277.922 213.996 278.356 213.845 278.78 213.67C279.262 213.574 279.698 213.321 280.02 212.95C280.096 212.814 280.126 212.657 280.107 212.502C280.087 212.347 280.018 212.203 279.91 212.09C279.657 211.903 279.358 211.787 279.045 211.755C278.732 211.724 278.415 211.777 278.13 211.91C277.512 212.081 276.981 212.477 276.64 213.02C276.571 213.149 276.54 213.294 276.552 213.44C276.564 213.585 276.617 213.725 276.706 213.841C276.794 213.957 276.914 214.045 277.052 214.094C277.189 214.144 277.338 214.153 277.48 214.12Z" fill="#263238"/>
<path d="M288.15 212.44C287.692 212.428 287.234 212.392 286.78 212.33C286.291 212.359 285.805 212.226 285.4 211.95C285.289 211.839 285.218 211.694 285.198 211.539C285.179 211.383 285.211 211.225 285.29 211.09C285.487 210.846 285.746 210.658 286.039 210.548C286.333 210.437 286.651 210.407 286.96 210.46C287.602 210.476 288.217 210.725 288.69 211.16C288.791 211.267 288.858 211.401 288.884 211.546C288.91 211.691 288.893 211.84 288.836 211.976C288.779 212.111 288.684 212.227 288.562 212.309C288.44 212.392 288.297 212.437 288.15 212.44Z" fill="#263238"/>
<path d="M280.57 227.15C280.839 227.414 281.194 227.573 281.57 227.6C281.949 227.52 282.309 227.367 282.63 227.15C282.63 227.15 282.7 227.15 282.68 227.15C282.57 227.378 282.4 227.572 282.189 227.711C281.978 227.85 281.733 227.929 281.48 227.94C281.255 227.928 281.039 227.849 280.86 227.711C280.681 227.573 280.549 227.385 280.48 227.17C280.48 227.17 280.53 227.12 280.57 227.15Z" fill="#263238"/>
<path d="M281.11 223.94C281.44 224.301 281.842 224.588 282.29 224.785C282.737 224.981 283.221 225.082 283.71 225.08C284.135 225.087 284.56 225.033 284.97 224.92L285.21 224.85L285.43 224.78C285.482 224.757 285.525 224.719 285.553 224.671C285.582 224.622 285.595 224.566 285.59 224.51C285.593 224.477 285.593 224.443 285.59 224.41V224.32C285.48 223.53 285.19 222.32 285.19 222.32C285.5 222.42 287.09 222.82 286.99 222.41C286.272 218.856 285.193 215.385 283.77 212.05C283.757 212.033 283.74 212.021 283.72 212.015C283.7 212.008 283.678 212.008 283.658 212.015C283.638 212.022 283.621 212.035 283.609 212.052C283.597 212.069 283.59 212.089 283.59 212.11C284.24 215.38 285.45 218.52 286.16 221.8C285.593 221.647 285.007 221.576 284.42 221.59C284.32 221.64 285.02 223.87 285.04 224.23C284.406 224.409 283.743 224.458 283.09 224.374C282.437 224.289 281.808 224.074 281.24 223.74C281.1 223.74 281.03 223.82 281.11 223.94Z" fill="#263238"/>
<path d="M284.44 224.55C284.108 225.191 283.615 225.736 283.01 226.13C282.673 226.332 282.282 226.426 281.89 226.4C281.04 226.33 280.89 225.58 280.89 224.91C280.914 224.554 280.977 224.202 281.08 223.86C282.096 224.447 283.275 224.689 284.44 224.55Z" fill="#263238"/>
<path d="M283.01 226.13C282.673 226.332 282.282 226.426 281.89 226.4C281.04 226.33 280.89 225.58 280.89 224.91C281.329 224.85 281.775 224.937 282.158 225.158C282.542 225.379 282.841 225.721 283.01 226.13Z" fill="#FF98B9"/>
<path d="M267.15 221.7C268.93 221.94 270.03 216.53 270.25 214.49C270.45 212.69 270.1 207.13 270.12 206.75C270.14 206.37 278.29 210.35 282.34 208.4C286.39 206.45 288.6 202.15 288.34 200.4C288.08 198.65 282.06 194.96 277.44 195.49C272.82 196.02 267.61 202.86 267.61 202.86C268.212 201.901 268.74 200.899 269.19 199.86C269.08 199.66 266.32 201.34 266.13 203.53C266.13 203.53 266.27 200.79 266.04 200.78C265.81 200.77 263.89 203.42 264.69 205.04C264.69 205.04 262.42 207.79 262.6 210.35C262.78 212.91 265.07 221.42 267.15 221.7Z" fill="#263238"/>
<path d="M285.21 207C284.068 207.896 282.792 208.608 281.43 209.11C279.885 209.505 278.265 209.505 276.72 209.11C275.162 208.789 273.668 208.211 272.3 207.4C271.08 206.7 269.96 205.8 268.7 205.21C268.38 205.06 268.12 205.53 268.34 205.76C270.684 208.118 273.723 209.66 277.01 210.16C278.537 210.394 280.099 210.226 281.542 209.674C282.985 209.121 284.259 208.204 285.24 207.01C285.24 207.01 285.23 206.99 285.21 207Z" fill="#263238"/>
<path d="M268.88 219.65C268.88 219.65 265.17 214.95 263.02 216.3C260.87 217.65 263.86 224.61 266.52 225.43C266.856 225.558 267.214 225.617 267.573 225.603C267.931 225.589 268.284 225.503 268.609 225.35C268.934 225.197 269.224 224.98 269.463 224.712C269.703 224.444 269.885 224.13 270 223.79L268.88 219.65Z" fill="#EB9481"/>
<path d="M263.92 218.27C263.92 218.27 263.92 218.33 263.92 218.34C265.8 218.98 266.86 220.62 267.64 222.34C267.523 222.163 267.368 222.013 267.187 221.902C267.006 221.79 266.803 221.719 266.592 221.693C266.381 221.667 266.167 221.688 265.965 221.753C265.762 221.818 265.577 221.926 265.42 222.07C265.42 222.07 265.42 222.18 265.48 222.16C265.796 222.04 266.142 222.021 266.469 222.105C266.797 222.189 267.091 222.373 267.31 222.63C267.673 223.061 267.988 223.531 268.25 224.03C268.35 224.19 268.64 224.09 268.57 223.9C268.45 221.52 266.44 218.36 263.92 218.27Z" fill="#263238"/>
<path d="M264.77 240.46C266.409 242.457 268.158 244.36 270.01 246.16C271.709 247.923 273.933 249.087 276.35 249.48C278.7 249.69 281.05 249.21 281.91 246.34C282.52 243.87 282.578 241.295 282.08 238.8C282.075 238.786 282.074 238.772 282.076 238.758C282.078 238.743 282.083 238.73 282.092 238.718C282.1 238.707 282.111 238.697 282.124 238.69C282.136 238.684 282.151 238.68 282.165 238.68C282.179 238.68 282.194 238.684 282.206 238.69C282.219 238.697 282.23 238.707 282.238 238.718C282.247 238.73 282.252 238.743 282.254 238.758C282.256 238.772 282.255 238.786 282.25 238.8C282.79 242.55 283.35 248.37 279.94 249.67C276.12 251.13 272.37 249.16 269.68 246.52C267.797 244.711 266.12 242.698 264.68 240.52C264.71 240.47 264.77 240.42 264.77 240.46Z" fill="#263238"/>
</svg>
