<svg width="41" height="40" viewBox="0 0 41 40" fill="none" xmlns="http://www.w3.org/2000/svg">
<path d="M20.75 0C18.1236 0 15.5228 0.530159 13.0963 1.56021C10.6698 2.59025 8.46504 4.10002 6.60786 6.0033C2.85714 9.84714 0.75 15.0605 0.75 20.4965C0.75 29.556 6.49 37.2422 14.43 39.9683C15.43 40.1322 15.75 39.4968 15.75 38.9434V35.4795C10.21 36.7093 9.03 32.733 9.03 32.733C8.11 30.3554 6.81 29.72 6.81 29.72C4.99 28.4492 6.95 28.4902 6.95 28.4902C8.95 28.6337 10.01 30.6013 10.01 30.6013C11.75 33.7168 14.69 32.7945 15.83 32.3025C16.01 30.9703 16.53 30.0684 17.09 29.556C12.65 29.0436 7.99 27.2809 7.99 19.4717C7.99 17.1966 8.75 15.3724 10.05 13.9172C9.85 13.4047 9.15 11.2731 10.25 8.50606C10.25 8.50606 11.93 7.95266 15.75 10.5967C17.33 10.1458 19.05 9.92033 20.75 9.92033C22.45 9.92033 24.17 10.1458 25.75 10.5967C29.57 7.95266 31.25 8.50606 31.25 8.50606C32.35 11.2731 31.65 13.4047 31.45 13.9172C32.75 15.3724 33.51 17.1966 33.51 19.4717C33.51 27.3014 28.83 29.0231 24.37 29.5355C25.09 30.1709 25.75 31.4212 25.75 33.3274V38.9434C25.75 39.4968 26.07 40.1527 27.09 39.9683C35.03 37.2217 40.75 29.556 40.75 20.4965C40.75 17.8049 40.2327 15.1396 39.2276 12.6529C38.2225 10.1661 36.7493 7.90658 34.8921 6.0033C33.035 4.10002 30.8302 2.59025 28.4037 1.56021C25.9772 0.530159 23.3764 0 20.75 0Z" fill="#1FCB64"/>
</svg>
